v -0.4 -1.1 -0.1
v -0.5 -1.1 -0.05
v 0.9 -1.1 0.1
v 1.3 -1.1 0.05
v 1.4 -1.1 -0.1
v -0.3 0.45 0.43
v -0.3 0.45 0.43
v -0.3 0.45 0.43
v -0.3 0.45 0.43
v -0.3 0.45 0.43
v -0.3 0.45 0.43
v -0.3 0.45 0.43
v -0.3 0.45 0.43
v -0.3 0.45 0.43
v -0.3 0.45 0.43
v -0.3 0.45 0.43
v -0.3 0.45 0.43
v -0.4 0.45 0.48
v -0.4 0.425 0.4733
v -0.4 0.4067 0.455
v -0.4 0.4 0.43
v -0.4 0.4067 0.405
v -0.4 0.425 0.3867
v -0.4 0.45 0.38
v -0.4 0.475 0.3867
v -0.4 0.4933 0.405
v -0.4 0.5 0.43
v -0.4 0.4933 0.455
v -0.4 0.475 0.4733
v -0.2 0.45 0.48
v -0.2 0.425 0.4733
v -0.2 0.4067 0.455
v -0.2 0.4 0.43
v -0.2 0.4067 0.405
v -0.2 0.425 0.3867
v -0.2 0.45 0.38
v -0.2 0.475 0.3867
v -0.2 0.4933 0.405
v -0.2 0.5 0.43
v -0.2 0.4933 0.455
v -0.2 0.475 0.4733
v -0.2 0.45 0.47
v -0.2 0.43 0.46464
v -0.2 0.41536 0.45
v -0.2 0.41 0.43
v -0.2 0.41536 0.41
v -0.2 0.43 0.39536
v -0.2 0.45 0.39
v -0.2 0.47 0.39536
v -0.2 0.48464 0.41
v -0.2 0.49 0.43
v -0.2 0.48464 0.45
v -0.2 0.47 0.46464
v 0.3 0.45 0.47
v 0.3 0.43 0.46464
v 0.3 0.41536 0.45
v 0.3 0.41 0.43
v 0.3 0.41536 0.41
v 0.3 0.43 0.39536
v 0.3 0.45 0.39
v 0.3 0.47 0.39536
v 0.3 0.48464 0.41
v 0.3 0.49 0.43
v 0.3 0.48464 0.45
v 0.3 0.47 0.46464
v 0.5 0.45 0.53
v 0.5 0.4 0.5166
v 0.5 0.3634 0.48
v 0.5 0.35 0.43
v 0.5 0.3634 0.38
v 0.5 0.4 0.3434
v 0.5 0.45 0.33
v 0.5 0.5 0.3434
v 0.5 0.5366 0.38
v 0.5 0.55 0.43
v 0.5 0.5366 0.48
v 0.5 0.5 0.5166
v 0.7 0.45 0.48
v 0.7 0.425 0.4733
v 0.7 0.4067 0.455
v 0.7 0.4 0.43
v 0.7 0.4067 0.405
v 0.7 0.425 0.3867
v 0.7 0.45 0.38
v 0.7 0.475 0.3867
v 0.7 0.4933 0.405
v 0.7 0.5 0.43
v 0.7 0.4933 0.455
v 0.7 0.475 0.4733
v 0.75 0.45 0.43
v 0.75 0.45 0.43
v 0.75 0.45 0.43
v 0.75 0.45 0.43
v 0.75 0.45 0.43
v 0.75 0.45 0.43
v 0.75 0.45 0.43
v 0.75 0.45 0.43
v 0.75 0.45 0.43
v 0.75 0.45 0.43
v 0.75 0.45 0.43
v 0.75 0.45 0.43
v -0.3 -0.45 0.43
v -0.3 -0.45 0.43
v -0.3 -0.45 0.43
v -0.3 -0.45 0.43
v -0.3 -0.45 0.43
v -0.3 -0.45 0.43
v -0.3 -0.45 0.43
v -0.3 -0.45 0.43
v -0.3 -0.45 0.43
v -0.3 -0.45 0.43
v -0.3 -0.45 0.43
v -0.3 -0.45 0.43
v -0.4 -0.45 0.38
v -0.4 -0.425 0.3867
v -0.4 -0.4067 0.405
v -0.4 -0.4 0.43
v -0.4 -0.4067 0.455
v -0.4 -0.425 0.4733
v -0.4 -0.45 0.48
v -0.4 -0.475 0.4733
v -0.4 -0.4933 0.455
v -0.4 -0.5 0.43
v -0.4 -0.4933 0.405
v -0.4 -0.475 0.3867
v -0.2 -0.45 0.38
v -0.2 -0.425 0.3867
v -0.2 -0.4067 0.405
v -0.2 -0.4 0.43
v -0.2 -0.4067 0.455
v -0.2 -0.425 0.4733
v -0.2 -0.45 0.48
v -0.2 -0.475 0.4733
v -0.2 -0.4933 0.455
v -0.2 -0.5 0.43
v -0.2 -0.4933 0.405
v -0.2 -0.475 0.3867
v -0.2 -0.45 0.39
v -0.2 -0.43 0.39536
v -0.2 -0.41536 0.41
v -0.2 -0.41 0.43
v -0.2 -0.41536 0.45
v -0.2 -0.43 0.46464
v -0.2 -0.45 0.47
v -0.2 -0.47 0.46464
v -0.2 -0.48464 0.45
v -0.2 -0.49 0.43
v -0.2 -0.48464 0.41
v -0.2 -0.47 0.39536
v 0.3 -0.45 0.39
v 0.3 -0.43 0.39536
v 0.3 -0.41536 0.41
v 0.3 -0.41 0.43
v 0.3 -0.41536 0.45
v 0.3 -0.43 0.46464
v 0.3 -0.45 0.47
v 0.3 -0.47 0.46464
v 0.3 -0.48464 0.45
v 0.3 -0.49 0.43
v 0.3 -0.48464 0.41
v 0.3 -0.47 0.39536
v 0.5 -0.45 0.33
v 0.5 -0.4 0.3434
v 0.5 -0.3634 0.38
v 0.5 -0.35 0.43
v 0.5 -0.3634 0.48
v 0.5 -0.4 0.5166
v 0.5 -0.45 0.53
v 0.5 -0.5 0.5166
v 0.5 -0.5366 0.48
v 0.5 -0.55 0.43
v 0.5 -0.5366 0.38
v 0.5 -0.5 0.3434
v 0.7 -0.45 0.38
v 0.7 -0.425 0.3867
v 0.7 -0.4067 0.405
v 0.7 -0.4 0.43
v 0.7 -0.4067 0.455
v 0.7 -0.425 0.4733
v 0.7 -0.45 0.48
v 0.7 -0.475 0.4733
v 0.7 -0.4933 0.455
v 0.7 -0.5 0.43
v 0.7 -0.4933 0.405
v 0.7 -0.475 0.3867
v 0.75 -0.45 0.43
v 0.75 -0.45 0.43
v 0.75 -0.45 0.43
v 0.75 -0.45 0.43
v 0.75 -0.45 0.43
v 0.75 -0.45 0.43
v 0.75 -0.45 0.43
v 0.75 -0.45 0.43
v 0.75 -0.45 0.43
v 0.75 -0.45 0.43
v 0.75 -0.45 0.43
v 0.75 -0.45 0.43
v -0.3 0.65 0.34
v -0.3 0.65 0.34
v -0.3 0.65 0.34
v -0.3 0.65 0.34
v -0.3 0.65 0.34
v -0.3 0.65 0.34
v -0.3 0.65 0.34
v -0.3 0.65 0.34
v -0.3 0.65 0.34
v -0.3 0.65 0.34
v -0.3 0.65 0.34
v -0.3 0.65 0.34
v -0.4 0.65 0.39
v -0.4 0.625 0.3833
v -0.4 0.6067 0.365
v -0.4 0.6 0.34
v -0.4 0.6067 0.315
v -0.4 0.625 0.2967
v -0.4 0.65 0.29
v -0.4 0.675 0.2967
v -0.4 0.6933 0.315
v -0.4 0.7 0.34
v -0.4 0.6933 0.365
v -0.4 0.675 0.3833
v -0.2 0.65 0.39
v -0.2 0.625 0.3833
v -0.2 0.6067 0.365
v -0.2 0.6 0.34
v -0.2 0.6067 0.315
v -0.2 0.625 0.2967
v -0.2 0.65 0.29
v -0.2 0.675 0.2967
v -0.2 0.6933 0.315
v -0.2 0.7 0.34
v -0.2 0.6933 0.365
v -0.2 0.675 0.3833
v -0.2 0.65 0.38
v -0.2 0.63 0.37464
v -0.2 0.61536 0.36
v -0.2 0.61 0.34
v -0.2 0.61536 0.32
v -0.2 0.63 0.30536
v -0.2 0.65 0.3
v -0.2 0.67 0.30536
v -0.2 0.68464 0.32
v -0.2 0.69 0.34
v -0.2 0.68464 0.36
v -0.2 0.67 0.37464
v 0.3 0.65 0.38
v 0.3 0.63 0.37464
v 0.3 0.61536 0.36
v 0.3 0.61 0.34
v 0.3 0.61536 0.32
v 0.3 0.63 0.30536
v 0.3 0.65 0.3
v 0.3 0.67 0.30536
v 0.3 0.68464 0.32
v 0.3 0.69 0.34
v 0.3 0.68464 0.36
v 0.3 0.67 0.37464
v 0.5 0.65 0.44
v 0.5 0.6 0.4266
v 0.5 0.5634 0.39
v 0.5 0.55 0.34
v 0.5 0.5634 0.29
v 0.5 0.6 0.2534
v 0.5 0.65 0.24
v 0.5 0.7 0.2534
v 0.5 0.7366 0.29
v 0.5 0.75 0.34
v 0.5 0.7366 0.39
v 0.5 0.7 0.4266
v 0.7 0.65 0.39
v 0.7 0.625 0.3833
v 0.7 0.6067 0.365
v 0.7 0.6 0.34
v 0.7 0.6067 0.315
v 0.7 0.625 0.2967
v 0.7 0.65 0.29
v 0.7 0.675 0.2967
v 0.7 0.6933 0.315
v 0.7 0.7 0.34
v 0.7 0.6933 0.365
v 0.7 0.675 0.3833
v 0.75 0.65 0.34
v 0.75 0.65 0.34
v 0.75 0.65 0.34
v 0.75 0.65 0.34
v 0.75 0.65 0.34
v 0.75 0.65 0.34
v 0.75 0.65 0.34
v 0.75 0.65 0.34
v 0.75 0.65 0.34
v 0.75 0.65 0.34
v 0.75 0.65 0.34
v 0.75 0.65 0.34
v -0.3 -0.65 0.34
v -0.3 -0.65 0.34
v -0.3 -0.65 0.34
v -0.3 -0.65 0.34
v -0.3 -0.65 0.34
v -0.3 -0.65 0.34
v -0.3 -0.65 0.34
v -0.3 -0.65 0.34
v -0.3 -0.65 0.34
v -0.3 -0.65 0.34
v -0.3 -0.65 0.34
v -0.3 -0.65 0.34
v -0.4 -0.65 0.29
v -0.4 -0.625 0.2967
v -0.4 -0.6067 0.315
v -0.4 -0.6 0.34
v -0.4 -0.6067 0.365
v -0.4 -0.625 0.3833
v -0.4 -0.65 0.39
v -0.4 -0.675 0.3833
v -0.4 -0.6933 0.365
v -0.4 -0.7 0.34
v -0.4 -0.6933 0.315
v -0.4 -0.675 0.2967
v -0.2 -0.65 0.29
v -0.2 -0.625 0.2967
v -0.2 -0.6067 0.315
v -0.2 -0.6 0.34
v -0.2 -0.6067 0.365
v -0.2 -0.625 0.3833
v -0.2 -0.65 0.39
v -0.2 -0.675 0.3833
v -0.2 -0.6933 0.365
v -0.2 -0.7 0.34
v -0.2 -0.6933 0.315
v -0.2 -0.675 0.2967
v -0.2 -0.65 0.3
v -0.2 -0.63 0.30536
v -0.2 -0.61536 0.32
v -0.2 -0.61 0.34
v -0.2 -0.61536 0.36
v -0.2 -0.63 0.37464
v -0.2 -0.65 0.38
v -0.2 -0.67 0.37464
v -0.2 -0.68464 0.36
v -0.2 -0.69 0.34
v -0.2 -0.68464 0.32
v -0.2 -0.67 0.30536
v 0.3 -0.65 0.3
v 0.3 -0.63 0.30536
v 0.3 -0.61536 0.32
v 0.3 -0.61 0.34
v 0.3 -0.61536 0.36
v 0.3 -0.63 0.37464
v 0.3 -0.65 0.38
v 0.3 -0.67 0.37464
v 0.3 -0.68464 0.36
v 0.3 -0.69 0.34
v 0.3 -0.68464 0.32
v 0.3 -0.67 0.30536
v 0.5 -0.65 0.24
v 0.5 -0.6 0.2534
v 0.5 -0.5634 0.29
v 0.5 -0.55 0.34
v 0.5 -0.5634 0.39
v 0.5 -0.6 0.4266
v 0.5 -0.65 0.44
v 0.5 -0.7 0.4266
v 0.5 -0.7366 0.39
v 0.5 -0.75 0.34
v 0.5 -0.7366 0.29
v 0.5 -0.7 0.2534
v 0.7 -0.65 0.29
v 0.7 -0.625 0.2967
v 0.7 -0.6067 0.315
v 0.7 -0.6 0.34
v 0.7 -0.6067 0.365
v 0.7 -0.625 0.3833
v 0.7 -0.65 0.39
v 0.7 -0.675 0.3833
v 0.7 -0.6933 0.365
v 0.7 -0.7 0.34
v 0.7 -0.6933 0.315
v 0.7 -0.675 0.2967
v 0.75 -0.65 0.34
v 0.75 -0.65 0.34
v 0.75 -0.65 0.34
v 0.75 -0.65 0.34
v 0.75 -0.65 0.34
v 0.75 -0.65 0.34
v 0.75 -0.65 0.34
v 0.75 -0.65 0.34
v 0.75 -0.65 0.34
v 0.75 -0.65 0.34
v 0.75 -0.65 0.34
v 0.75 -0.65 0.34
v 0.25 0 0.37
v 0.4 0 0.43
v 0.7 0 0.43
v 0.8 0 0.32
v -0.4 0.1 0
v -0.04 0.1 0.06
v -0.04 0.1 -0.06
v 0 0.1 0
v -0.85 0.1 0
v -0.35 0.1 0
v -0.4 -0.1 0
v -0.04 -0.1 0.06
v -0.04 -0.1 -0.06
v 0 -0.1 0
v -0.85 -0.1 0
v -0.35 -0.1 0
v -0.4 0 0.05
v 0.5 0 0.15
v 0.5 0 -0.05
v 0.6 0 0.05
v 0.3 0 0.05
v 0.9 0 0.05
v -0.4 0 0.05
v 0.5 0 0.15
v 0.5 0 -0.05
v 0.6 0 0.05
v 0.3 0 0.05
v 0.9 0 0.05
v -0.4 0.1 0
v -0.04 0.1 0.06
v -0.04 0.1 -0.06
v 0 0.1 0
v -0.85 0.1 0
v -0.35 0.1 0
v -0.4 -0.1 0
v -0.04 -0.1 0.06
v -0.04 -0.1 -0.06
v 0 -0.1 0
v -0.85 -0.1 0
v -0.35 -0.1 0
v 0.1 0.1 0.05
v 0.1 0.1 0.05
v 0.1 0.1 0.05
v 0.1 0.1 0.05
v 0.4 0.49837 0.28
v 0.4 0.49837 0.28
v 0.4 0.49837 0.28
v 0.4 0.49837 0.28
v -0.05 0.54721 0.42183
v 0.67 0.41956 0.46578
v 0.67 0.67485 0.37788
v 0.85 0.54721 0.42183
v -0.65 0.56349 0.4691
v 0.71 0.32238 0.55212
v 0.71 0.80459 0.38608
v 1.05 0.56349 0.4691
v 0.3 0.59604 0.56366
v 0.7 0.59604 0.56366
v 0.1 -0.1 0.05
v 0.1 -0.1 0.05
v 0.1 -0.1 0.05
v 0.1 -0.1 0.05
v 0.4 -0.49837 0.28
v 0.4 -0.49837 0.28
v 0.4 -0.49837 0.28
v 0.4 -0.49837 0.28
v -0.05 -0.54721 0.42183
v 0.67 -0.41956 0.46578
v 0.67 -0.67485 0.37788
v 0.85 -0.54721 0.42183
v -0.65 -0.56349 0.4691
v 0.71 -0.32238 0.55212
v 0.71 -0.80459 0.38608
v 1.05 -0.56349 0.4691
v 0.3 -0.59604 0.56366
v 0.7 -0.59604 0.56366

vt 0.5625 0.525
vt 0.5625 0.725
vt 0.5625 0.725
vt 0.5625 0.525
vt 0.5625 0.525
vt 0.5625 0.725
vt 0.87625 0.025
vt 0.87625 0.225
vt 0.87625 0.225
vt 0.87625 0.025
vt 0.87625 0.025
vt 0.87625 0.225
vt 0.3125 0.275
vt 0.3125 0.475
vt 0.3125 0.475
vt 0.3125 0.275
vt 0.3125 0.275
vt 0.3125 0.475
vt 0.5625 0.775
vt 0.5625 0.975
vt 0.5625 0.975
vt 0.5625 0.775
vt 0.5625 0.775
vt 0.5625 0.975
vt 0.1875 0.275
vt 0.1875 0.475
vt 0.20417 0.475
vt 0.20417 0.275
vt 0.1875 0.275
vt 0.20417 0.475
vt 0.20417 0.275
vt 0.20417 0.475
vt 0.22083 0.475
vt 0.22083 0.275
vt 0.20417 0.275
vt 0.22083 0.475
vt 0.22083 0.275
vt 0.22083 0.475
vt 0.2375 0.475
vt 0.2375 0.275
vt 0.22083 0.275
vt 0.2375 0.475
vt 0.1375 0.275
vt 0.1375 0.475
vt 0.15417 0.475
vt 0.15417 0.275
vt 0.1375 0.275
vt 0.15417 0.475
vt 0.15417 0.275
vt 0.15417 0.475
vt 0.17083 0.475
vt 0.17083 0.275
vt 0.15417 0.275
vt 0.17083 0.475
vt 0.17083 0.275
vt 0.17083 0.475
vt 0.1875 0.475
vt 0.1875 0.275
vt 0.17083 0.275
vt 0.1875 0.475
vt 0.1875 0.275
vt 0.1875 0.475
vt 0.20417 0.275
vt 0.1875 0.475
vt 0.20417 0.475
vt 0.20417 0.275
vt 0.20417 0.275
vt 0.20417 0.475
vt 0.22083 0.275
vt 0.20417 0.475
vt 0.22083 0.475
vt 0.22083 0.275
vt 0.22083 0.275
vt 0.22083 0.475
vt 0.2375 0.275
vt 0.22083 0.475
vt 0.2375 0.475
vt 0.2375 0.275
vt 0.1375 0.275
vt 0.1375 0.475
vt 0.15417 0.275
vt 0.1375 0.475
vt 0.15417 0.475
vt 0.15417 0.275
vt 0.15417 0.275
vt 0.15417 0.475
vt 0.17083 0.275
vt 0.15417 0.475
vt 0.17083 0.475
vt 0.17083 0.275
vt 0.17083 0.275
vt 0.17083 0.475
vt 0.1875 0.275
vt 0.17083 0.475
vt 0.1875 0.475
vt 0.1875 0.275
vt 0.3125 0.275
vt 0.3125 0.475
vt 0.32917 0.475
vt 0.32917 0.275
vt 0.3125 0.275
vt 0.32917 0.475
vt 0.32917 0.275
vt 0.32917 0.475
vt 0.34583 0.475
vt 0.34583 0.275
vt 0.32917 0.275
vt 0.34583 0.475
vt 0.34583 0.275
vt 0.34583 0.475
vt 0.3625 0.475
vt 0.3625 0.275
vt 0.34583 0.275
vt 0.3625 0.475
vt 0.2625 0.275
vt 0.2625 0.475
vt 0.27917 0.475
vt 0.27917 0.275
vt 0.2625 0.275
vt 0.27917 0.475
vt 0.27917 0.275
vt 0.27917 0.475
vt 0.29583 0.475
vt 0.29583 0.275
vt 0.27917 0.275
vt 0.29583 0.475
vt 0.29583 0.275
vt 0.29583 0.475
vt 0.3125 0.475
vt 0.3125 0.275
vt 0.29583 0.275
vt 0.3125 0.475
vt 0.3125 0.275
vt 0.3125 0.475
vt 0.32917 0.275
vt 0.3125 0.475
vt 0.32917 0.475
vt 0.32917 0.275
vt 0.32917 0.275
vt 0.32917 0.475
vt 0.34583 0.275
vt 0.32917 0.475
vt 0.34583 0.475
vt 0.34583 0.275
vt 0.34583 0.275
vt 0.34583 0.475
vt 0.3625 0.275
vt 0.34583 0.475
vt 0.3625 0.475
vt 0.3625 0.275
vt 0.2625 0.275
vt 0.2625 0.475
vt 0.27917 0.275
vt 0.2625 0.475
vt 0.27917 0.475
vt 0.27917 0.275
vt 0.27917 0.275
vt 0.27917 0.475
vt 0.29583 0.275
vt 0.27917 0.475
vt 0.29583 0.475
vt 0.29583 0.275
vt 0.29583 0.275
vt 0.29583 0.475
vt 0.3125 0.275
vt 0.29583 0.475
vt 0.3125 0.475
vt 0.3125 0.275
vt 0.5625 0.775
vt 0.5625 0.975
vt 0.57917 0.975
vt 0.57917 0.775
vt 0.5625 0.775
vt 0.57917 0.975
vt 0.57917 0.775
vt 0.57917 0.975
vt 0.59583 0.975
vt 0.59583 0.775
vt 0.57917 0.775
vt 0.59583 0.975
vt 0.59583 0.775
vt 0.59583 0.975
vt 0.6125 0.975
vt 0.6125 0.775
vt 0.59583 0.775
vt 0.6125 0.975
vt 0.5125 0.775
vt 0.5125 0.975
vt 0.52917 0.975
vt 0.52917 0.775
vt 0.5125 0.775
vt 0.52917 0.975
vt 0.52917 0.775
vt 0.52917 0.975
vt 0.54583 0.975
vt 0.54583 0.775
vt 0.52917 0.775
vt 0.54583 0.975
vt 0.54583 0.775
vt 0.54583 0.975
vt 0.5625 0.975
vt 0.5625 0.775
vt 0.54583 0.775
vt 0.5625 0.975
vt 0.5625 0.775
vt 0.5625 0.975
vt 0.57917 0.775
vt 0.5625 0.975
vt 0.57917 0.975
vt 0.57917 0.775
vt 0.57917 0.775
vt 0.57917 0.975
vt 0.59583 0.775
vt 0.57917 0.975
vt 0.59583 0.975
vt 0.59583 0.775
vt 0.59583 0.775
vt 0.59583 0.975
vt 0.6125 0.775
vt 0.59583 0.975
vt 0.6125 0.975
vt 0.6125 0.775
vt 0.5125 0.775
vt 0.5125 0.975
vt 0.52917 0.775
vt 0.5125 0.975
vt 0.52917 0.975
vt 0.52917 0.775
vt 0.52917 0.775
vt 0.52917 0.975
vt 0.54583 0.775
vt 0.52917 0.975
vt 0.54583 0.975
vt 0.54583 0.775
vt 0.54583 0.775
vt 0.54583 0.975
vt 0.5625 0.775
vt 0.54583 0.975
vt 0.5625 0.975
vt 0.5625 0.775
vt 0.87625 0.025
vt 0.87625 0.225
vt 0.87625 0.225
vt 0.87625 0.025
vt 0.87625 0.025
vt 0.87625 0.225
vt 0.87625 0.025
vt 0.87625 0.225
vt 0.87625 0.225
vt 0.87625 0.025
vt 0.87625 0.025
vt 0.87625 0.225
vt 0.87625 0.025
vt 0.87625 0.225
vt 0.87625 0.225
vt 0.87625 0.025
vt 0.87625 0.025
vt 0.87625 0.225
vt 0.87625 0.025
vt 0.87625 0.225
vt 0.87625 0.225
vt 0.87625 0.025
vt 0.87625 0.025
vt 0.87625 0.225
vt 0.87625 0.025
vt 0.87625 0.225
vt 0.87625 0.225
vt 0.87625 0.025
vt 0.87625 0.025
vt 0.87625 0.225
vt 0.87625 0.025
vt 0.87625 0.225
vt 0.87625 0.225
vt 0.87625 0.025
vt 0.87625 0.025
vt 0.87625 0.225
vt 0.87625 0.025
vt 0.87625 0.225
vt 0.87625 0.025
vt 0.87625 0.225
vt 0.87625 0.225
vt 0.87625 0.025
vt 0.87625 0.025
vt 0.87625 0.225
vt 0.87625 0.025
vt 0.87625 0.225
vt 0.87625 0.225
vt 0.87625 0.025
vt 0.87625 0.025
vt 0.87625 0.225
vt 0.87625 0.025
vt 0.87625 0.225
vt 0.87625 0.225
vt 0.87625 0.025
vt 0.87625 0.025
vt 0.87625 0.225
vt 0.87625 0.025
vt 0.87625 0.225
vt 0.87625 0.225
vt 0.87625 0.025
vt 0.87625 0.025
vt 0.87625 0.225
vt 0.87625 0.025
vt 0.87625 0.225
vt 0.87625 0.225
vt 0.87625 0.025
vt 0.87625 0.025
vt 0.87625 0.225
vt 0.87625 0.025
vt 0.87625 0.225
vt 0.87625 0.225
vt 0.87625 0.025
vt 0.5125 0.775
vt 0.5125 0.975
vt 0.54583 0.975
vt 0.54583 0.775
vt 0.5125 0.775
vt 0.54583 0.975
vt 0.54583 0.775
vt 0.54583 0.975
vt 0.57917 0.975
vt 0.57917 0.775
vt 0.54583 0.775
vt 0.57917 0.975
vt 0.57917 0.775
vt 0.57917 0.975
vt 0.6125 0.975
vt 0.6125 0.775
vt 0.57917 0.775
vt 0.6125 0.975
vt 0.5125 0.775
vt 0.5125 0.975
vt 0.54583 0.975
vt 0.54583 0.775
vt 0.5125 0.775
vt 0.54583 0.975
vt 0.54583 0.775
vt 0.54583 0.975
vt 0.57917 0.975
vt 0.57917 0.775
vt 0.54583 0.775
vt 0.57917 0.975
vt 0.57917 0.775
vt 0.57917 0.975
vt 0.6125 0.975
vt 0.6125 0.775
vt 0.57917 0.775
vt 0.6125 0.975
vt 0.5125 0.775
vt 0.5125 0.975
vt 0.54583 0.775
vt 0.5125 0.975
vt 0.54583 0.975
vt 0.54583 0.775
vt 0.54583 0.775
vt 0.54583 0.975
vt 0.57917 0.775
vt 0.54583 0.975
vt 0.57917 0.975
vt 0.57917 0.775
vt 0.57917 0.775
vt 0.57917 0.975
vt 0.6125 0.775
vt 0.57917 0.975
vt 0.6125 0.975
vt 0.6125 0.775
vt 0.5125 0.775
vt 0.5125 0.975
vt 0.54583 0.775
vt 0.5125 0.975
vt 0.54583 0.975
vt 0.54583 0.775
vt 0.54583 0.775
vt 0.54583 0.975
vt 0.57917 0.775
vt 0.54583 0.975
vt 0.57917 0.975
vt 0.57917 0.775
vt 0.57917 0.775
vt 0.57917 0.975
vt 0.6125 0.775
vt 0.57917 0.975
vt 0.6125 0.975
vt 0.6125 0.775
vt 0.87625 0.025
vt 0.87625 0.225
vt 0.87625 0.225
vt 0.87625 0.025
vt 0.87625 0.025
vt 0.87625 0.225
vt 0.87625 0.025
vt 0.87625 0.225
vt 0.87625 0.225
vt 0.87625 0.025
vt 0.87625 0.025
vt 0.87625 0.225
vt 0.87625 0.025
vt 0.87625 0.225
vt 0.87625 0.225
vt 0.87625 0.025
vt 0.87625 0.025
vt 0.87625 0.225
vt 0.87625 0.025
vt 0.87625 0.225
vt 0.87625 0.225
vt 0.87625 0.025
vt 0.87625 0.025
vt 0.87625 0.225
vt 0.87625 0.025
vt 0.87625 0.225
vt 0.87625 0.225
vt 0.87625 0.025
vt 0.87625 0.025
vt 0.87625 0.225
vt 0.87625 0.025
vt 0.87625 0.225
vt 0.87625 0.225
vt 0.87625 0.025
vt 0.87625 0.025
vt 0.87625 0.225
vt 0.87625 0.025
vt 0.87625 0.225
vt 0.87625 0.025
vt 0.87625 0.225
vt 0.87625 0.225
vt 0.87625 0.025
vt 0.87625 0.025
vt 0.87625 0.225
vt 0.87625 0.025
vt 0.87625 0.225
vt 0.87625 0.225
vt 0.87625 0.025
vt 0.87625 0.025
vt 0.87625 0.225
vt 0.87625 0.025
vt 0.87625 0.225
vt 0.87625 0.225
vt 0.87625 0.025
vt 0.87625 0.025
vt 0.87625 0.225
vt 0.87625 0.025
vt 0.87625 0.225
vt 0.87625 0.225
vt 0.87625 0.025
vt 0.87625 0.025
vt 0.87625 0.225
vt 0.87625 0.025
vt 0.87625 0.225
vt 0.87625 0.225
vt 0.87625 0.025
vt 0.87625 0.025
vt 0.87625 0.225
vt 0.87625 0.025
vt 0.87625 0.225
vt 0.87625 0.225
vt 0.87625 0.025
vt 0.5125 0.775
vt 0.5125 0.975
vt 0.54583 0.975
vt 0.54583 0.775
vt 0.5125 0.775
vt 0.54583 0.975
vt 0.54583 0.775
vt 0.54583 0.975
vt 0.57917 0.975
vt 0.57917 0.775
vt 0.54583 0.775
vt 0.57917 0.975
vt 0.57917 0.775
vt 0.57917 0.975
vt 0.6125 0.975
vt 0.6125 0.775
vt 0.57917 0.775
vt 0.6125 0.975
vt 0.5125 0.775
vt 0.5125 0.975
vt 0.54583 0.975
vt 0.54583 0.775
vt 0.5125 0.775
vt 0.54583 0.975
vt 0.54583 0.775
vt 0.54583 0.975
vt 0.57917 0.975
vt 0.57917 0.775
vt 0.54583 0.775
vt 0.57917 0.975
vt 0.57917 0.775
vt 0.57917 0.975
vt 0.6125 0.975
vt 0.6125 0.775
vt 0.57917 0.775
vt 0.6125 0.975
vt 0.5125 0.775
vt 0.5125 0.975
vt 0.54583 0.775
vt 0.5125 0.975
vt 0.54583 0.975
vt 0.54583 0.775
vt 0.54583 0.775
vt 0.54583 0.975
vt 0.57917 0.775
vt 0.54583 0.975
vt 0.57917 0.975
vt 0.57917 0.775
vt 0.57917 0.775
vt 0.57917 0.975
vt 0.6125 0.775
vt 0.57917 0.975
vt 0.6125 0.975
vt 0.6125 0.775
vt 0.5125 0.775
vt 0.5125 0.975
vt 0.54583 0.775
vt 0.5125 0.975
vt 0.54583 0.975
vt 0.54583 0.775
vt 0.54583 0.775
vt 0.54583 0.975
vt 0.57917 0.775
vt 0.54583 0.975
vt 0.57917 0.975
vt 0.57917 0.775
vt 0.57917 0.775
vt 0.57917 0.975
vt 0.6125 0.775
vt 0.57917 0.975
vt 0.6125 0.975
vt 0.6125 0.775
vt 0.1875 0.275
vt 0.1875 0.475
vt 0.20417 0.475
vt 0.20417 0.275
vt 0.1875 0.275
vt 0.20417 0.475
vt 0.20417 0.275
vt 0.20417 0.475
vt 0.22083 0.475
vt 0.22083 0.275
vt 0.20417 0.275
vt 0.22083 0.475
vt 0.22083 0.275
vt 0.22083 0.475
vt 0.2375 0.475
vt 0.2375 0.275
vt 0.22083 0.275
vt 0.2375 0.475
vt 0.1375 0.275
vt 0.1375 0.475
vt 0.15417 0.475
vt 0.15417 0.275
vt 0.1375 0.275
vt 0.15417 0.475
vt 0.15417 0.275
vt 0.15417 0.475
vt 0.17083 0.475
vt 0.17083 0.275
vt 0.15417 0.275
vt 0.17083 0.475
vt 0.17083 0.275
vt 0.17083 0.475
vt 0.1875 0.475
vt 0.1875 0.275
vt 0.17083 0.275
vt 0.1875 0.475
vt 0.1875 0.275
vt 0.1875 0.475
vt 0.20417 0.275
vt 0.1875 0.475
vt 0.20417 0.475
vt 0.20417 0.275
vt 0.20417 0.275
vt 0.20417 0.475
vt 0.22083 0.275
vt 0.20417 0.475
vt 0.22083 0.475
vt 0.22083 0.275
vt 0.22083 0.275
vt 0.22083 0.475
vt 0.2375 0.275
vt 0.22083 0.475
vt 0.2375 0.475
vt 0.2375 0.275
vt 0.1375 0.275
vt 0.1375 0.475
vt 0.15417 0.275
vt 0.1375 0.475
vt 0.15417 0.475
vt 0.15417 0.275
vt 0.15417 0.275
vt 0.15417 0.475
vt 0.17083 0.275
vt 0.15417 0.475
vt 0.17083 0.475
vt 0.17083 0.275
vt 0.17083 0.275
vt 0.17083 0.475
vt 0.1875 0.275
vt 0.17083 0.475
vt 0.1875 0.475
vt 0.1875 0.275
vt 0.3125 0.275
vt 0.3125 0.475
vt 0.32917 0.475
vt 0.32917 0.275
vt 0.3125 0.275
vt 0.32917 0.475
vt 0.32917 0.275
vt 0.32917 0.475
vt 0.34583 0.475
vt 0.34583 0.275
vt 0.32917 0.275
vt 0.34583 0.475
vt 0.34583 0.275
vt 0.34583 0.475
vt 0.3625 0.475
vt 0.3625 0.275
vt 0.34583 0.275
vt 0.3625 0.475
vt 0.2625 0.275
vt 0.2625 0.475
vt 0.27917 0.475
vt 0.27917 0.275
vt 0.2625 0.275
vt 0.27917 0.475
vt 0.27917 0.275
vt 0.27917 0.475
vt 0.29583 0.475
vt 0.29583 0.275
vt 0.27917 0.275
vt 0.29583 0.475
vt 0.29583 0.275
vt 0.29583 0.475
vt 0.3125 0.475
vt 0.3125 0.275
vt 0.29583 0.275
vt 0.3125 0.475
vt 0.3125 0.275
vt 0.3125 0.475
vt 0.32917 0.275
vt 0.3125 0.475
vt 0.32917 0.475
vt 0.32917 0.275
vt 0.32917 0.275
vt 0.32917 0.475
vt 0.34583 0.275
vt 0.32917 0.475
vt 0.34583 0.475
vt 0.34583 0.275
vt 0.34583 0.275
vt 0.34583 0.475
vt 0.3625 0.275
vt 0.34583 0.475
vt 0.3625 0.475
vt 0.3625 0.275
vt 0.2625 0.275
vt 0.2625 0.475
vt 0.27917 0.275
vt 0.2625 0.475
vt 0.27917 0.475
vt 0.27917 0.275
vt 0.27917 0.275
vt 0.27917 0.475
vt 0.29583 0.275
vt 0.27917 0.475
vt 0.29583 0.475
vt 0.29583 0.275
vt 0.29583 0.275
vt 0.29583 0.475
vt 0.3125 0.275
vt 0.29583 0.475
vt 0.3125 0.475
vt 0.3125 0.275
vt 0.5625 0.775
vt 0.5625 0.975
vt 0.57917 0.975
vt 0.57917 0.775
vt 0.5625 0.775
vt 0.57917 0.975
vt 0.57917 0.775
vt 0.57917 0.975
vt 0.59583 0.975
vt 0.59583 0.775
vt 0.57917 0.775
vt 0.59583 0.975
vt 0.59583 0.775
vt 0.59583 0.975
vt 0.6125 0.975
vt 0.6125 0.775
vt 0.59583 0.775
vt 0.6125 0.975
vt 0.5125 0.775
vt 0.5125 0.975
vt 0.52917 0.975
vt 0.52917 0.775
vt 0.5125 0.775
vt 0.52917 0.975
vt 0.52917 0.775
vt 0.52917 0.975
vt 0.54583 0.975
vt 0.54583 0.775
vt 0.52917 0.775
vt 0.54583 0.975
vt 0.54583 0.775
vt 0.54583 0.975
vt 0.5625 0.975
vt 0.5625 0.775
vt 0.54583 0.775
vt 0.5625 0.975
vt 0.5625 0.775
vt 0.5625 0.975
vt 0.57917 0.775
vt 0.5625 0.975
vt 0.57917 0.975
vt 0.57917 0.775
vt 0.57917 0.775
vt 0.57917 0.975
vt 0.59583 0.775
vt 0.57917 0.975
vt 0.59583 0.975
vt 0.59583 0.775
vt 0.59583 0.775
vt 0.59583 0.975
vt 0.6125 0.775
vt 0.59583 0.975
vt 0.6125 0.975
vt 0.6125 0.775
vt 0.5125 0.775
vt 0.5125 0.975
vt 0.52917 0.775
vt 0.5125 0.975
vt 0.52917 0.975
vt 0.52917 0.775
vt 0.52917 0.775
vt 0.52917 0.975
vt 0.54583 0.775
vt 0.52917 0.975
vt 0.54583 0.975
vt 0.54583 0.775
vt 0.54583 0.775
vt 0.54583 0.975
vt 0.5625 0.775
vt 0.54583 0.975
vt 0.5625 0.975
vt 0.5625 0.775
vt 0.87625 0.025
vt 0.87625 0.225
vt 0.87625 0.225
vt 0.87625 0.025
vt 0.87625 0.025
vt 0.87625 0.225
vt 0.87625 0.025
vt 0.87625 0.225
vt 0.87625 0.225
vt 0.87625 0.025
vt 0.87625 0.025
vt 0.87625 0.225
vt 0.87625 0.025
vt 0.87625 0.225
vt 0.87625 0.225
vt 0.87625 0.025
vt 0.87625 0.025
vt 0.87625 0.225
vt 0.87625 0.025
vt 0.87625 0.225
vt 0.87625 0.225
vt 0.87625 0.025
vt 0.87625 0.025
vt 0.87625 0.225
vt 0.87625 0.025
vt 0.87625 0.225
vt 0.87625 0.225
vt 0.87625 0.025
vt 0.87625 0.025
vt 0.87625 0.225
vt 0.87625 0.025
vt 0.87625 0.225
vt 0.87625 0.225
vt 0.87625 0.025
vt 0.87625 0.025
vt 0.87625 0.225
vt 0.87625 0.025
vt 0.87625 0.225
vt 0.87625 0.025
vt 0.87625 0.225
vt 0.87625 0.225
vt 0.87625 0.025
vt 0.87625 0.025
vt 0.87625 0.225
vt 0.87625 0.025
vt 0.87625 0.225
vt 0.87625 0.225
vt 0.87625 0.025
vt 0.87625 0.025
vt 0.87625 0.225
vt 0.87625 0.025
vt 0.87625 0.225
vt 0.87625 0.225
vt 0.87625 0.025
vt 0.87625 0.025
vt 0.87625 0.225
vt 0.87625 0.025
vt 0.87625 0.225
vt 0.87625 0.225
vt 0.87625 0.025
vt 0.87625 0.025
vt 0.87625 0.225
vt 0.87625 0.025
vt 0.87625 0.225
vt 0.87625 0.225
vt 0.87625 0.025
vt 0.87625 0.025
vt 0.87625 0.225
vt 0.87625 0.025
vt 0.87625 0.225
vt 0.87625 0.225
vt 0.87625 0.025
vt 0.5125 0.775
vt 0.5125 0.975
vt 0.54583 0.975
vt 0.54583 0.775
vt 0.5125 0.775
vt 0.54583 0.975
vt 0.54583 0.775
vt 0.54583 0.975
vt 0.57917 0.975
vt 0.57917 0.775
vt 0.54583 0.775
vt 0.57917 0.975
vt 0.57917 0.775
vt 0.57917 0.975
vt 0.6125 0.975
vt 0.6125 0.775
vt 0.57917 0.775
vt 0.6125 0.975
vt 0.5125 0.775
vt 0.5125 0.975
vt 0.54583 0.975
vt 0.54583 0.775
vt 0.5125 0.775
vt 0.54583 0.975
vt 0.54583 0.775
vt 0.54583 0.975
vt 0.57917 0.975
vt 0.57917 0.775
vt 0.54583 0.775
vt 0.57917 0.975
vt 0.57917 0.775
vt 0.57917 0.975
vt 0.6125 0.975
vt 0.6125 0.775
vt 0.57917 0.775
vt 0.6125 0.975
vt 0.5125 0.775
vt 0.5125 0.975
vt 0.54583 0.775
vt 0.5125 0.975
vt 0.54583 0.975
vt 0.54583 0.775
vt 0.54583 0.775
vt 0.54583 0.975
vt 0.57917 0.775
vt 0.54583 0.975
vt 0.57917 0.975
vt 0.57917 0.775
vt 0.57917 0.775
vt 0.57917 0.975
vt 0.6125 0.775
vt 0.57917 0.975
vt 0.6125 0.975
vt 0.6125 0.775
vt 0.5125 0.775
vt 0.5125 0.975
vt 0.54583 0.775
vt 0.5125 0.975
vt 0.54583 0.975
vt 0.54583 0.775
vt 0.54583 0.775
vt 0.54583 0.975
vt 0.57917 0.775
vt 0.54583 0.975
vt 0.57917 0.975
vt 0.57917 0.775
vt 0.57917 0.775
vt 0.57917 0.975
vt 0.6125 0.775
vt 0.57917 0.975
vt 0.6125 0.975
vt 0.6125 0.775
vt 0.87625 0.025
vt 0.87625 0.225
vt 0.87625 0.225
vt 0.87625 0.025
vt 0.87625 0.025
vt 0.87625 0.225
vt 0.87625 0.025
vt 0.87625 0.225
vt 0.87625 0.225
vt 0.87625 0.025
vt 0.87625 0.025
vt 0.87625 0.225
vt 0.87625 0.025
vt 0.87625 0.225
vt 0.87625 0.225
vt 0.87625 0.025
vt 0.87625 0.025
vt 0.87625 0.225
vt 0.87625 0.025
vt 0.87625 0.225
vt 0.87625 0.225
vt 0.87625 0.025
vt 0.87625 0.025
vt 0.87625 0.225
vt 0.87625 0.025
vt 0.87625 0.225
vt 0.87625 0.225
vt 0.87625 0.025
vt 0.87625 0.025
vt 0.87625 0.225
vt 0.87625 0.025
vt 0.87625 0.225
vt 0.87625 0.225
vt 0.87625 0.025
vt 0.87625 0.025
vt 0.87625 0.225
vt 0.87625 0.025
vt 0.87625 0.225
vt 0.87625 0.025
vt 0.87625 0.225
vt 0.87625 0.225
vt 0.87625 0.025
vt 0.87625 0.025
vt 0.87625 0.225
vt 0.87625 0.025
vt 0.87625 0.225
vt 0.87625 0.225
vt 0.87625 0.025
vt 0.87625 0.025
vt 0.87625 0.225
vt 0.87625 0.025
vt 0.87625 0.225
vt 0.87625 0.225
vt 0.87625 0.025
vt 0.87625 0.025
vt 0.87625 0.225
vt 0.87625 0.025
vt 0.87625 0.225
vt 0.87625 0.225
vt 0.87625 0.025
vt 0.87625 0.025
vt 0.87625 0.225
vt 0.87625 0.025
vt 0.87625 0.225
vt 0.87625 0.225
vt 0.87625 0.025
vt 0.87625 0.025
vt 0.87625 0.225
vt 0.87625 0.025
vt 0.87625 0.225
vt 0.87625 0.225
vt 0.87625 0.025
vt 0.5125 0.775
vt 0.5125 0.975
vt 0.54583 0.975
vt 0.54583 0.775
vt 0.5125 0.775
vt 0.54583 0.975
vt 0.54583 0.775
vt 0.54583 0.975
vt 0.57917 0.975
vt 0.57917 0.775
vt 0.54583 0.775
vt 0.57917 0.975
vt 0.57917 0.775
vt 0.57917 0.975
vt 0.6125 0.975
vt 0.6125 0.775
vt 0.57917 0.775
vt 0.6125 0.975
vt 0.5125 0.775
vt 0.5125 0.975
vt 0.54583 0.975
vt 0.54583 0.775
vt 0.5125 0.775
vt 0.54583 0.975
vt 0.54583 0.775
vt 0.54583 0.975
vt 0.57917 0.975
vt 0.57917 0.775
vt 0.54583 0.775
vt 0.57917 0.975
vt 0.57917 0.775
vt 0.57917 0.975
vt 0.6125 0.975
vt 0.6125 0.775
vt 0.57917 0.775
vt 0.6125 0.975
vt 0.5125 0.775
vt 0.5125 0.975
vt 0.54583 0.775
vt 0.5125 0.975
vt 0.54583 0.975
vt 0.54583 0.775
vt 0.54583 0.775
vt 0.54583 0.975
vt 0.57917 0.775
vt 0.54583 0.975
vt 0.57917 0.975
vt 0.57917 0.775
vt 0.57917 0.775
vt 0.57917 0.975
vt 0.6125 0.775
vt 0.57917 0.975
vt 0.6125 0.975
vt 0.6125 0.775
vt 0.5125 0.775
vt 0.5125 0.975
vt 0.54583 0.775
vt 0.5125 0.975
vt 0.54583 0.975
vt 0.54583 0.775
vt 0.54583 0.775
vt 0.54583 0.975
vt 0.57917 0.775
vt 0.54583 0.975
vt 0.57917 0.975
vt 0.57917 0.775
vt 0.57917 0.775
vt 0.57917 0.975
vt 0.6125 0.775
vt 0.57917 0.975
vt 0.6125 0.975
vt 0.6125 0.775
vt 0.1875 0.275
vt 0.1875 0.475
vt 0.20417 0.475
vt 0.20417 0.275
vt 0.1875 0.275
vt 0.20417 0.475
vt 0.20417 0.275
vt 0.20417 0.475
vt 0.22083 0.475
vt 0.22083 0.275
vt 0.20417 0.275
vt 0.22083 0.475
vt 0.22083 0.275
vt 0.22083 0.475
vt 0.2375 0.475
vt 0.2375 0.275
vt 0.22083 0.275
vt 0.2375 0.475
vt 0.1375 0.275
vt 0.1375 0.475
vt 0.15417 0.475
vt 0.15417 0.275
vt 0.1375 0.275
vt 0.15417 0.475
vt 0.15417 0.275
vt 0.15417 0.475
vt 0.17083 0.475
vt 0.17083 0.275
vt 0.15417 0.275
vt 0.17083 0.475
vt 0.17083 0.275
vt 0.17083 0.475
vt 0.1875 0.475
vt 0.1875 0.275
vt 0.17083 0.275
vt 0.1875 0.475
vt 0.1875 0.275
vt 0.1875 0.475
vt 0.20417 0.275
vt 0.1875 0.475
vt 0.20417 0.475
vt 0.20417 0.275
vt 0.20417 0.275
vt 0.20417 0.475
vt 0.22083 0.275
vt 0.20417 0.475
vt 0.22083 0.475
vt 0.22083 0.275
vt 0.22083 0.275
vt 0.22083 0.475
vt 0.2375 0.275
vt 0.22083 0.475
vt 0.2375 0.475
vt 0.2375 0.275
vt 0.1375 0.275
vt 0.1375 0.475
vt 0.15417 0.275
vt 0.1375 0.475
vt 0.15417 0.475
vt 0.15417 0.275
vt 0.15417 0.275
vt 0.15417 0.475
vt 0.17083 0.275
vt 0.15417 0.475
vt 0.17083 0.475
vt 0.17083 0.275
vt 0.17083 0.275
vt 0.17083 0.475
vt 0.1875 0.275
vt 0.17083 0.475
vt 0.1875 0.475
vt 0.1875 0.275
vt 0.3125 0.275
vt 0.3125 0.475
vt 0.32917 0.475
vt 0.32917 0.275
vt 0.3125 0.275
vt 0.32917 0.475
vt 0.32917 0.275
vt 0.32917 0.475
vt 0.34583 0.475
vt 0.34583 0.275
vt 0.32917 0.275
vt 0.34583 0.475
vt 0.34583 0.275
vt 0.34583 0.475
vt 0.3625 0.475
vt 0.3625 0.275
vt 0.34583 0.275
vt 0.3625 0.475
vt 0.2625 0.275
vt 0.2625 0.475
vt 0.27917 0.475
vt 0.27917 0.275
vt 0.2625 0.275
vt 0.27917 0.475
vt 0.27917 0.275
vt 0.27917 0.475
vt 0.29583 0.475
vt 0.29583 0.275
vt 0.27917 0.275
vt 0.29583 0.475
vt 0.29583 0.275
vt 0.29583 0.475
vt 0.3125 0.475
vt 0.3125 0.275
vt 0.29583 0.275
vt 0.3125 0.475
vt 0.3125 0.275
vt 0.3125 0.475
vt 0.32917 0.275
vt 0.3125 0.475
vt 0.32917 0.475
vt 0.32917 0.275
vt 0.32917 0.275
vt 0.32917 0.475
vt 0.34583 0.275
vt 0.32917 0.475
vt 0.34583 0.475
vt 0.34583 0.275
vt 0.34583 0.275
vt 0.34583 0.475
vt 0.3625 0.275
vt 0.34583 0.475
vt 0.3625 0.475
vt 0.3625 0.275
vt 0.2625 0.275
vt 0.2625 0.475
vt 0.27917 0.275
vt 0.2625 0.475
vt 0.27917 0.475
vt 0.27917 0.275
vt 0.27917 0.275
vt 0.27917 0.475
vt 0.29583 0.275
vt 0.27917 0.475
vt 0.29583 0.475
vt 0.29583 0.275
vt 0.29583 0.275
vt 0.29583 0.475
vt 0.3125 0.275
vt 0.29583 0.475
vt 0.3125 0.475
vt 0.3125 0.275
vt 0.5625 0.775
vt 0.5625 0.975
vt 0.57917 0.975
vt 0.57917 0.775
vt 0.5625 0.775
vt 0.57917 0.975
vt 0.57917 0.775
vt 0.57917 0.975
vt 0.59583 0.975
vt 0.59583 0.775
vt 0.57917 0.775
vt 0.59583 0.975
vt 0.59583 0.775
vt 0.59583 0.975
vt 0.6125 0.975
vt 0.6125 0.775
vt 0.59583 0.775
vt 0.6125 0.975
vt 0.5125 0.775
vt 0.5125 0.975
vt 0.52917 0.975
vt 0.52917 0.775
vt 0.5125 0.775
vt 0.52917 0.975
vt 0.52917 0.775
vt 0.52917 0.975
vt 0.54583 0.975
vt 0.54583 0.775
vt 0.52917 0.775
vt 0.54583 0.975
vt 0.54583 0.775
vt 0.54583 0.975
vt 0.5625 0.975
vt 0.5625 0.775
vt 0.54583 0.775
vt 0.5625 0.975
vt 0.5625 0.775
vt 0.5625 0.975
vt 0.57917 0.775
vt 0.5625 0.975
vt 0.57917 0.975
vt 0.57917 0.775
vt 0.57917 0.775
vt 0.57917 0.975
vt 0.59583 0.775
vt 0.57917 0.975
vt 0.59583 0.975
vt 0.59583 0.775
vt 0.59583 0.775
vt 0.59583 0.975
vt 0.6125 0.775
vt 0.59583 0.975
vt 0.6125 0.975
vt 0.6125 0.775
vt 0.5125 0.775
vt 0.5125 0.975
vt 0.52917 0.775
vt 0.5125 0.975
vt 0.52917 0.975
vt 0.52917 0.775
vt 0.52917 0.775
vt 0.52917 0.975
vt 0.54583 0.775
vt 0.52917 0.975
vt 0.54583 0.975
vt 0.54583 0.775
vt 0.54583 0.775
vt 0.54583 0.975
vt 0.5625 0.775
vt 0.54583 0.975
vt 0.5625 0.975
vt 0.5625 0.775
vt 0.87625 0.025
vt 0.87625 0.225
vt 0.87625 0.225
vt 0.87625 0.025
vt 0.87625 0.025
vt 0.87625 0.225
vt 0.87625 0.025
vt 0.87625 0.225
vt 0.87625 0.225
vt 0.87625 0.025
vt 0.87625 0.025
vt 0.87625 0.225
vt 0.87625 0.025
vt 0.87625 0.225
vt 0.87625 0.225
vt 0.87625 0.025
vt 0.87625 0.025
vt 0.87625 0.225
vt 0.87625 0.025
vt 0.87625 0.225
vt 0.87625 0.225
vt 0.87625 0.025
vt 0.87625 0.025
vt 0.87625 0.225
vt 0.87625 0.025
vt 0.87625 0.225
vt 0.87625 0.225
vt 0.87625 0.025
vt 0.87625 0.025
vt 0.87625 0.225
vt 0.87625 0.025
vt 0.87625 0.225
vt 0.87625 0.225
vt 0.87625 0.025
vt 0.87625 0.025
vt 0.87625 0.225
vt 0.87625 0.025
vt 0.87625 0.225
vt 0.87625 0.025
vt 0.87625 0.225
vt 0.87625 0.225
vt 0.87625 0.025
vt 0.87625 0.025
vt 0.87625 0.225
vt 0.87625 0.025
vt 0.87625 0.225
vt 0.87625 0.225
vt 0.87625 0.025
vt 0.87625 0.025
vt 0.87625 0.225
vt 0.87625 0.025
vt 0.87625 0.225
vt 0.87625 0.225
vt 0.87625 0.025
vt 0.87625 0.025
vt 0.87625 0.225
vt 0.87625 0.025
vt 0.87625 0.225
vt 0.87625 0.225
vt 0.87625 0.025
vt 0.87625 0.025
vt 0.87625 0.225
vt 0.87625 0.025
vt 0.87625 0.225
vt 0.87625 0.225
vt 0.87625 0.025
vt 0.87625 0.025
vt 0.87625 0.225
vt 0.87625 0.025
vt 0.87625 0.225
vt 0.87625 0.225
vt 0.87625 0.025
vt 0.5125 0.775
vt 0.5125 0.975
vt 0.54583 0.975
vt 0.54583 0.775
vt 0.5125 0.775
vt 0.54583 0.975
vt 0.54583 0.775
vt 0.54583 0.975
vt 0.57917 0.975
vt 0.57917 0.775
vt 0.54583 0.775
vt 0.57917 0.975
vt 0.57917 0.775
vt 0.57917 0.975
vt 0.6125 0.975
vt 0.6125 0.775
vt 0.57917 0.775
vt 0.6125 0.975
vt 0.5125 0.775
vt 0.5125 0.975
vt 0.54583 0.975
vt 0.54583 0.775
vt 0.5125 0.775
vt 0.54583 0.975
vt 0.54583 0.775
vt 0.54583 0.975
vt 0.57917 0.975
vt 0.57917 0.775
vt 0.54583 0.775
vt 0.57917 0.975
vt 0.57917 0.775
vt 0.57917 0.975
vt 0.6125 0.975
vt 0.6125 0.775
vt 0.57917 0.775
vt 0.6125 0.975
vt 0.5125 0.775
vt 0.5125 0.975
vt 0.54583 0.775
vt 0.5125 0.975
vt 0.54583 0.975
vt 0.54583 0.775
vt 0.54583 0.775
vt 0.54583 0.975
vt 0.57917 0.775
vt 0.54583 0.975
vt 0.57917 0.975
vt 0.57917 0.775
vt 0.57917 0.775
vt 0.57917 0.975
vt 0.6125 0.775
vt 0.57917 0.975
vt 0.6125 0.975
vt 0.6125 0.775
vt 0.5125 0.775
vt 0.5125 0.975
vt 0.54583 0.775
vt 0.5125 0.975
vt 0.54583 0.975
vt 0.54583 0.775
vt 0.54583 0.775
vt 0.54583 0.975
vt 0.57917 0.775
vt 0.54583 0.975
vt 0.57917 0.975
vt 0.57917 0.775
vt 0.57917 0.775
vt 0.57917 0.975
vt 0.6125 0.775
vt 0.57917 0.975
vt 0.6125 0.975
vt 0.6125 0.775
vt 0.87625 0.025
vt 0.87625 0.225
vt 0.87625 0.225
vt 0.87625 0.025
vt 0.87625 0.025
vt 0.87625 0.225
vt 0.87625 0.025
vt 0.87625 0.225
vt 0.87625 0.225
vt 0.87625 0.025
vt 0.87625 0.025
vt 0.87625 0.225
vt 0.87625 0.025
vt 0.87625 0.225
vt 0.87625 0.225
vt 0.87625 0.025
vt 0.87625 0.025
vt 0.87625 0.225
vt 0.87625 0.025
vt 0.87625 0.225
vt 0.87625 0.225
vt 0.87625 0.025
vt 0.87625 0.025
vt 0.87625 0.225
vt 0.87625 0.025
vt 0.87625 0.225
vt 0.87625 0.225
vt 0.87625 0.025
vt 0.87625 0.025
vt 0.87625 0.225
vt 0.87625 0.025
vt 0.87625 0.225
vt 0.87625 0.225
vt 0.87625 0.025
vt 0.87625 0.025
vt 0.87625 0.225
vt 0.87625 0.025
vt 0.87625 0.225
vt 0.87625 0.025
vt 0.87625 0.225
vt 0.87625 0.225
vt 0.87625 0.025
vt 0.87625 0.025
vt 0.87625 0.225
vt 0.87625 0.025
vt 0.87625 0.225
vt 0.87625 0.225
vt 0.87625 0.025
vt 0.87625 0.025
vt 0.87625 0.225
vt 0.87625 0.025
vt 0.87625 0.225
vt 0.87625 0.225
vt 0.87625 0.025
vt 0.87625 0.025
vt 0.87625 0.225
vt 0.87625 0.025
vt 0.87625 0.225
vt 0.87625 0.225
vt 0.87625 0.025
vt 0.87625 0.025
vt 0.87625 0.225
vt 0.87625 0.025
vt 0.87625 0.225
vt 0.87625 0.225
vt 0.87625 0.025
vt 0.87625 0.025
vt 0.87625 0.225
vt 0.87625 0.025
vt 0.87625 0.225
vt 0.87625 0.225
vt 0.87625 0.025
vt 0.5125 0.775
vt 0.5125 0.975
vt 0.54583 0.975
vt 0.54583 0.775
vt 0.5125 0.775
vt 0.54583 0.975
vt 0.54583 0.775
vt 0.54583 0.975
vt 0.57917 0.975
vt 0.57917 0.775
vt 0.54583 0.775
vt 0.57917 0.975
vt 0.57917 0.775
vt 0.57917 0.975
vt 0.6125 0.975
vt 0.6125 0.775
vt 0.57917 0.775
vt 0.6125 0.975
vt 0.5125 0.775
vt 0.5125 0.975
vt 0.54583 0.975
vt 0.54583 0.775
vt 0.5125 0.775
vt 0.54583 0.975
vt 0.54583 0.775
vt 0.54583 0.975
vt 0.57917 0.975
vt 0.57917 0.775
vt 0.54583 0.775
vt 0.57917 0.975
vt 0.57917 0.775
vt 0.57917 0.975
vt 0.6125 0.975
vt 0.6125 0.775
vt 0.57917 0.775
vt 0.6125 0.975
vt 0.5125 0.775
vt 0.5125 0.975
vt 0.54583 0.775
vt 0.5125 0.975
vt 0.54583 0.975
vt 0.54583 0.775
vt 0.54583 0.775
vt 0.54583 0.975
vt 0.57917 0.775
vt 0.54583 0.975
vt 0.57917 0.975
vt 0.57917 0.775
vt 0.57917 0.775
vt 0.57917 0.975
vt 0.6125 0.775
vt 0.57917 0.975
vt 0.6125 0.975
vt 0.6125 0.775
vt 0.5125 0.775
vt 0.5125 0.975
vt 0.54583 0.775
vt 0.5125 0.975
vt 0.54583 0.975
vt 0.54583 0.775
vt 0.54583 0.775
vt 0.54583 0.975
vt 0.57917 0.775
vt 0.54583 0.975
vt 0.57917 0.975
vt 0.57917 0.775
vt 0.57917 0.775
vt 0.57917 0.975
vt 0.6125 0.775
vt 0.57917 0.975
vt 0.6125 0.975
vt 0.6125 0.775
vt 0.1875 0.275
vt 0.1875 0.475
vt 0.20417 0.475
vt 0.20417 0.275
vt 0.1875 0.275
vt 0.20417 0.475
vt 0.20417 0.275
vt 0.20417 0.475
vt 0.22083 0.475
vt 0.22083 0.275
vt 0.20417 0.275
vt 0.22083 0.475
vt 0.22083 0.275
vt 0.22083 0.475
vt 0.2375 0.475
vt 0.2375 0.275
vt 0.22083 0.275
vt 0.2375 0.475
vt 0.1375 0.275
vt 0.1375 0.475
vt 0.15417 0.475
vt 0.15417 0.275
vt 0.1375 0.275
vt 0.15417 0.475
vt 0.15417 0.275
vt 0.15417 0.475
vt 0.17083 0.475
vt 0.17083 0.275
vt 0.15417 0.275
vt 0.17083 0.475
vt 0.17083 0.275
vt 0.17083 0.475
vt 0.1875 0.475
vt 0.1875 0.275
vt 0.17083 0.275
vt 0.1875 0.475
vt 0.1875 0.275
vt 0.1875 0.475
vt 0.20417 0.275
vt 0.1875 0.475
vt 0.20417 0.475
vt 0.20417 0.275
vt 0.20417 0.275
vt 0.20417 0.475
vt 0.22083 0.275
vt 0.20417 0.475
vt 0.22083 0.475
vt 0.22083 0.275
vt 0.22083 0.275
vt 0.22083 0.475
vt 0.2375 0.275
vt 0.22083 0.475
vt 0.2375 0.475
vt 0.2375 0.275
vt 0.1375 0.275
vt 0.1375 0.475
vt 0.15417 0.275
vt 0.1375 0.475
vt 0.15417 0.475
vt 0.15417 0.275
vt 0.15417 0.275
vt 0.15417 0.475
vt 0.17083 0.275
vt 0.15417 0.475
vt 0.17083 0.475
vt 0.17083 0.275
vt 0.17083 0.275
vt 0.17083 0.475
vt 0.1875 0.275
vt 0.17083 0.475
vt 0.1875 0.475
vt 0.1875 0.275
vt 0.3125 0.275
vt 0.3125 0.475
vt 0.32917 0.475
vt 0.32917 0.275
vt 0.3125 0.275
vt 0.32917 0.475
vt 0.32917 0.275
vt 0.32917 0.475
vt 0.34583 0.475
vt 0.34583 0.275
vt 0.32917 0.275
vt 0.34583 0.475
vt 0.34583 0.275
vt 0.34583 0.475
vt 0.3625 0.475
vt 0.3625 0.275
vt 0.34583 0.275
vt 0.3625 0.475
vt 0.2625 0.275
vt 0.2625 0.475
vt 0.27917 0.475
vt 0.27917 0.275
vt 0.2625 0.275
vt 0.27917 0.475
vt 0.27917 0.275
vt 0.27917 0.475
vt 0.29583 0.475
vt 0.29583 0.275
vt 0.27917 0.275
vt 0.29583 0.475
vt 0.29583 0.275
vt 0.29583 0.475
vt 0.3125 0.475
vt 0.3125 0.275
vt 0.29583 0.275
vt 0.3125 0.475
vt 0.3125 0.275
vt 0.3125 0.475
vt 0.32917 0.275
vt 0.3125 0.475
vt 0.32917 0.475
vt 0.32917 0.275
vt 0.32917 0.275
vt 0.32917 0.475
vt 0.34583 0.275
vt 0.32917 0.475
vt 0.34583 0.475
vt 0.34583 0.275
vt 0.34583 0.275
vt 0.34583 0.475
vt 0.3625 0.275
vt 0.34583 0.475
vt 0.3625 0.475
vt 0.3625 0.275
vt 0.2625 0.275
vt 0.2625 0.475
vt 0.27917 0.275
vt 0.2625 0.475
vt 0.27917 0.475
vt 0.27917 0.275
vt 0.27917 0.275
vt 0.27917 0.475
vt 0.29583 0.275
vt 0.27917 0.475
vt 0.29583 0.475
vt 0.29583 0.275
vt 0.29583 0.275
vt 0.29583 0.475
vt 0.3125 0.275
vt 0.29583 0.475
vt 0.3125 0.475
vt 0.3125 0.275
vt 0.5625 0.775
vt 0.5625 0.975
vt 0.57917 0.975
vt 0.57917 0.775
vt 0.5625 0.775
vt 0.57917 0.975
vt 0.57917 0.775
vt 0.57917 0.975
vt 0.59583 0.975
vt 0.59583 0.775
vt 0.57917 0.775
vt 0.59583 0.975
vt 0.59583 0.775
vt 0.59583 0.975
vt 0.6125 0.975
vt 0.6125 0.775
vt 0.59583 0.775
vt 0.6125 0.975
vt 0.5125 0.775
vt 0.5125 0.975
vt 0.52917 0.975
vt 0.52917 0.775
vt 0.5125 0.775
vt 0.52917 0.975
vt 0.52917 0.775
vt 0.52917 0.975
vt 0.54583 0.975
vt 0.54583 0.775
vt 0.52917 0.775
vt 0.54583 0.975
vt 0.54583 0.775
vt 0.54583 0.975
vt 0.5625 0.975
vt 0.5625 0.775
vt 0.54583 0.775
vt 0.5625 0.975
vt 0.5625 0.775
vt 0.5625 0.975
vt 0.57917 0.775
vt 0.5625 0.975
vt 0.57917 0.975
vt 0.57917 0.775
vt 0.57917 0.775
vt 0.57917 0.975
vt 0.59583 0.775
vt 0.57917 0.975
vt 0.59583 0.975
vt 0.59583 0.775
vt 0.59583 0.775
vt 0.59583 0.975
vt 0.6125 0.775
vt 0.59583 0.975
vt 0.6125 0.975
vt 0.6125 0.775
vt 0.5125 0.775
vt 0.5125 0.975
vt 0.52917 0.775
vt 0.5125 0.975
vt 0.52917 0.975
vt 0.52917 0.775
vt 0.52917 0.775
vt 0.52917 0.975
vt 0.54583 0.775
vt 0.52917 0.975
vt 0.54583 0.975
vt 0.54583 0.775
vt 0.54583 0.775
vt 0.54583 0.975
vt 0.5625 0.775
vt 0.54583 0.975
vt 0.5625 0.975
vt 0.5625 0.775
vt 0.87625 0.025
vt 0.87625 0.225
vt 0.87625 0.225
vt 0.87625 0.025
vt 0.87625 0.025
vt 0.87625 0.225
vt 0.87625 0.025
vt 0.87625 0.225
vt 0.87625 0.225
vt 0.87625 0.025
vt 0.87625 0.025
vt 0.87625 0.225
vt 0.87625 0.025
vt 0.87625 0.225
vt 0.87625 0.225
vt 0.87625 0.025
vt 0.87625 0.025
vt 0.87625 0.225
vt 0.87625 0.025
vt 0.87625 0.225
vt 0.87625 0.225
vt 0.87625 0.025
vt 0.87625 0.025
vt 0.87625 0.225
vt 0.87625 0.025
vt 0.87625 0.225
vt 0.87625 0.225
vt 0.87625 0.025
vt 0.87625 0.025
vt 0.87625 0.225
vt 0.87625 0.025
vt 0.87625 0.225
vt 0.87625 0.225
vt 0.87625 0.025
vt 0.87625 0.025
vt 0.87625 0.225
vt 0.87625 0.025
vt 0.87625 0.225
vt 0.87625 0.025
vt 0.87625 0.225
vt 0.87625 0.225
vt 0.87625 0.025
vt 0.87625 0.025
vt 0.87625 0.225
vt 0.87625 0.025
vt 0.87625 0.225
vt 0.87625 0.225
vt 0.87625 0.025
vt 0.87625 0.025
vt 0.87625 0.225
vt 0.87625 0.025
vt 0.87625 0.225
vt 0.87625 0.225
vt 0.87625 0.025
vt 0.87625 0.025
vt 0.87625 0.225
vt 0.87625 0.025
vt 0.87625 0.225
vt 0.87625 0.225
vt 0.87625 0.025
vt 0.87625 0.025
vt 0.87625 0.225
vt 0.87625 0.025
vt 0.87625 0.225
vt 0.87625 0.225
vt 0.87625 0.025
vt 0.87625 0.025
vt 0.87625 0.225
vt 0.87625 0.025
vt 0.87625 0.225
vt 0.87625 0.225
vt 0.87625 0.025
vt 0.5125 0.775
vt 0.5125 0.975
vt 0.54583 0.975
vt 0.54583 0.775
vt 0.5125 0.775
vt 0.54583 0.975
vt 0.54583 0.775
vt 0.54583 0.975
vt 0.57917 0.975
vt 0.57917 0.775
vt 0.54583 0.775
vt 0.57917 0.975
vt 0.57917 0.775
vt 0.57917 0.975
vt 0.6125 0.975
vt 0.6125 0.775
vt 0.57917 0.775
vt 0.6125 0.975
vt 0.5125 0.775
vt 0.5125 0.975
vt 0.54583 0.975
vt 0.54583 0.775
vt 0.5125 0.775
vt 0.54583 0.975
vt 0.54583 0.775
vt 0.54583 0.975
vt 0.57917 0.975
vt 0.57917 0.775
vt 0.54583 0.775
vt 0.57917 0.975
vt 0.57917 0.775
vt 0.57917 0.975
vt 0.6125 0.975
vt 0.6125 0.775
vt 0.57917 0.775
vt 0.6125 0.975
vt 0.5125 0.775
vt 0.5125 0.975
vt 0.54583 0.775
vt 0.5125 0.975
vt 0.54583 0.975
vt 0.54583 0.775
vt 0.54583 0.775
vt 0.54583 0.975
vt 0.57917 0.775
vt 0.54583 0.975
vt 0.57917 0.975
vt 0.57917 0.775
vt 0.57917 0.775
vt 0.57917 0.975
vt 0.6125 0.775
vt 0.57917 0.975
vt 0.6125 0.975
vt 0.6125 0.775
vt 0.5125 0.775
vt 0.5125 0.975
vt 0.54583 0.775
vt 0.5125 0.975
vt 0.54583 0.975
vt 0.54583 0.775
vt 0.54583 0.775
vt 0.54583 0.975
vt 0.57917 0.775
vt 0.54583 0.975
vt 0.57917 0.975
vt 0.57917 0.775
vt 0.57917 0.775
vt 0.57917 0.975
vt 0.6125 0.775
vt 0.57917 0.975
vt 0.6125 0.975
vt 0.6125 0.775
vt 0.87625 0.025
vt 0.87625 0.225
vt 0.87625 0.225
vt 0.87625 0.025
vt 0.87625 0.025
vt 0.87625 0.225
vt 0.87625 0.025
vt 0.87625 0.225
vt 0.87625 0.225
vt 0.87625 0.025
vt 0.87625 0.025
vt 0.87625 0.225
vt 0.87625 0.025
vt 0.87625 0.225
vt 0.87625 0.225
vt 0.87625 0.025
vt 0.87625 0.025
vt 0.87625 0.225
vt 0.87625 0.025
vt 0.87625 0.225
vt 0.87625 0.225
vt 0.87625 0.025
vt 0.87625 0.025
vt 0.87625 0.225
vt 0.87625 0.025
vt 0.87625 0.225
vt 0.87625 0.225
vt 0.87625 0.025
vt 0.87625 0.025
vt 0.87625 0.225
vt 0.87625 0.025
vt 0.87625 0.225
vt 0.87625 0.225
vt 0.87625 0.025
vt 0.87625 0.025
vt 0.87625 0.225
vt 0.87625 0.025
vt 0.87625 0.225
vt 0.87625 0.025
vt 0.87625 0.225
vt 0.87625 0.225
vt 0.87625 0.025
vt 0.87625 0.025
vt 0.87625 0.225
vt 0.87625 0.025
vt 0.87625 0.225
vt 0.87625 0.225
vt 0.87625 0.025
vt 0.87625 0.025
vt 0.87625 0.225
vt 0.87625 0.025
vt 0.87625 0.225
vt 0.87625 0.225
vt 0.87625 0.025
vt 0.87625 0.025
vt 0.87625 0.225
vt 0.87625 0.025
vt 0.87625 0.225
vt 0.87625 0.225
vt 0.87625 0.025
vt 0.87625 0.025
vt 0.87625 0.225
vt 0.87625 0.025
vt 0.87625 0.225
vt 0.87625 0.225
vt 0.87625 0.025
vt 0.87625 0.025
vt 0.87625 0.225
vt 0.87625 0.025
vt 0.87625 0.225
vt 0.87625 0.225
vt 0.87625 0.025
vt 0.5125 0.775
vt 0.5125 0.975
vt 0.54583 0.975
vt 0.54583 0.775
vt 0.5125 0.775
vt 0.54583 0.975
vt 0.54583 0.775
vt 0.54583 0.975
vt 0.57917 0.975
vt 0.57917 0.775
vt 0.54583 0.775
vt 0.57917 0.975
vt 0.57917 0.775
vt 0.57917 0.975
vt 0.6125 0.975
vt 0.6125 0.775
vt 0.57917 0.775
vt 0.6125 0.975
vt 0.5125 0.775
vt 0.5125 0.975
vt 0.54583 0.975
vt 0.54583 0.775
vt 0.5125 0.775
vt 0.54583 0.975
vt 0.54583 0.775
vt 0.54583 0.975
vt 0.57917 0.975
vt 0.57917 0.775
vt 0.54583 0.775
vt 0.57917 0.975
vt 0.57917 0.775
vt 0.57917 0.975
vt 0.6125 0.975
vt 0.6125 0.775
vt 0.57917 0.775
vt 0.6125 0.975
vt 0.5125 0.775
vt 0.5125 0.975
vt 0.54583 0.775
vt 0.5125 0.975
vt 0.54583 0.975
vt 0.54583 0.775
vt 0.54583 0.775
vt 0.54583 0.975
vt 0.57917 0.775
vt 0.54583 0.975
vt 0.57917 0.975
vt 0.57917 0.775
vt 0.57917 0.775
vt 0.57917 0.975
vt 0.6125 0.775
vt 0.57917 0.975
vt 0.6125 0.975
vt 0.6125 0.775
vt 0.5125 0.775
vt 0.5125 0.975
vt 0.54583 0.775
vt 0.5125 0.975
vt 0.54583 0.975
vt 0.54583 0.775
vt 0.54583 0.775
vt 0.54583 0.975
vt 0.57917 0.775
vt 0.54583 0.975
vt 0.57917 0.975
vt 0.57917 0.775
vt 0.57917 0.775
vt 0.57917 0.975
vt 0.6125 0.775
vt 0.57917 0.975
vt 0.6125 0.975
vt 0.6125 0.775
vt 0.6875 0.525
vt 0.6875 0.725
vt 0.6875 0.725
vt 0.6875 0.525
vt 0.6875 0.525
vt 0.6875 0.725
vt 0.0625 0.525
vt 0.0625 0.725
vt 0.0625 0.725
vt 0.0625 0.525
vt 0.0625 0.525
vt 0.0625 0.725
vt 0.5625 0.775
vt 0.5625 0.975
vt 0.5625 0.975
vt 0.5625 0.775
vt 0.5625 0.775
vt 0.5625 0.975
vt 0.5125 0.775
vt 0.5125 0.955
vt 0.6125 0.775
vt 0.6125 0.775
vt 0.5125 0.955
vt 0.6125 0.975
vt 0.5125 0.955
vt 0.5125 0.975
vt 0.6125 0.975
vt 0.5125 0.775
vt 0.6125 0.775
vt 0.5125 0.955
vt 0.6125 0.775
vt 0.6125 0.975
vt 0.5125 0.955
vt 0.5125 0.955
vt 0.6125 0.975
vt 0.5125 0.975
vt 0.5125 0.955
vt 0.5125 0.775
vt 0.6125 0.775
vt 0.5125 0.955
vt 0.6125 0.775
vt 0.6125 0.975
vt 0.5125 0.975
vt 0.5125 0.955
vt 0.6125 0.975
vt 0.5125 0.955
vt 0.6125 0.775
vt 0.5125 0.775
vt 0.5125 0.955
vt 0.6125 0.975
vt 0.6125 0.775
vt 0.5125 0.975
vt 0.6125 0.975
vt 0.5125 0.955
vt 0.2625 0.275
vt 0.2625 0.455
vt 0.3625 0.275
vt 0.3625 0.275
vt 0.2625 0.455
vt 0.3625 0.475
vt 0.2625 0.455
vt 0.2625 0.475
vt 0.3625 0.475
vt 0.2625 0.275
vt 0.3625 0.275
vt 0.2625 0.455
vt 0.3625 0.275
vt 0.3625 0.475
vt 0.2625 0.455
vt 0.2625 0.455
vt 0.3625 0.475
vt 0.2625 0.475
vt 0.2625 0.455
vt 0.2625 0.275
vt 0.3625 0.275
vt 0.2625 0.455
vt 0.3625 0.275
vt 0.3625 0.475
vt 0.2625 0.475
vt 0.2625 0.455
vt 0.3625 0.475
vt 0.2625 0.455
vt 0.3625 0.275
vt 0.2625 0.275
vt 0.2625 0.455
vt 0.3625 0.475
vt 0.3625 0.275
vt 0.2625 0.475
vt 0.3625 0.475
vt 0.2625 0.455
vt 0.5125 0.775
vt 0.5125 0.955
vt 0.6125 0.775
vt 0.6125 0.775
vt 0.5125 0.955
vt 0.6125 0.975
vt 0.5125 0.955
vt 0.5125 0.975
vt 0.6125 0.975
vt 0.5125 0.955
vt 0.5125 0.775
vt 0.6125 0.775
vt 0.5125 0.955
vt 0.6125 0.775
vt 0.6125 0.975
vt 0.5125 0.975
vt 0.5125 0.955
vt 0.6125 0.975
vt 0.3875 0.775
vt 0.3875 0.935
vt 0.4875 0.775
vt 0.4875 0.775
vt 0.3875 0.935
vt 0.4875 0.935
vt 0.3875 0.935
vt 0.3875 0.975
vt 0.4875 0.935
vt 0.4875 0.935
vt 0.3875 0.975
vt 0.4875 0.975
vt 0.3875 0.775
vt 0.4875 0.775
vt 0.3875 0.935
vt 0.4875 0.775
vt 0.4875 0.935
vt 0.3875 0.935
vt 0.3875 0.935
vt 0.4875 0.935
vt 0.3875 0.975
vt 0.4875 0.935
vt 0.4875 0.975
vt 0.3875 0.975
vt 0.3875 0.775
vt 0.3875 0.935
vt 0.4875 0.775
vt 0.4875 0.775
vt 0.3875 0.935
vt 0.4875 0.935
vt 0.3875 0.935
vt 0.3875 0.975
vt 0.4875 0.935
vt 0.4875 0.935
vt 0.3875 0.975
vt 0.4875 0.975
vt 0.3875 0.775
vt 0.4875 0.775
vt 0.3875 0.935
vt 0.4875 0.775
vt 0.4875 0.935
vt 0.3875 0.935
vt 0.3875 0.935
vt 0.4875 0.935
vt 0.3875 0.975
vt 0.4875 0.935
vt 0.4875 0.975
vt 0.3875 0.975
vt 0.3875 0.525
vt 0.3875 0.685
vt 0.4875 0.525
vt 0.4875 0.525
vt 0.3875 0.685
vt 0.4875 0.685
vt 0.3875 0.685
vt 0.3875 0.725
vt 0.4875 0.685
vt 0.4875 0.685
vt 0.3875 0.725
vt 0.4875 0.725
vt 0.3875 0.525
vt 0.4875 0.525
vt 0.3875 0.685
vt 0.4875 0.525
vt 0.4875 0.685
vt 0.3875 0.685
vt 0.3875 0.685
vt 0.4875 0.685
vt 0.3875 0.725
vt 0.4875 0.685
vt 0.4875 0.725
vt 0.3875 0.725
vt 0.3875 0.525
vt 0.3875 0.685
vt 0.4875 0.525
vt 0.4875 0.525
vt 0.3875 0.685
vt 0.4875 0.725
vt 0.3875 0.685
vt 0.3875 0.725
vt 0.4875 0.725
vt 0.3875 0.525
vt 0.4875 0.525
vt 0.3875 0.685
vt 0.4875 0.525
vt 0.4875 0.725
vt 0.3875 0.685
vt 0.3875 0.685
vt 0.4875 0.725
vt 0.3875 0.725
vt 0.3875 0.935
vt 0.3875 0.775
vt 0.4875 0.775
vt 0.3875 0.935
vt 0.4875 0.775
vt 0.4875 0.935
vt 0.3875 0.975
vt 0.3875 0.935
vt 0.4875 0.935
vt 0.3875 0.975
vt 0.4875 0.935
vt 0.4875 0.975
vt 0.3875 0.935
vt 0.4875 0.775
vt 0.3875 0.775
vt 0.3875 0.935
vt 0.4875 0.935
vt 0.4875 0.775
vt 0.3875 0.975
vt 0.4875 0.935
vt 0.3875 0.935
vt 0.3875 0.975
vt 0.4875 0.975
vt 0.4875 0.935
vt 0.3875 0.935
vt 0.3875 0.775
vt 0.4875 0.775
vt 0.3875 0.935
vt 0.4875 0.775
vt 0.4875 0.935
vt 0.3875 0.975
vt 0.3875 0.935
vt 0.4875 0.935
vt 0.3875 0.975
vt 0.4875 0.935
vt 0.4875 0.975
vt 0.3875 0.935
vt 0.4875 0.775
vt 0.3875 0.775
vt 0.3875 0.935
vt 0.4875 0.935
vt 0.4875 0.775
vt 0.3875 0.975
vt 0.4875 0.935
vt 0.3875 0.935
vt 0.3875 0.975
vt 0.4875 0.975
vt 0.4875 0.935
vt 0.3875 0.685
vt 0.3875 0.525
vt 0.4875 0.525
vt 0.3875 0.685
vt 0.4875 0.525
vt 0.4875 0.685
vt 0.3875 0.725
vt 0.3875 0.685
vt 0.4875 0.685
vt 0.3875 0.725
vt 0.4875 0.685
vt 0.4875 0.725
vt 0.3875 0.685
vt 0.4875 0.525
vt 0.3875 0.525
vt 0.3875 0.685
vt 0.4875 0.685
vt 0.4875 0.525
vt 0.3875 0.725
vt 0.4875 0.685
vt 0.3875 0.685
vt 0.3875 0.725
vt 0.4875 0.725
vt 0.4875 0.685
vt 0.3875 0.685
vt 0.3875 0.525
vt 0.4875 0.525
vt 0.3875 0.685
vt 0.4875 0.525
vt 0.4875 0.725
vt 0.3875 0.725
vt 0.3875 0.685
vt 0.4875 0.725
vt 0.3875 0.685
vt 0.4875 0.525
vt 0.3875 0.525
vt 0.3875 0.685
vt 0.4875 0.725
vt 0.4875 0.525
vt 0.3875 0.725
vt 0.4875 0.725
vt 0.3875 0.685

f 2/1 1/2 1/3
f 2/4 2/5 1/6
f 3/7 2/8 2/9
f 3/10 3/11 2/12
f 4/13 3/14 3/15
f 4/16 4/17 3/18
f 5/19 4/20 4/21
f 5/22 5/23 4/24
f 18/25 6/26 7/27
f 19/28 18/29 7/30
f 19/31 7/32 8/33
f 20/34 19/35 8/36
f 20/37 8/38 9/39
f 21/40 20/41 9/42
f 21/43 9/44 10/45
f 22/46 21/47 10/48
f 22/49 10/50 11/51
f 23/52 22/53 11/54
f 23/55 11/56 12/57
f 24/58 23/59 12/60
f 24/61 12/62 25/63
f 12/64 13/65 25/66
f 25/67 13/68 26/69
f 13/70 14/71 26/72
f 26/73 14/74 27/75
f 14/76 15/77 27/78
f 27/79 15/80 28/81
f 15/82 16/83 28/84
f 28/85 16/86 29/87
f 16/88 17/89 29/90
f 29/91 17/92 18/93
f 17/94 6/95 18/96
f 30/97 18/98 19/99
f 31/100 30/101 19/102
f 31/103 19/104 20/105
f 32/106 31/107 20/108
f 32/109 20/110 21/111
f 33/112 32/113 21/114
f 33/115 21/116 22/117
f 34/118 33/119 22/120
f 34/121 22/122 23/123
f 35/124 34/125 23/126
f 35/127 23/128 24/129
f 36/130 35/131 24/132
f 36/133 24/134 37/135
f 24/136 25/137 37/138
f 37/139 25/140 38/141
f 25/142 26/143 38/144
f 38/145 26/146 39/147
f 26/148 27/149 39/150
f 39/151 27/152 40/153
f 27/154 28/155 40/156
f 40/157 28/158 41/159
f 28/160 29/161 41/162
f 41/163 29/164 30/165
f 29/166 18/167 30/168
f 42/169 30/170 31/171
f 43/172 42/173 31/174
f 43/175 31/176 32/177
f 44/178 43/179 32/180
f 44/181 32/182 33/183
f 45/184 44/185 33/186
f 45/187 33/188 34/189
f 46/190 45/191 34/192
f 46/193 34/194 35/195
f 47/196 46/197 35/198
f 47/199 35/200 36/201
f 48/202 47/203 36/204
f 48/205 36/206 49/207
f 36/208 37/209 49/210
f 49/211 37/212 50/213
f 37/214 38/215 50/216
f 50/217 38/218 51/219
f 38/220 39/221 51/222
f 51/223 39/224 52/225
f 39/226 40/227 52/228
f 52/229 40/230 53/231
f 40/232 41/233 53/234
f 53/235 41/236 42/237
f 41/238 30/239 42/240
f 54/241 42/242 43/243
f 55/244 54/245 43/246
f 55/247 43/248 44/249
f 56/250 55/251 44/252
f 56/253 44/254 45/255
f 57/256 56/257 45/258
f 57/259 45/260 46/261
f 58/262 57/263 46/264
f 58/265 46/266 47/267
f 59/268 58/269 47/270
f 59/271 47/272 48/273
f 60/274 59/275 48/276
f 60/277 48/278 61/279
f 48/280 49/281 61/282
f 61/283 49/284 62/285
f 49/286 50/287 62/288
f 62/289 50/290 63/291
f 50/292 51/293 63/294
f 63/295 51/296 64/297
f 51/298 52/299 64/300
f 64/301 52/302 65/303
f 52/304 53/305 65/306
f 65/307 53/308 54/309
f 53/310 42/311 54/312
f 66/313 54/314 55/315
f 67/316 66/317 55/318
f 67/319 55/320 56/321
f 68/322 67/323 56/324
f 68/325 56/326 57/327
f 69/328 68/329 57/330
f 69/331 57/332 58/333
f 70/334 69/335 58/336
f 70/337 58/338 59/339
f 71/340 70/341 59/342
f 71/343 59/344 60/345
f 72/346 71/347 60/348
f 72/349 60/350 73/351
f 60/352 61/353 73/354
f 73/355 61/356 74/357
f 61/358 62/359 74/360
f 74/361 62/362 75/363
f 62/364 63/365 75/366
f 75/367 63/368 76/369
f 63/370 64/371 76/372
f 76/373 64/374 77/375
f 64/376 65/377 77/378
f 77/379 65/380 66/381
f 65/382 54/383 66/384
f 78/385 66/386 67/387
f 79/388 78/389 67/390
f 79/391 67/392 68/393
f 80/394 79/395 68/396
f 80/397 68/398 69/399
f 81/400 80/401 69/402
f 81/403 69/404 70/405
f 82/406 81/407 70/408
f 82/409 70/410 71/411
f 83/412 82/413 71/414
f 83/415 71/416 72/417
f 84/418 83/419 72/420
f 84/421 72/422 85/423
f 72/424 73/425 85/426
f 85/427 73/428 86/429
f 73/430 74/431 86/432
f 86/433 74/434 87/435
f 74/436 75/437 87/438
f 87/439 75/440 88/441
f 75/442 76/443 88/444
f 88/445 76/446 89/447
f 76/448 77/449 89/450
f 89/451 77/452 78/453
f 77/454 66/455 78/456
f 90/457 78/458 79/459
f 91/460 90/461 79/462
f 91/463 79/464 80/465
f 92/466 91/467 80/468
f 92/469 80/470 81/471
f 93/472 92/473 81/474
f 93/475 81/476 82/477
f 94/478 93/479 82/480
f 94/481 82/482 83/483
f 95/484 94/485 83/486
f 95/487 83/488 84/489
f 96/490 95/491 84/492
f 96/493 84/494 97/495
f 84/496 85/497 97/498
f 97/499 85/500 98/501
f 85/502 86/503 98/504
f 98/505 86/506 99/507
f 86/508 87/509 99/510
f 99/511 87/512 100/513
f 87/514 88/515 100/516
f 100/517 88/518 101/519
f 88/520 89/521 101/522
f 101/523 89/524 90/525
f 89/526 78/527 90/528
f 114/529 102/530 103/531
f 115/532 114/533 103/534
f 115/535 103/536 104/537
f 116/538 115/539 104/540
f 116/541 104/542 105/543
f 117/544 116/545 105/546
f 117/547 105/548 106/549
f 118/550 117/551 106/552
f 118/553 106/554 107/555
f 119/556 118/557 107/558
f 119/559 107/560 108/561
f 120/562 119/563 108/564
f 120/565 108/566 121/567
f 108/568 109/569 121/570
f 121/571 109/572 122/573
f 109/574 110/575 122/576
f 122/577 110/578 123/579
f 110/580 111/581 123/582
f 123/583 111/584 124/585
f 111/586 112/587 124/588
f 124/589 112/590 125/591
f 112/592 113/593 125/594
f 125/595 113/596 114/597
f 113/598 102/599 114/600
f 126/601 114/602 115/603
f 127/604 126/605 115/606
f 127/607 115/608 116/609
f 128/610 127/611 116/612
f 128/613 116/614 117/615
f 129/616 128/617 117/618
f 129/619 117/620 118/621
f 130/622 129/623 118/624
f 130/625 118/626 119/627
f 131/628 130/629 119/630
f 131/631 119/632 120/633
f 132/634 131/635 120/636
f 132/637 120/638 133/639
f 120/640 121/641 133/642
f 133/643 121/644 134/645
f 121/646 122/647 134/648
f 134/649 122/650 135/651
f 122/652 123/653 135/654
f 135/655 123/656 136/657
f 123/658 124/659 136/660
f 136/661 124/662 137/663
f 124/664 125/665 137/666
f 137/667 125/668 126/669
f 125/670 114/671 126/672
f 138/673 126/674 127/675
f 139/676 138/677 127/678
f 139/679 127/680 128/681
f 140/682 139/683 128/684
f 140/685 128/686 129/687
f 141/688 140/689 129/690
f 141/691 129/692 130/693
f 142/694 141/695 130/696
f 142/697 130/698 131/699
f 143/700 142/701 131/702
f 143/703 131/704 132/705
f 144/706 143/707 132/708
f 144/709 132/710 145/711
f 132/712 133/713 145/714
f 145/715 133/716 146/717
f 133/718 134/719 146/720
f 146/721 134/722 147/723
f 134/724 135/725 147/726
f 147/727 135/728 148/729
f 135/730 136/731 148/732
f 148/733 136/734 149/735
f 136/736 137/737 149/738
f 149/739 137/740 138/741
f 137/742 126/743 138/744
f 150/745 138/746 139/747
f 151/748 150/749 139/750
f 151/751 139/752 140/753
f 152/754 151/755 140/756
f 152/757 140/758 141/759
f 153/760 152/761 141/762
f 153/763 141/764 142/765
f 154/766 153/767 142/768
f 154/769 142/770 143/771
f 155/772 154/773 143/774
f 155/775 143/776 144/777
f 156/778 155/779 144/780
f 156/781 144/782 157/783
f 144/784 145/785 157/786
f 157/787 145/788 158/789
f 145/790 146/791 158/792
f 158/793 146/794 159/795
f 146/796 147/797 159/798
f 159/799 147/800 160/801
f 147/802 148/803 160/804
f 160/805 148/806 161/807
f 148/808 149/809 161/810
f 161/811 149/812 150/813
f 149/814 138/815 150/816
f 162/817 150/818 151/819
f 163/820 162/821 151/822
f 163/823 151/824 152/825
f 164/826 163/827 152/828
f 164/829 152/830 153/831
f 165/832 164/833 153/834
f 165/835 153/836 154/837
f 166/838 165/839 154/840
f 166/841 154/842 155/843
f 167/844 166/845 155/846
f 167/847 155/848 156/849
f 168/850 167/851 156/852
f 168/853 156/854 169/855
f 156/856 157/857 169/858
f 169/859 157/860 170/861
f 157/862 158/863 170/864
f 170/865 158/866 171/867
f 158/868 159/869 171/870
f 171/871 159/872 172/873
f 159/874 160/875 172/876
f 172/877 160/878 173/879
f 160/880 161/881 173/882
f 173/883 161/884 162/885
f 161/886 150/887 162/888
f 174/889 162/890 163/891
f 175/892 174/893 163/894
f 175/895 163/896 164/897
f 176/898 175/899 164/900
f 176/901 164/902 165/903
f 177/904 176/905 165/906
f 177/907 165/908 166/909
f 178/910 177/911 166/912
f 178/913 166/914 167/915
f 179/916 178/917 167/918
f 179/919 167/920 168/921
f 180/922 179/923 168/924
f 180/925 168/926 181/927
f 168/928 169/929 181/930
f 181/931 169/932 182/933
f 169/934 170/935 182/936
f 182/937 170/938 183/939
f 170/940 171/941 183/942
f 183/943 171/944 184/945
f 171/946 172/947 184/948
f 184/949 172/950 185/951
f 172/952 173/953 185/954
f 185/955 173/956 174/957
f 173/958 162/959 174/960
f 186/961 174/962 175/963
f 187/964 186/965 175/966
f 187/967 175/968 176/969
f 188/970 187/971 176/972
f 188/973 176/974 177/975
f 189/976 188/977 177/978
f 189/979 177/980 178/981
f 190/982 189/983 178/984
f 190/985 178/986 179/987
f 191/988 190/989 179/990
f 191/991 179/992 180/993
f 192/994 191/995 180/996
f 192/997 180/998 193/999
f 180/1000 181/1001 193/1002
f 193/1003 181/1004 194/1005
f 181/1006 182/1007 194/1008
f 194/1009 182/1010 195/1011
f 182/1012 183/1013 195/1014
f 195/1015 183/1016 196/1017
f 183/1018 184/1019 196/1020
f 196/1021 184/1022 197/1023
f 184/1024 185/1025 197/1026
f 197/1027 185/1028 186/1029
f 185/1030 174/1031 186/1032
f 210/1033 198/1034 199/1035
f 211/1036 210/1037 199/1038
f 211/1039 199/1040 200/1041
f 212/1042 211/1043 200/1044
f 212/1045 200/1046 201/1047
f 213/1048 212/1049 201/1050
f 213/1051 201/1052 202/1053
f 214/1054 213/1055 202/1056
f 214/1057 202/1058 203/1059
f 215/1060 214/1061 203/1062
f 215/1063 203/1064 204/1065
f 216/1066 215/1067 204/1068
f 216/1069 204/1070 217/1071
f 204/1072 205/1073 217/1074
f 217/1075 205/1076 218/1077
f 205/1078 206/1079 218/1080
f 218/1081 206/1082 219/1083
f 206/1084 207/1085 219/1086
f 219/1087 207/1088 220/1089
f 207/1090 208/1091 220/1092
f 220/1093 208/1094 221/1095
f 208/1096 209/1097 221/1098
f 221/1099 209/1100 210/1101
f 209/1102 198/1103 210/1104
f 222/1105 210/1106 211/1107
f 223/1108 222/1109 211/1110
f 223/1111 211/1112 212/1113
f 224/1114 223/1115 212/1116
f 224/1117 212/1118 213/1119
f 225/1120 224/1121 213/1122
f 225/1123 213/1124 214/1125
f 226/1126 225/1127 214/1128
f 226/1129 214/1130 215/1131
f 227/1132 226/1133 215/1134
f 227/1135 215/1136 216/1137
f 228/1138 227/1139 216/1140
f 228/1141 216/1142 229/1143
f 216/1144 217/1145 229/1146
f 229/1147 217/1148 230/1149
f 217/1150 218/1151 230/1152
f 230/1153 218/1154 231/1155
f 218/1156 219/1157 231/1158
f 231/1159 219/1160 232/1161
f 219/1162 220/1163 232/1164
f 232/1165 220/1166 233/1167
f 220/1168 221/1169 233/1170
f 233/1171 221/1172 222/1173
f 221/1174 210/1175 222/1176
f 234/1177 222/1178 223/1179
f 235/1180 234/1181 223/1182
f 235/1183 223/1184 224/1185
f 236/1186 235/1187 224/1188
f 236/1189 224/1190 225/1191
f 237/1192 236/1193 225/1194
f 237/1195 225/1196 226/1197
f 238/1198 237/1199 226/1200
f 238/1201 226/1202 227/1203
f 239/1204 238/1205 227/1206
f 239/1207 227/1208 228/1209
f 240/1210 239/1211 228/1212
f 240/1213 228/1214 241/1215
f 228/1216 229/1217 241/1218
f 241/1219 229/1220 242/1221
f 229/1222 230/1223 242/1224
f 242/1225 230/1226 243/1227
f 230/1228 231/1229 243/1230
f 243/1231 231/1232 244/1233
f 231/1234 232/1235 244/1236
f 244/1237 232/1238 245/1239
f 232/1240 233/1241 245/1242
f 245/1243 233/1244 234/1245
f 233/1246 222/1247 234/1248
f 246/1249 234/1250 235/1251
f 247/1252 246/1253 235/1254
f 247/1255 235/1256 236/1257
f 248/1258 247/1259 236/1260
f 248/1261 236/1262 237/1263
f 249/1264 248/1265 237/1266
f 249/1267 237/1268 238/1269
f 250/1270 249/1271 238/1272
f 250/1273 238/1274 239/1275
f 251/1276 250/1277 239/1278
f 251/1279 239/1280 240/1281
f 252/1282 251/1283 240/1284
f 252/1285 240/1286 253/1287
f 240/1288 241/1289 253/1290
f 253/1291 241/1292 254/1293
f 241/1294 242/1295 254/1296
f 254/1297 242/1298 255/1299
f 242/1300 243/1301 255/1302
f 255/1303 243/1304 256/1305
f 243/1306 244/1307 256/1308
f 256/1309 244/1310 257/1311
f 244/1312 245/1313 257/1314
f 257/1315 245/1316 246/1317
f 245/1318 234/1319 246/1320
f 258/1321 246/1322 247/1323
f 259/1324 258/1325 247/1326
f 259/1327 247/1328 248/1329
f 260/1330 259/1331 248/1332
f 260/1333 248/1334 249/1335
f 261/1336 260/1337 249/1338
f 261/1339 249/1340 250/1341
f 262/1342 261/1343 250/1344
f 262/1345 250/1346 251/1347
f 263/1348 262/1349 251/1350
f 263/1351 251/1352 252/1353
f 264/1354 263/1355 252/1356
f 264/1357 252/1358 265/1359
f 252/1360 253/1361 265/1362
f 265/1363 253/1364 266/1365
f 253/1366 254/1367 266/1368
f 266/1369 254/1370 267/1371
f 254/1372 255/1373 267/1374
f 267/1375 255/1376 268/1377
f 255/1378 256/1379 268/1380
f 268/1381 256/1382 269/1383
f 256/1384 257/1385 269/1386
f 269/1387 257/1388 258/1389
f 257/1390 246/1391 258/1392
f 270/1393 258/1394 259/1395
f 271/1396 270/1397 259/1398
f 271/1399 259/1400 260/1401
f 272/1402 271/1403 260/1404
f 272/1405 260/1406 261/1407
f 273/1408 272/1409 261/1410
f 273/1411 261/1412 262/1413
f 274/1414 273/1415 262/1416
f 274/1417 262/1418 263/1419
f 275/1420 274/1421 263/1422
f 275/1423 263/1424 264/1425
f 276/1426 275/1427 264/1428
f 276/1429 264/1430 277/1431
f 264/1432 265/1433 277/1434
f 277/1435 265/1436 278/1437
f 265/1438 266/1439 278/1440
f 278/1441 266/1442 279/1443
f 266/1444 267/1445 279/1446
f 279/1447 267/1448 280/1449
f 267/1450 268/1451 280/1452
f 280/1453 268/1454 281/1455
f 268/1456 269/1457 281/1458
f 281/1459 269/1460 270/1461
f 269/1462 258/1463 270/1464
f 282/1465 270/1466 271/1467
f 283/1468 282/1469 271/1470
f 283/1471 271/1472 272/1473
f 284/1474 283/1475 272/1476
f 284/1477 272/1478 273/1479
f 285/1480 284/1481 273/1482
f 285/1483 273/1484 274/1485
f 286/1486 285/1487 274/1488
f 286/1489 274/1490 275/1491
f 287/1492 286/1493 275/1494
f 287/1495 275/1496 276/1497
f 288/1498 287/1499 276/1500
f 288/1501 276/1502 289/1503
f 276/1504 277/1505 289/1506
f 289/1507 277/1508 290/1509
f 277/1510 278/1511 290/1512
f 290/1513 278/1514 291/1515
f 278/1516 279/1517 291/1518
f 291/1519 279/1520 292/1521
f 279/1522 280/1523 292/1524
f 292/1525 280/1526 293/1527
f 280/1528 281/1529 293/1530
f 293/1531 281/1532 282/1533
f 281/1534 270/1535 282/1536
f 306/1537 294/1538 295/1539
f 307/1540 306/1541 295/1542
f 307/1543 295/1544 296/1545
f 308/1546 307/1547 296/1548
f 308/1549 296/1550 297/1551
f 309/1552 308/1553 297/1554
f 309/1555 297/1556 298/1557
f 310/1558 309/1559 298/1560
f 310/1561 298/1562 299/1563
f 311/1564 310/1565 299/1566
f 311/1567 299/1568 300/1569
f 312/1570 311/1571 300/1572
f 312/1573 300/1574 313/1575
f 300/1576 301/1577 313/1578
f 313/1579 301/1580 314/1581
f 301/1582 302/1583 314/1584
f 314/1585 302/1586 315/1587
f 302/1588 303/1589 315/1590
f 315/1591 303/1592 316/1593
f 303/1594 304/1595 316/1596
f 316/1597 304/1598 317/1599
f 304/1600 305/1601 317/1602
f 317/1603 305/1604 306/1605
f 305/1606 294/1607 306/1608
f 318/1609 306/1610 307/1611
f 319/1612 318/1613 307/1614
f 319/1615 307/1616 308/1617
f 320/1618 319/1619 308/1620
f 320/1621 308/1622 309/1623
f 321/1624 320/1625 309/1626
f 321/1627 309/1628 310/1629
f 322/1630 321/1631 310/1632
f 322/1633 310/1634 311/1635
f 323/1636 322/1637 311/1638
f 323/1639 311/1640 312/1641
f 324/1642 323/1643 312/1644
f 324/1645 312/1646 325/1647
f 312/1648 313/1649 325/1650
f 325/1651 313/1652 326/1653
f 313/1654 314/1655 326/1656
f 326/1657 314/1658 327/1659
f 314/1660 315/1661 327/1662
f 327/1663 315/1664 328/1665
f 315/1666 316/1667 328/1668
f 328/1669 316/1670 329/1671
f 316/1672 317/1673 329/1674
f 329/1675 317/1676 318/1677
f 317/1678 306/1679 318/1680
f 330/1681 318/1682 319/1683
f 331/1684 330/1685 319/1686
f 331/1687 319/1688 320/1689
f 332/1690 331/1691 320/1692
f 332/1693 320/1694 321/1695
f 333/1696 332/1697 321/1698
f 333/1699 321/1700 322/1701
f 334/1702 333/1703 322/1704
f 334/1705 322/1706 323/1707
f 335/1708 334/1709 323/1710
f 335/1711 323/1712 324/1713
f 336/1714 335/1715 324/1716
f 336/1717 324/1718 337/1719
f 324/1720 325/1721 337/1722
f 337/1723 325/1724 338/1725
f 325/1726 326/1727 338/1728
f 338/1729 326/1730 339/1731
f 326/1732 327/1733 339/1734
f 339/1735 327/1736 340/1737
f 327/1738 328/1739 340/1740
f 340/1741 328/1742 341/1743
f 328/1744 329/1745 341/1746
f 341/1747 329/1748 330/1749
f 329/1750 318/1751 330/1752
f 342/1753 330/1754 331/1755
f 343/1756 342/1757 331/1758
f 343/1759 331/1760 332/1761
f 344/1762 343/1763 332/1764
f 344/1765 332/1766 333/1767
f 345/1768 344/1769 333/1770
f 345/1771 333/1772 334/1773
f 346/1774 345/1775 334/1776
f 346/1777 334/1778 335/1779
f 347/1780 346/1781 335/1782
f 347/1783 335/1784 336/1785
f 348/1786 347/1787 336/1788
f 348/1789 336/1790 349/1791
f 336/1792 337/1793 349/1794
f 349/1795 337/1796 350/1797
f 337/1798 338/1799 350/1800
f 350/1801 338/1802 351/1803
f 338/1804 339/1805 351/1806
f 351/1807 339/1808 352/1809
f 339/1810 340/1811 352/1812
f 352/1813 340/1814 353/1815
f 340/1816 341/1817 353/1818
f 353/1819 341/1820 342/1821
f 341/1822 330/1823 342/1824
f 354/1825 342/1826 343/1827
f 355/1828 354/1829 343/1830
f 355/1831 343/1832 344/1833
f 356/1834 355/1835 344/1836
f 356/1837 344/1838 345/1839
f 357/1840 356/1841 345/1842
f 357/1843 345/1844 346/1845
f 358/1846 357/1847 346/1848
f 358/1849 346/1850 347/1851
f 359/1852 358/1853 347/1854
f 359/1855 347/1856 348/1857
f 360/1858 359/1859 348/1860
f 360/1861 348/1862 361/1863
f 348/1864 349/1865 361/1866
f 361/1867 349/1868 362/1869
f 349/1870 350/1871 362/1872
f 362/1873 350/1874 363/1875
f 350/1876 351/1877 363/1878
f 363/1879 351/1880 364/1881
f 351/1882 352/1883 364/1884
f 364/1885 352/1886 365/1887
f 352/1888 353/1889 365/1890
f 365/1891 353/1892 354/1893
f 353/1894 342/1895 354/1896
f 366/1897 354/1898 355/1899
f 367/1900 366/1901 355/1902
f 367/1903 355/1904 356/1905
f 368/1906 367/1907 356/1908
f 368/1909 356/1910 357/1911
f 369/1912 368/1913 357/1914
f 369/1915 357/1916 358/1917
f 370/1918 369/1919 358/1920
f 370/1921 358/1922 359/1923
f 371/1924 370/1925 359/1926
f 371/1927 359/1928 360/1929
f 372/1930 371/1931 360/1932
f 372/1933 360/1934 373/1935
f 360/1936 361/1937 373/1938
f 373/1939 361/1940 374/1941
f 361/1942 362/1943 374/1944
f 374/1945 362/1946 375/1947
f 362/1948 363/1949 375/1950
f 375/1951 363/1952 376/1953
f 363/1954 364/1955 376/1956
f 376/1957 364/1958 377/1959
f 364/1960 365/1961 377/1962
f 377/1963 365/1964 366/1965
f 365/1966 354/1967 366/1968
f 378/1969 366/1970 367/1971
f 379/1972 378/1973 367/1974
f 379/1975 367/1976 368/1977
f 380/1978 379/1979 368/1980
f 380/1981 368/1982 369/1983
f 381/1984 380/1985 369/1986
f 381/1987 369/1988 370/1989
f 382/1990 381/1991 370/1992
f 382/1993 370/1994 371/1995
f 383/1996 382/1997 371/1998
f 383/1999 371/2000 372/2001
f 384/2002 383/2003 372/2004
f 384/2005 372/2006 385/2007
f 372/2008 373/2009 385/2010
f 385/2011 373/2012 386/2013
f 373/2014 374/2015 386/2016
f 386/2017 374/2018 387/2019
f 374/2020 375/2021 387/2022
f 387/2023 375/2024 388/2025
f 375/2026 376/2027 388/2028
f 388/2029 376/2030 389/2031
f 376/2032 377/2033 389/2034
f 389/2035 377/2036 378/2037
f 377/2038 366/2039 378/2040
f 391/2041 390/2042 390/2043
f 391/2044 391/2045 390/2046
f 392/2047 391/2048 391/2049
f 392/2050 392/2051 391/2052
f 393/2053 392/2054 392/2055
f 393/2056 393/2057 392/2058
f 394/2059 395/2060 398/2061
f 398/2062 395/2063 399/2064
f 395/2065 397/2066 399/2067
f 394/2068 398/2069 396/2070
f 398/2071 399/2072 396/2073
f 396/2074 399/2075 397/2076
f 401/2077 400/2078 404/2079
f 401/2080 404/2081 405/2082
f 403/2083 401/2084 405/2085
f 402/2086 404/2087 400/2088
f 402/2089 405/2090 404/2091
f 403/2092 405/2093 402/2094
f 406/2095 407/2096 410/2097
f 410/2098 407/2099 411/2100
f 407/2101 409/2102 411/2103
f 406/2104 410/2105 408/2106
f 410/2107 411/2108 408/2109
f 408/2110 411/2111 409/2112
f 413/2113 412/2114 416/2115
f 413/2116 416/2117 417/2118
f 415/2119 413/2120 417/2121
f 414/2122 416/2123 412/2124
f 414/2125 417/2126 416/2127
f 415/2128 417/2129 414/2130
f 418/2131 419/2132 422/2133
f 422/2134 419/2135 423/2136
f 419/2137 421/2138 423/2139
f 425/2140 424/2141 428/2142
f 425/2143 428/2144 429/2145
f 427/2146 425/2147 429/2148
f 430/2149 431/2150 434/2151
f 434/2152 431/2153 435/2154
f 431/2155 433/2156 435/2157
f 435/2158 433/2159 437/2160
f 430/2161 434/2162 432/2163
f 434/2164 436/2165 432/2166
f 432/2167 436/2168 433/2169
f 436/2170 437/2171 433/2172
f 434/2173 435/2174 438/2175
f 438/2176 435/2177 439/2178
f 435/2179 437/2180 439/2181
f 439/2182 437/2183 441/2184
f 434/2185 438/2186 436/2187
f 438/2188 440/2189 436/2190
f 436/2191 440/2192 437/2193
f 440/2194 441/2195 437/2196
f 438/2197 439/2198 442/2199
f 442/2200 439/2201 443/2202
f 439/2203 441/2204 443/2205
f 443/2206 441/2207 445/2208
f 438/2209 442/2210 440/2211
f 442/2212 444/2213 440/2214
f 440/2215 444/2216 441/2217
f 444/2218 445/2219 441/2220
f 442/2221 443/2222 446/2223
f 446/2224 443/2225 447/2226
f 443/2227 445/2228 447/2229
f 442/2230 446/2231 444/2232
f 446/2233 447/2234 444/2235
f 444/2236 447/2237 445/2238
f 449/2239 448/2240 452/2241
f 449/2242 452/2243 453/2244
f 451/2245 449/2246 453/2247
f 451/2248 453/2249 455/2250
f 450/2251 452/2252 448/2253
f 450/2254 454/2255 452/2256
f 451/2257 454/2258 450/2259
f 451/2260 455/2261 454/2262
f 453/2263 452/2264 456/2265
f 453/2266 456/2267 457/2268
f 455/2269 453/2270 457/2271
f 455/2272 457/2273 459/2274
f 454/2275 456/2276 452/2277
f 454/2278 458/2279 456/2280
f 455/2281 458/2282 454/2283
f 455/2284 459/2285 458/2286
f 457/2287 456/2288 460/2289
f 457/2290 460/2291 461/2292
f 459/2293 457/2294 461/2295
f 459/2296 461/2297 463/2298
f 458/2299 460/2300 456/2301
f 458/2302 462/2303 460/2304
f 459/2305 462/2306 458/2307
f 459/2308 463/2309 462/2310
f 461/2311 460/2312 464/2313
f 461/2314 464/2315 465/2316
f 463/2317 461/2318 465/2319
f 462/2320 464/2321 460/2322
f 462/2323 465/2324 464/2325
f 463/2326 465/2327 462/2328
