v 0 1.03 0
v 0.1 1.01928 0
v 0.17321 0.99 0
v 0.2 0.95 0
v 0.17321 0.91 0
v 0.1 0.88072 0
v 0 0.87 0
v -0.1 0.88072 0
v -0.17321 0.91 0
v -0.2 0.95 0
v -0.17321 0.99 0
v -0.1 1.01928 0
v 0 1.00749 -0.21415
v 0.1 0.99701 -0.21192
v 0.17321 0.96837 -0.20583
v 0.2 0.92924 -0.19752
v 0.17321 0.89011 -0.1892
v 0.1 0.86147 -0.18311
v 0 0.85099 -0.18088
v -0.1 0.86147 -0.18311
v -0.17321 0.89011 -0.1892
v -0.2 0.92924 -0.19752
v -0.17321 0.96837 -0.20583
v -0.1 0.99701 -0.21192
v 0 0.94095 -0.41894
v 0.1 0.93116 -0.41458
v 0.17321 0.90441 -0.40267
v 0.2 0.86787 -0.3864
v 0.17321 0.83133 -0.37013
v 0.1 0.80458 -0.35822
v 0 0.79478 -0.35386
v -0.1 0.80458 -0.35822
v -0.17321 0.83133 -0.37013
v -0.2 0.86787 -0.3864
v -0.17321 0.90441 -0.40267
v -0.1 0.93116 -0.41458
v 0 0.83329 -0.60542
v 0.1 0.82462 -0.59912
v 0.17321 0.80093 -0.58191
v 0.2 0.76857 -0.5584
v 0.17321 0.73621 -0.53488
v 0.1 0.71252 -0.51767
v 0 0.70384 -0.51137
v -0.1 0.71252 -0.51767
v -0.17321 0.73621 -0.53488
v -0.2 0.76857 -0.5584
v -0.17321 0.80093 -0.58191
v -0.1 0.82462 -0.59912
v 0 0.6892 -0.76544
v 0.1 0.68203 -0.75747
v 0.17321 0.66244 -0.73571
v 0.2 0.63567 -0.70599
v 0.17321 0.60891 -0.67626
v 0.1 0.58932 -0.6545
v 0 0.58214 -0.64654
v -0.1 0.58932 -0.6545
v -0.17321 0.60891 -0.67626
v -0.2 0.63567 -0.70599
v -0.17321 0.66244 -0.73571
v -0.1 0.68203 -0.75747
v 0 0.515 -0.89201
v 0.1 0.50964 -0.88272
v 0.17321 0.495 -0.85737
v 0.2 0.475 -0.82272
v 0.17321 0.455 -0.78808
v 0.1 0.44036 -0.76272
v 0 0.435 -0.75344
v -0.1 0.44036 -0.76272
v -0.17321 0.455 -0.78808
v -0.2 0.475 -0.82272
v -0.17321 0.495 -0.85737
v -0.1 0.50964 -0.88272
v 0 0.31829 -0.97959
v 0.1 0.31498 -0.96939
v 0.17321 0.30593 -0.94155
v 0.2 0.29357 -0.9035
v 0.17321 0.28121 -0.86546
v 0.1 0.27216 -0.83761
v 0 0.26884 -0.82742
v -0.1 0.27216 -0.83761
v -0.17321 0.28121 -0.86546
v -0.2 0.29357 -0.9035
v -0.17321 0.30593 -0.94155
v -0.1 0.31498 -0.96939
v 0 0.10766 -1.02436
v 0.1 0.10654 -1.0137
v 0.17321 0.10348 -0.98458
v 0.2 0.0993 -0.9448
v 0.17321 0.09512 -0.90501
v 0.1 0.09206 -0.87589
v 0 0.09094 -0.86523
v -0.1 0.09206 -0.87589
v -0.17321 0.09512 -0.90501
v -0.2 0.0993 -0.9448
v -0.17321 0.10348 -0.98458
v -0.1 0.10654 -1.0137
v 0 -0.10766 -1.02436
v 0.1 -0.10654 -1.0137
v 0.17321 -0.10348 -0.98458
v 0.2 -0.0993 -0.9448
v 0.17321 -0.09512 -0.90501
v 0.1 -0.09206 -0.87589
v 0 -0.09094 -0.86523
v -0.1 -0.09206 -0.87589
v -0.17321 -0.09512 -0.90501
v -0.2 -0.0993 -0.9448
v -0.17321 -0.10348 -0.98458
v -0.1 -0.10654 -1.0137
v 0 -0.31829 -0.97959
v 0.1 -0.31498 -0.96939
v 0.17321 -0.30593 -0.94155
v 0.2 -0.29357 -0.9035
v 0.17321 -0.28121 -0.86546
v 0.1 -0.27216 -0.83761
v 0 -0.26884 -0.82742
v -0.1 -0.27216 -0.83761
v -0.17321 -0.28121 -0.86546
v -0.2 -0.29357 -0.9035
v -0.17321 -0.30593 -0.94155
v -0.1 -0.31498 -0.96939
v 0 -0.515 -0.89201
v 0.1 -0.50964 -0.88272
v 0.17321 -0.495 -0.85737
v 0.2 -0.475 -0.82272
v 0.17321 -0.455 -0.78808
v 0.1 -0.44036 -0.76272
v 0 -0.435 -0.75344
v -0.1 -0.44036 -0.76272
v -0.17321 -0.455 -0.78808
v -0.2 -0.475 -0.82272
v -0.17321 -0.495 -0.85737
v -0.1 -0.50964 -0.88272
v 0 -0.6892 -0.76544
v 0.1 -0.68203 -0.75747
v 0.17321 -0.66244 -0.73571
v 0.2 -0.63567 -0.70599
v 0.17321 -0.60891 -0.67626
v 0.1 -0.58932 -0.6545
v 0 -0.58214 -0.64654
v -0.1 -0.58932 -0.6545
v -0.17321 -0.60891 -0.67626
v -0.2 -0.63567 -0.70599
v -0.17321 -0.66244 -0.73571
v -0.1 -0.68203 -0.75747
v 0 -0.83329 -0.60542
v 0.1 -0.82462 -0.59912
v 0.17321 -0.80093 -0.58191
v 0.2 -0.76857 -0.5584
v 0.17321 -0.73621 -0.53488
v 0.1 -0.71252 -0.51767
v 0 -0.70384 -0.51137
v -0.1 -0.71252 -0.51767
v -0.17321 -0.73621 -0.53488
v -0.2 -0.76857 -0.5584
v -0.17321 -0.80093 -0.58191
v -0.1 -0.82462 -0.59912
v 0 -0.94095 -0.41894
v 0.1 -0.93116 -0.41458
v 0.17321 -0.90441 -0.40267
v 0.2 -0.86787 -0.3864
v 0.17321 -0.83133 -0.37013
v 0.1 -0.80458 -0.35822
v 0 -0.79478 -0.35386
v -0.1 -0.80458 -0.35822
v -0.17321 -0.83133 -0.37013
v -0.2 -0.86787 -0.3864
v -0.17321 -0.90441 -0.40267
v -0.1 -0.93116 -0.41458
v 0 -1.00749 -0.21415
v 0.1 -0.99701 -0.21192
v 0.17321 -0.96837 -0.20583
v 0.2 -0.92924 -0.19752
v 0.17321 -0.89011 -0.1892
v 0.1 -0.86147 -0.18311
v 0 -0.85099 -0.18088
v -0.1 -0.86147 -0.18311
v -0.17321 -0.89011 -0.1892
v -0.2 -0.92924 -0.19752
v -0.17321 -0.96837 -0.20583
v -0.1 -0.99701 -0.21192
v 0 -1.03 0
v 0.1 -1.01928 0
v 0.17321 -0.99 0
v 0.2 -0.95 0
v 0.17321 -0.91 0
v 0.1 -0.88072 0
v 0 -0.87 0
v -0.1 -0.88072 0
v -0.17321 -0.91 0
v -0.2 -0.95 0
v -0.17321 -0.99 0
v -0.1 -1.01928 0
v 0 -1.00749 0.21415
v 0.1 -0.99701 0.21192
v 0.17321 -0.96837 0.20583
v 0.2 -0.92924 0.19752
v 0.17321 -0.89011 0.1892
v 0.1 -0.86147 0.18311
v 0 -0.85099 0.18088
v -0.1 -0.86147 0.18311
v -0.17321 -0.89011 0.1892
v -0.2 -0.92924 0.19752
v -0.17321 -0.96837 0.20583
v -0.1 -0.99701 0.21192
v 0 -0.94095 0.41894
v 0.1 -0.93116 0.41458
v 0.17321 -0.90441 0.40267
v 0.2 -0.86787 0.3864
v 0.17321 -0.83133 0.37013
v 0.1 -0.80458 0.35822
v 0 -0.79478 0.35386
v -0.1 -0.80458 0.35822
v -0.17321 -0.83133 0.37013
v -0.2 -0.86787 0.3864
v -0.17321 -0.90441 0.40267
v -0.1 -0.93116 0.41458
v 0 -0.83329 0.60542
v 0.1 -0.82462 0.59912
v 0.17321 -0.80093 0.58191
v 0.2 -0.76857 0.5584
v 0.17321 -0.73621 0.53488
v 0.1 -0.71252 0.51767
v 0 -0.70384 0.51137
v -0.1 -0.71252 0.51767
v -0.17321 -0.73621 0.53488
v -0.2 -0.76857 0.5584
v -0.17321 -0.80093 0.58191
v -0.1 -0.82462 0.59912
v 0 -0.6892 0.76544
v 0.1 -0.68203 0.75747
v 0.17321 -0.66244 0.73571
v 0.2 -0.63567 0.70599
v 0.17321 -0.60891 0.67626
v 0.1 -0.58932 0.6545
v 0 -0.58214 0.64654
v -0.1 -0.58932 0.6545
v -0.17321 -0.60891 0.67626
v -0.2 -0.63567 0.70599
v -0.17321 -0.66244 0.73571
v -0.1 -0.68203 0.75747
v 0 -0.515 0.89201
v 0.1 -0.50964 0.88272
v 0.17321 -0.495 0.85737
v 0.2 -0.475 0.82272
v 0.17321 -0.455 0.78808
v 0.1 -0.44036 0.76272
v 0 -0.435 0.75344
v -0.1 -0.44036 0.76272
v -0.17321 -0.455 0.78808
v -0.2 -0.475 0.82272
v -0.17321 -0.495 0.85737
v -0.1 -0.50964 0.88272
v 0 -0.31829 0.97959
v 0.1 -0.31498 0.96939
v 0.17321 -0.30593 0.94155
v 0.2 -0.29357 0.9035
v 0.17321 -0.28121 0.86546
v 0.1 -0.27216 0.83761
v 0 -0.26884 0.82742
v -0.1 -0.27216 0.83761
v -0.17321 -0.28121 0.86546
v -0.2 -0.29357 0.9035
v -0.17321 -0.30593 0.94155
v -0.1 -0.31498 0.96939
v 0 -0.10766 1.02436
v 0.1 -0.10654 1.0137
v 0.17321 -0.10348 0.98458
v 0.2 -0.0993 0.9448
v 0.17321 -0.09512 0.90501
v 0.1 -0.09206 0.87589
v 0 -0.09094 0.86523
v -0.1 -0.09206 0.87589
v -0.17321 -0.09512 0.90501
v -0.2 -0.0993 0.9448
v -0.17321 -0.10348 0.98458
v -0.1 -0.10654 1.0137
v 0 0.10766 1.02436
v 0.1 0.10654 1.0137
v 0.17321 0.10348 0.98458
v 0.2 0.0993 0.9448
v 0.17321 0.09512 0.90501
v 0.1 0.09206 0.87589
v 0 0.09094 0.86523
v -0.1 0.09206 0.87589
v -0.17321 0.09512 0.90501
v -0.2 0.0993 0.9448
v -0.17321 0.10348 0.98458
v -0.1 0.10654 1.0137
v 0 0.31829 0.97959
v 0.1 0.31498 0.96939
v 0.17321 0.30593 0.94155
v 0.2 0.29357 0.9035
v 0.17321 0.28121 0.86546
v 0.1 0.27216 0.83761
v 0 0.26884 0.82742
v -0.1 0.27216 0.83761
v -0.17321 0.28121 0.86546
v -0.2 0.29357 0.9035
v -0.17321 0.30593 0.94155
v -0.1 0.31498 0.96939
v 0 0.515 0.89201
v 0.1 0.50964 0.88272
v 0.17321 0.495 0.85737
v 0.2 0.475 0.82272
v 0.17321 0.455 0.78808
v 0.1 0.44036 0.76272
v 0 0.435 0.75344
v -0.1 0.44036 0.76272
v -0.17321 0.455 0.78808
v -0.2 0.475 0.82272
v -0.17321 0.495 0.85737
v -0.1 0.50964 0.88272
v 0 0.6892 0.76544
v 0.1 0.68203 0.75747
v 0.17321 0.66244 0.73571
v 0.2 0.63567 0.70599
v 0.17321 0.60891 0.67626
v 0.1 0.58932 0.6545
v 0 0.58214 0.64654
v -0.1 0.58932 0.6545
v -0.17321 0.60891 0.67626
v -0.2 0.63567 0.70599
v -0.17321 0.66244 0.73571
v -0.1 0.68203 0.75747
v 0 0.83329 0.60542
v 0.1 0.82462 0.59912
v 0.17321 0.80093 0.58191
v 0.2 0.76857 0.5584
v 0.17321 0.73621 0.53488
v 0.1 0.71252 0.51767
v 0 0.70384 0.51137
v -0.1 0.71252 0.51767
v -0.17321 0.73621 0.53488
v -0.2 0.76857 0.5584
v -0.17321 0.80093 0.58191
v -0.1 0.82462 0.59912
v 0 0.94095 0.41894
v 0.1 0.93116 0.41458
v 0.17321 0.90441 0.40267
v 0.2 0.86787 0.3864
v 0.17321 0.83133 0.37013
v 0.1 0.80458 0.35822
v 0 0.79478 0.35386
v -0.1 0.80458 0.35822
v -0.17321 0.83133 0.37013
v -0.2 0.86787 0.3864
v -0.17321 0.90441 0.40267
v -0.1 0.93116 0.41458
v 0 1.00749 0.21415
v 0.1 0.99701 0.21192
v 0.17321 0.96837 0.20583
v 0.2 0.92924 0.19752
v 0.17321 0.89011 0.1892
v 0.1 0.86147 0.18311
v 0 0.85099 0.18088
v -0.1 0.86147 0.18311
v -0.17321 0.89011 0.1892
v -0.2 0.92924 0.19752
v -0.17321 0.96837 0.20583
v -0.1 0.99701 0.21192
v 0 1.03 0
v 0.1 1.01928 0
v 0.17321 0.99 0
v 0.2 0.95 0
v 0.17321 0.91 0
v 0.1 0.88072 0
v 0 0.87 0
v -0.1 0.88072 0
v -0.17321 0.91 0
v -0.2 0.95 0
v -0.17321 0.99 0
v -0.1 1.01928 0

vt 0.26 0.525
vt 0.26 0.725
vt 0.27667 0.725
vt 0.27667 0.525
vt 0.26 0.525
vt 0.27667 0.725
vt 0.27667 0.525
vt 0.27667 0.725
vt 0.29333 0.725
vt 0.29333 0.525
vt 0.27667 0.525
vt 0.29333 0.725
vt 0.29333 0.525
vt 0.29333 0.725
vt 0.31 0.725
vt 0.31 0.525
vt 0.29333 0.525
vt 0.31 0.725
vt 0.31 0.525
vt 0.31 0.725
vt 0.32667 0.725
vt 0.32667 0.525
vt 0.31 0.525
vt 0.32667 0.725
vt 0.32667 0.525
vt 0.32667 0.725
vt 0.34333 0.725
vt 0.34333 0.525
vt 0.32667 0.525
vt 0.34333 0.725
vt 0.34333 0.525
vt 0.34333 0.725
vt 0.36 0.725
vt 0.36 0.525
vt 0.34333 0.525
vt 0.36 0.725
vt 0.26 0.525
vt 0.26 0.725
vt 0.27667 0.725
vt 0.27667 0.525
vt 0.26 0.525
vt 0.27667 0.725
vt 0.27667 0.525
vt 0.27667 0.725
vt 0.29333 0.725
vt 0.29333 0.525
vt 0.27667 0.525
vt 0.29333 0.725
vt 0.29333 0.525
vt 0.29333 0.725
vt 0.31 0.725
vt 0.31 0.525
vt 0.29333 0.525
vt 0.31 0.725
vt 0.31 0.525
vt 0.31 0.725
vt 0.32667 0.725
vt 0.32667 0.525
vt 0.31 0.525
vt 0.32667 0.725
vt 0.32667 0.525
vt 0.32667 0.725
vt 0.34333 0.725
vt 0.34333 0.525
vt 0.32667 0.525
vt 0.34333 0.725
vt 0.34333 0.525
vt 0.34333 0.725
vt 0.36 0.725
vt 0.36 0.525
vt 0.34333 0.525
vt 0.36 0.725
vt 0.26 0.525
vt 0.26 0.725
vt 0.27667 0.725
vt 0.27667 0.525
vt 0.26 0.525
vt 0.27667 0.725
vt 0.27667 0.525
vt 0.27667 0.725
vt 0.29333 0.725
vt 0.29333 0.525
vt 0.27667 0.525
vt 0.29333 0.725
vt 0.29333 0.525
vt 0.29333 0.725
vt 0.31 0.725
vt 0.31 0.525
vt 0.29333 0.525
vt 0.31 0.725
vt 0.31 0.525
vt 0.31 0.725
vt 0.32667 0.725
vt 0.32667 0.525
vt 0.31 0.525
vt 0.32667 0.725
vt 0.32667 0.525
vt 0.32667 0.725
vt 0.34333 0.725
vt 0.34333 0.525
vt 0.32667 0.525
vt 0.34333 0.725
vt 0.34333 0.525
vt 0.34333 0.725
vt 0.36 0.725
vt 0.36 0.525
vt 0.34333 0.525
vt 0.36 0.725
vt 0.26 0.525
vt 0.26 0.725
vt 0.27667 0.725
vt 0.27667 0.525
vt 0.26 0.525
vt 0.27667 0.725
vt 0.27667 0.525
vt 0.27667 0.725
vt 0.29333 0.725
vt 0.29333 0.525
vt 0.27667 0.525
vt 0.29333 0.725
vt 0.29333 0.525
vt 0.29333 0.725
vt 0.31 0.725
vt 0.31 0.525
vt 0.29333 0.525
vt 0.31 0.725
vt 0.31 0.525
vt 0.31 0.725
vt 0.32667 0.725
vt 0.32667 0.525
vt 0.31 0.525
vt 0.32667 0.725
vt 0.32667 0.525
vt 0.32667 0.725
vt 0.34333 0.725
vt 0.34333 0.525
vt 0.32667 0.525
vt 0.34333 0.725
vt 0.34333 0.525
vt 0.34333 0.725
vt 0.36 0.725
vt 0.36 0.525
vt 0.34333 0.525
vt 0.36 0.725
vt 0.26 0.525
vt 0.26 0.725
vt 0.27667 0.725
vt 0.27667 0.525
vt 0.26 0.525
vt 0.27667 0.725
vt 0.27667 0.525
vt 0.27667 0.725
vt 0.29333 0.725
vt 0.29333 0.525
vt 0.27667 0.525
vt 0.29333 0.725
vt 0.29333 0.525
vt 0.29333 0.725
vt 0.31 0.725
vt 0.31 0.525
vt 0.29333 0.525
vt 0.31 0.725
vt 0.31 0.525
vt 0.31 0.725
vt 0.32667 0.725
vt 0.32667 0.525
vt 0.31 0.525
vt 0.32667 0.725
vt 0.32667 0.525
vt 0.32667 0.725
vt 0.34333 0.725
vt 0.34333 0.525
vt 0.32667 0.525
vt 0.34333 0.725
vt 0.34333 0.525
vt 0.34333 0.725
vt 0.36 0.725
vt 0.36 0.525
vt 0.34333 0.525
vt 0.36 0.725
vt 0.26 0.525
vt 0.26 0.725
vt 0.27667 0.725
vt 0.27667 0.525
vt 0.26 0.525
vt 0.27667 0.725
vt 0.27667 0.525
vt 0.27667 0.725
vt 0.29333 0.725
vt 0.29333 0.525
vt 0.27667 0.525
vt 0.29333 0.725
vt 0.29333 0.525
vt 0.29333 0.725
vt 0.31 0.725
vt 0.31 0.525
vt 0.29333 0.525
vt 0.31 0.725
vt 0.31 0.525
vt 0.31 0.725
vt 0.32667 0.725
vt 0.32667 0.525
vt 0.31 0.525
vt 0.32667 0.725
vt 0.32667 0.525
vt 0.32667 0.725
vt 0.34333 0.725
vt 0.34333 0.525
vt 0.32667 0.525
vt 0.34333 0.725
vt 0.34333 0.525
vt 0.34333 0.725
vt 0.36 0.725
vt 0.36 0.525
vt 0.34333 0.525
vt 0.36 0.725
vt 0.26 0.525
vt 0.26 0.725
vt 0.27667 0.725
vt 0.27667 0.525
vt 0.26 0.525
vt 0.27667 0.725
vt 0.27667 0.525
vt 0.27667 0.725
vt 0.29333 0.725
vt 0.29333 0.525
vt 0.27667 0.525
vt 0.29333 0.725
vt 0.29333 0.525
vt 0.29333 0.725
vt 0.31 0.725
vt 0.31 0.525
vt 0.29333 0.525
vt 0.31 0.725
vt 0.31 0.525
vt 0.31 0.725
vt 0.32667 0.725
vt 0.32667 0.525
vt 0.31 0.525
vt 0.32667 0.725
vt 0.32667 0.525
vt 0.32667 0.725
vt 0.34333 0.725
vt 0.34333 0.525
vt 0.32667 0.525
vt 0.34333 0.725
vt 0.34333 0.525
vt 0.34333 0.725
vt 0.36 0.725
vt 0.36 0.525
vt 0.34333 0.525
vt 0.36 0.725
vt 0.26 0.525
vt 0.26 0.725
vt 0.27667 0.725
vt 0.27667 0.525
vt 0.26 0.525
vt 0.27667 0.725
vt 0.27667 0.525
vt 0.27667 0.725
vt 0.29333 0.725
vt 0.29333 0.525
vt 0.27667 0.525
vt 0.29333 0.725
vt 0.29333 0.525
vt 0.29333 0.725
vt 0.31 0.725
vt 0.31 0.525
vt 0.29333 0.525
vt 0.31 0.725
vt 0.31 0.525
vt 0.31 0.725
vt 0.32667 0.725
vt 0.32667 0.525
vt 0.31 0.525
vt 0.32667 0.725
vt 0.32667 0.525
vt 0.32667 0.725
vt 0.34333 0.725
vt 0.34333 0.525
vt 0.32667 0.525
vt 0.34333 0.725
vt 0.34333 0.525
vt 0.34333 0.725
vt 0.36 0.725
vt 0.36 0.525
vt 0.34333 0.525
vt 0.36 0.725
vt 0.26 0.525
vt 0.26 0.725
vt 0.27667 0.725
vt 0.27667 0.525
vt 0.26 0.525
vt 0.27667 0.725
vt 0.27667 0.525
vt 0.27667 0.725
vt 0.29333 0.725
vt 0.29333 0.525
vt 0.27667 0.525
vt 0.29333 0.725
vt 0.29333 0.525
vt 0.29333 0.725
vt 0.31 0.725
vt 0.31 0.525
vt 0.29333 0.525
vt 0.31 0.725
vt 0.31 0.525
vt 0.31 0.725
vt 0.32667 0.725
vt 0.32667 0.525
vt 0.31 0.525
vt 0.32667 0.725
vt 0.32667 0.525
vt 0.32667 0.725
vt 0.34333 0.725
vt 0.34333 0.525
vt 0.32667 0.525
vt 0.34333 0.725
vt 0.34333 0.525
vt 0.34333 0.725
vt 0.36 0.725
vt 0.36 0.525
vt 0.34333 0.525
vt 0.36 0.725
vt 0.26 0.525
vt 0.26 0.725
vt 0.27667 0.725
vt 0.27667 0.525
vt 0.26 0.525
vt 0.27667 0.725
vt 0.27667 0.525
vt 0.27667 0.725
vt 0.29333 0.725
vt 0.29333 0.525
vt 0.27667 0.525
vt 0.29333 0.725
vt 0.29333 0.525
vt 0.29333 0.725
vt 0.31 0.725
vt 0.31 0.525
vt 0.29333 0.525
vt 0.31 0.725
vt 0.31 0.525
vt 0.31 0.725
vt 0.32667 0.725
vt 0.32667 0.525
vt 0.31 0.525
vt 0.32667 0.725
vt 0.32667 0.525
vt 0.32667 0.725
vt 0.34333 0.725
vt 0.34333 0.525
vt 0.32667 0.525
vt 0.34333 0.725
vt 0.34333 0.525
vt 0.34333 0.725
vt 0.36 0.725
vt 0.36 0.525
vt 0.34333 0.525
vt 0.36 0.725
vt 0.26 0.525
vt 0.26 0.725
vt 0.27667 0.725
vt 0.27667 0.525
vt 0.26 0.525
vt 0.27667 0.725
vt 0.27667 0.525
vt 0.27667 0.725
vt 0.29333 0.725
vt 0.29333 0.525
vt 0.27667 0.525
vt 0.29333 0.725
vt 0.29333 0.525
vt 0.29333 0.725
vt 0.31 0.725
vt 0.31 0.525
vt 0.29333 0.525
vt 0.31 0.725
vt 0.31 0.525
vt 0.31 0.725
vt 0.32667 0.725
vt 0.32667 0.525
vt 0.31 0.525
vt 0.32667 0.725
vt 0.32667 0.525
vt 0.32667 0.725
vt 0.34333 0.725
vt 0.34333 0.525
vt 0.32667 0.525
vt 0.34333 0.725
vt 0.34333 0.525
vt 0.34333 0.725
vt 0.36 0.725
vt 0.36 0.525
vt 0.34333 0.525
vt 0.36 0.725
vt 0.26 0.525
vt 0.26 0.725
vt 0.27667 0.725
vt 0.27667 0.525
vt 0.26 0.525
vt 0.27667 0.725
vt 0.27667 0.525
vt 0.27667 0.725
vt 0.29333 0.725
vt 0.29333 0.525
vt 0.27667 0.525
vt 0.29333 0.725
vt 0.29333 0.525
vt 0.29333 0.725
vt 0.31 0.725
vt 0.31 0.525
vt 0.29333 0.525
vt 0.31 0.725
vt 0.31 0.525
vt 0.31 0.725
vt 0.32667 0.725
vt 0.32667 0.525
vt 0.31 0.525
vt 0.32667 0.725
vt 0.32667 0.525
vt 0.32667 0.725
vt 0.34333 0.725
vt 0.34333 0.525
vt 0.32667 0.525
vt 0.34333 0.725
vt 0.34333 0.525
vt 0.34333 0.725
vt 0.36 0.725
vt 0.36 0.525
vt 0.34333 0.525
vt 0.36 0.725
vt 0.26 0.525
vt 0.26 0.725
vt 0.27667 0.725
vt 0.27667 0.525
vt 0.26 0.525
vt 0.27667 0.725
vt 0.27667 0.525
vt 0.27667 0.725
vt 0.29333 0.725
vt 0.29333 0.525
vt 0.27667 0.525
vt 0.29333 0.725
vt 0.29333 0.525
vt 0.29333 0.725
vt 0.31 0.725
vt 0.31 0.525
vt 0.29333 0.525
vt 0.31 0.725
vt 0.31 0.525
vt 0.31 0.725
vt 0.32667 0.725
vt 0.32667 0.525
vt 0.31 0.525
vt 0.32667 0.725
vt 0.32667 0.525
vt 0.32667 0.725
vt 0.34333 0.725
vt 0.34333 0.525
vt 0.32667 0.525
vt 0.34333 0.725
vt 0.34333 0.525
vt 0.34333 0.725
vt 0.36 0.725
vt 0.36 0.525
vt 0.34333 0.525
vt 0.36 0.725
vt 0.26 0.525
vt 0.26 0.725
vt 0.27667 0.725
vt 0.27667 0.525
vt 0.26 0.525
vt 0.27667 0.725
vt 0.27667 0.525
vt 0.27667 0.725
vt 0.29333 0.725
vt 0.29333 0.525
vt 0.27667 0.525
vt 0.29333 0.725
vt 0.29333 0.525
vt 0.29333 0.725
vt 0.31 0.725
vt 0.31 0.525
vt 0.29333 0.525
vt 0.31 0.725
vt 0.31 0.525
vt 0.31 0.725
vt 0.32667 0.725
vt 0.32667 0.525
vt 0.31 0.525
vt 0.32667 0.725
vt 0.32667 0.525
vt 0.32667 0.725
vt 0.34333 0.725
vt 0.34333 0.525
vt 0.32667 0.525
vt 0.34333 0.725
vt 0.34333 0.525
vt 0.34333 0.725
vt 0.36 0.725
vt 0.36 0.525
vt 0.34333 0.525
vt 0.36 0.725
vt 0.26 0.525
vt 0.26 0.725
vt 0.27667 0.725
vt 0.27667 0.525
vt 0.26 0.525
vt 0.27667 0.725
vt 0.27667 0.525
vt 0.27667 0.725
vt 0.29333 0.725
vt 0.29333 0.525
vt 0.27667 0.525
vt 0.29333 0.725
vt 0.29333 0.525
vt 0.29333 0.725
vt 0.31 0.725
vt 0.31 0.525
vt 0.29333 0.525
vt 0.31 0.725
vt 0.31 0.525
vt 0.31 0.725
vt 0.32667 0.725
vt 0.32667 0.525
vt 0.31 0.525
vt 0.32667 0.725
vt 0.32667 0.525
vt 0.32667 0.725
vt 0.34333 0.725
vt 0.34333 0.525
vt 0.32667 0.525
vt 0.34333 0.725
vt 0.34333 0.525
vt 0.34333 0.725
vt 0.36 0.725
vt 0.36 0.525
vt 0.34333 0.525
vt 0.36 0.725
vt 0.26 0.525
vt 0.26 0.725
vt 0.27667 0.725
vt 0.27667 0.525
vt 0.26 0.525
vt 0.27667 0.725
vt 0.27667 0.525
vt 0.27667 0.725
vt 0.29333 0.725
vt 0.29333 0.525
vt 0.27667 0.525
vt 0.29333 0.725
vt 0.29333 0.525
vt 0.29333 0.725
vt 0.31 0.725
vt 0.31 0.525
vt 0.29333 0.525
vt 0.31 0.725
vt 0.31 0.525
vt 0.31 0.725
vt 0.32667 0.725
vt 0.32667 0.525
vt 0.31 0.525
vt 0.32667 0.725
vt 0.32667 0.525
vt 0.32667 0.725
vt 0.34333 0.725
vt 0.34333 0.525
vt 0.32667 0.525
vt 0.34333 0.725
vt 0.34333 0.525
vt 0.34333 0.725
vt 0.36 0.725
vt 0.36 0.525
vt 0.34333 0.525
vt 0.36 0.725
vt 0.26 0.525
vt 0.26 0.725
vt 0.27667 0.725
vt 0.27667 0.525
vt 0.26 0.525
vt 0.27667 0.725
vt 0.27667 0.525
vt 0.27667 0.725
vt 0.29333 0.725
vt 0.29333 0.525
vt 0.27667 0.525
vt 0.29333 0.725
vt 0.29333 0.525
vt 0.29333 0.725
vt 0.31 0.725
vt 0.31 0.525
vt 0.29333 0.525
vt 0.31 0.725
vt 0.31 0.525
vt 0.31 0.725
vt 0.32667 0.725
vt 0.32667 0.525
vt 0.31 0.525
vt 0.32667 0.725
vt 0.32667 0.525
vt 0.32667 0.725
vt 0.34333 0.725
vt 0.34333 0.525
vt 0.32667 0.525
vt 0.34333 0.725
vt 0.34333 0.525
vt 0.34333 0.725
vt 0.36 0.725
vt 0.36 0.525
vt 0.34333 0.525
vt 0.36 0.725
vt 0.26 0.525
vt 0.26 0.725
vt 0.27667 0.725
vt 0.27667 0.525
vt 0.26 0.525
vt 0.27667 0.725
vt 0.27667 0.525
vt 0.27667 0.725
vt 0.29333 0.725
vt 0.29333 0.525
vt 0.27667 0.525
vt 0.29333 0.725
vt 0.29333 0.525
vt 0.29333 0.725
vt 0.31 0.725
vt 0.31 0.525
vt 0.29333 0.525
vt 0.31 0.725
vt 0.31 0.525
vt 0.31 0.725
vt 0.32667 0.725
vt 0.32667 0.525
vt 0.31 0.525
vt 0.32667 0.725
vt 0.32667 0.525
vt 0.32667 0.725
vt 0.34333 0.725
vt 0.34333 0.525
vt 0.32667 0.525
vt 0.34333 0.725
vt 0.34333 0.525
vt 0.34333 0.725
vt 0.36 0.725
vt 0.36 0.525
vt 0.34333 0.525
vt 0.36 0.725
vt 0.26 0.525
vt 0.26 0.725
vt 0.27667 0.725
vt 0.27667 0.525
vt 0.26 0.525
vt 0.27667 0.725
vt 0.27667 0.525
vt 0.27667 0.725
vt 0.29333 0.725
vt 0.29333 0.525
vt 0.27667 0.525
vt 0.29333 0.725
vt 0.29333 0.525
vt 0.29333 0.725
vt 0.31 0.725
vt 0.31 0.525
vt 0.29333 0.525
vt 0.31 0.725
vt 0.31 0.525
vt 0.31 0.725
vt 0.32667 0.725
vt 0.32667 0.525
vt 0.31 0.525
vt 0.32667 0.725
vt 0.32667 0.525
vt 0.32667 0.725
vt 0.34333 0.725
vt 0.34333 0.525
vt 0.32667 0.525
vt 0.34333 0.725
vt 0.34333 0.525
vt 0.34333 0.725
vt 0.36 0.725
vt 0.36 0.525
vt 0.34333 0.525
vt 0.36 0.725
vt 0.26 0.525
vt 0.26 0.725
vt 0.27667 0.725
vt 0.27667 0.525
vt 0.26 0.525
vt 0.27667 0.725
vt 0.27667 0.525
vt 0.27667 0.725
vt 0.29333 0.725
vt 0.29333 0.525
vt 0.27667 0.525
vt 0.29333 0.725
vt 0.29333 0.525
vt 0.29333 0.725
vt 0.31 0.725
vt 0.31 0.525
vt 0.29333 0.525
vt 0.31 0.725
vt 0.31 0.525
vt 0.31 0.725
vt 0.32667 0.725
vt 0.32667 0.525
vt 0.31 0.525
vt 0.32667 0.725
vt 0.32667 0.525
vt 0.32667 0.725
vt 0.34333 0.725
vt 0.34333 0.525
vt 0.32667 0.525
vt 0.34333 0.725
vt 0.34333 0.525
vt 0.34333 0.725
vt 0.36 0.725
vt 0.36 0.525
vt 0.34333 0.525
vt 0.36 0.725
vt 0.26 0.525
vt 0.26 0.725
vt 0.27667 0.725
vt 0.27667 0.525
vt 0.26 0.525
vt 0.27667 0.725
vt 0.27667 0.525
vt 0.27667 0.725
vt 0.29333 0.725
vt 0.29333 0.525
vt 0.27667 0.525
vt 0.29333 0.725
vt 0.29333 0.525
vt 0.29333 0.725
vt 0.31 0.725
vt 0.31 0.525
vt 0.29333 0.525
vt 0.31 0.725
vt 0.31 0.525
vt 0.31 0.725
vt 0.32667 0.725
vt 0.32667 0.525
vt 0.31 0.525
vt 0.32667 0.725
vt 0.32667 0.525
vt 0.32667 0.725
vt 0.34333 0.725
vt 0.34333 0.525
vt 0.32667 0.525
vt 0.34333 0.725
vt 0.34333 0.525
vt 0.34333 0.725
vt 0.36 0.725
vt 0.36 0.525
vt 0.34333 0.525
vt 0.36 0.725
vt 0.26 0.525
vt 0.26 0.725
vt 0.27667 0.725
vt 0.27667 0.525
vt 0.26 0.525
vt 0.27667 0.725
vt 0.27667 0.525
vt 0.27667 0.725
vt 0.29333 0.725
vt 0.29333 0.525
vt 0.27667 0.525
vt 0.29333 0.725
vt 0.29333 0.525
vt 0.29333 0.725
vt 0.31 0.725
vt 0.31 0.525
vt 0.29333 0.525
vt 0.31 0.725
vt 0.31 0.525
vt 0.31 0.725
vt 0.32667 0.725
vt 0.32667 0.525
vt 0.31 0.525
vt 0.32667 0.725
vt 0.32667 0.525
vt 0.32667 0.725
vt 0.34333 0.725
vt 0.34333 0.525
vt 0.32667 0.525
vt 0.34333 0.725
vt 0.34333 0.525
vt 0.34333 0.725
vt 0.36 0.725
vt 0.36 0.525
vt 0.34333 0.525
vt 0.36 0.725
vt 0.26 0.525
vt 0.26 0.725
vt 0.27667 0.725
vt 0.27667 0.525
vt 0.26 0.525
vt 0.27667 0.725
vt 0.27667 0.525
vt 0.27667 0.725
vt 0.29333 0.725
vt 0.29333 0.525
vt 0.27667 0.525
vt 0.29333 0.725
vt 0.29333 0.525
vt 0.29333 0.725
vt 0.31 0.725
vt 0.31 0.525
vt 0.29333 0.525
vt 0.31 0.725
vt 0.31 0.525
vt 0.31 0.725
vt 0.32667 0.725
vt 0.32667 0.525
vt 0.31 0.525
vt 0.32667 0.725
vt 0.32667 0.525
vt 0.32667 0.725
vt 0.34333 0.725
vt 0.34333 0.525
vt 0.32667 0.525
vt 0.34333 0.725
vt 0.34333 0.525
vt 0.34333 0.725
vt 0.36 0.725
vt 0.36 0.525
vt 0.34333 0.525
vt 0.36 0.725
vt 0.26 0.525
vt 0.26 0.725
vt 0.27667 0.725
vt 0.27667 0.525
vt 0.26 0.525
vt 0.27667 0.725
vt 0.27667 0.525
vt 0.27667 0.725
vt 0.29333 0.725
vt 0.29333 0.525
vt 0.27667 0.525
vt 0.29333 0.725
vt 0.29333 0.525
vt 0.29333 0.725
vt 0.31 0.725
vt 0.31 0.525
vt 0.29333 0.525
vt 0.31 0.725
vt 0.31 0.525
vt 0.31 0.725
vt 0.32667 0.725
vt 0.32667 0.525
vt 0.31 0.525
vt 0.32667 0.725
vt 0.32667 0.525
vt 0.32667 0.725
vt 0.34333 0.725
vt 0.34333 0.525
vt 0.32667 0.525
vt 0.34333 0.725
vt 0.34333 0.525
vt 0.34333 0.725
vt 0.36 0.725
vt 0.36 0.525
vt 0.34333 0.525
vt 0.36 0.725
vt 0.26 0.525
vt 0.26 0.725
vt 0.27667 0.725
vt 0.27667 0.525
vt 0.26 0.525
vt 0.27667 0.725
vt 0.27667 0.525
vt 0.27667 0.725
vt 0.29333 0.725
vt 0.29333 0.525
vt 0.27667 0.525
vt 0.29333 0.725
vt 0.29333 0.525
vt 0.29333 0.725
vt 0.31 0.725
vt 0.31 0.525
vt 0.29333 0.525
vt 0.31 0.725
vt 0.31 0.525
vt 0.31 0.725
vt 0.32667 0.725
vt 0.32667 0.525
vt 0.31 0.525
vt 0.32667 0.725
vt 0.32667 0.525
vt 0.32667 0.725
vt 0.34333 0.725
vt 0.34333 0.525
vt 0.32667 0.525
vt 0.34333 0.725
vt 0.34333 0.525
vt 0.34333 0.725
vt 0.36 0.725
vt 0.36 0.525
vt 0.34333 0.525
vt 0.36 0.725
vt 0.26 0.525
vt 0.26 0.725
vt 0.27667 0.725
vt 0.27667 0.525
vt 0.26 0.525
vt 0.27667 0.725
vt 0.27667 0.525
vt 0.27667 0.725
vt 0.29333 0.725
vt 0.29333 0.525
vt 0.27667 0.525
vt 0.29333 0.725
vt 0.29333 0.525
vt 0.29333 0.725
vt 0.31 0.725
vt 0.31 0.525
vt 0.29333 0.525
vt 0.31 0.725
vt 0.31 0.525
vt 0.31 0.725
vt 0.32667 0.725
vt 0.32667 0.525
vt 0.31 0.525
vt 0.32667 0.725
vt 0.32667 0.525
vt 0.32667 0.725
vt 0.34333 0.725
vt 0.34333 0.525
vt 0.32667 0.525
vt 0.34333 0.725
vt 0.34333 0.525
vt 0.34333 0.725
vt 0.36 0.725
vt 0.36 0.525
vt 0.34333 0.525
vt 0.36 0.725
vt 0.26 0.525
vt 0.26 0.725
vt 0.27667 0.725
vt 0.27667 0.525
vt 0.26 0.525
vt 0.27667 0.725
vt 0.27667 0.525
vt 0.27667 0.725
vt 0.29333 0.725
vt 0.29333 0.525
vt 0.27667 0.525
vt 0.29333 0.725
vt 0.29333 0.525
vt 0.29333 0.725
vt 0.31 0.725
vt 0.31 0.525
vt 0.29333 0.525
vt 0.31 0.725
vt 0.31 0.525
vt 0.31 0.725
vt 0.32667 0.725
vt 0.32667 0.525
vt 0.31 0.525
vt 0.32667 0.725
vt 0.32667 0.525
vt 0.32667 0.725
vt 0.34333 0.725
vt 0.34333 0.525
vt 0.32667 0.525
vt 0.34333 0.725
vt 0.34333 0.525
vt 0.34333 0.725
vt 0.36 0.725
vt 0.36 0.525
vt 0.34333 0.525
vt 0.36 0.725
vt 0.26 0.525
vt 0.26 0.725
vt 0.27667 0.725
vt 0.27667 0.525
vt 0.26 0.525
vt 0.27667 0.725
vt 0.27667 0.525
vt 0.27667 0.725
vt 0.29333 0.725
vt 0.29333 0.525
vt 0.27667 0.525
vt 0.29333 0.725
vt 0.29333 0.525
vt 0.29333 0.725
vt 0.31 0.725
vt 0.31 0.525
vt 0.29333 0.525
vt 0.31 0.725
vt 0.31 0.525
vt 0.31 0.725
vt 0.32667 0.725
vt 0.32667 0.525
vt 0.31 0.525
vt 0.32667 0.725
vt 0.32667 0.525
vt 0.32667 0.725
vt 0.34333 0.725
vt 0.34333 0.525
vt 0.32667 0.525
vt 0.34333 0.725
vt 0.34333 0.525
vt 0.34333 0.725
vt 0.36 0.725
vt 0.36 0.525
vt 0.34333 0.525
vt 0.36 0.725
vt 0.26 0.525
vt 0.26 0.725
vt 0.27667 0.725
vt 0.27667 0.525
vt 0.26 0.525
vt 0.27667 0.725
vt 0.27667 0.525
vt 0.27667 0.725
vt 0.29333 0.725
vt 0.29333 0.525
vt 0.27667 0.525
vt 0.29333 0.725
vt 0.29333 0.525
vt 0.29333 0.725
vt 0.31 0.725
vt 0.31 0.525
vt 0.29333 0.525
vt 0.31 0.725
vt 0.31 0.525
vt 0.31 0.725
vt 0.32667 0.725
vt 0.32667 0.525
vt 0.31 0.525
vt 0.32667 0.725
vt 0.32667 0.525
vt 0.32667 0.725
vt 0.34333 0.725
vt 0.34333 0.525
vt 0.32667 0.525
vt 0.34333 0.725
vt 0.34333 0.525
vt 0.34333 0.725
vt 0.36 0.725
vt 0.36 0.525
vt 0.34333 0.525
vt 0.36 0.725
vt 0.26 0.525
vt 0.26 0.725
vt 0.27667 0.725
vt 0.27667 0.525
vt 0.26 0.525
vt 0.27667 0.725
vt 0.27667 0.525
vt 0.27667 0.725
vt 0.29333 0.725
vt 0.29333 0.525
vt 0.27667 0.525
vt 0.29333 0.725
vt 0.29333 0.525
vt 0.29333 0.725
vt 0.31 0.725
vt 0.31 0.525
vt 0.29333 0.525
vt 0.31 0.725
vt 0.31 0.525
vt 0.31 0.725
vt 0.32667 0.725
vt 0.32667 0.525
vt 0.31 0.525
vt 0.32667 0.725
vt 0.32667 0.525
vt 0.32667 0.725
vt 0.34333 0.725
vt 0.34333 0.525
vt 0.32667 0.525
vt 0.34333 0.725
vt 0.34333 0.525
vt 0.34333 0.725
vt 0.36 0.725
vt 0.36 0.525
vt 0.34333 0.525
vt 0.36 0.725
vt 0.26 0.525
vt 0.26 0.725
vt 0.27667 0.725
vt 0.27667 0.525
vt 0.26 0.525
vt 0.27667 0.725
vt 0.27667 0.525
vt 0.27667 0.725
vt 0.29333 0.725
vt 0.29333 0.525
vt 0.27667 0.525
vt 0.29333 0.725
vt 0.29333 0.525
vt 0.29333 0.725
vt 0.31 0.725
vt 0.31 0.525
vt 0.29333 0.525
vt 0.31 0.725
vt 0.31 0.525
vt 0.31 0.725
vt 0.32667 0.725
vt 0.32667 0.525
vt 0.31 0.525
vt 0.32667 0.725
vt 0.32667 0.525
vt 0.32667 0.725
vt 0.34333 0.725
vt 0.34333 0.525
vt 0.32667 0.525
vt 0.34333 0.725
vt 0.34333 0.525
vt 0.34333 0.725
vt 0.36 0.725
vt 0.36 0.525
vt 0.34333 0.525
vt 0.36 0.725
vt 0.26 0.525
vt 0.26 0.725
vt 0.27667 0.725
vt 0.27667 0.525
vt 0.26 0.525
vt 0.27667 0.725
vt 0.27667 0.525
vt 0.27667 0.725
vt 0.29333 0.725
vt 0.29333 0.525
vt 0.27667 0.525
vt 0.29333 0.725
vt 0.29333 0.525
vt 0.29333 0.725
vt 0.31 0.725
vt 0.31 0.525
vt 0.29333 0.525
vt 0.31 0.725
vt 0.31 0.525
vt 0.31 0.725
vt 0.32667 0.725
vt 0.32667 0.525
vt 0.31 0.525
vt 0.32667 0.725
vt 0.32667 0.525
vt 0.32667 0.725
vt 0.34333 0.725
vt 0.34333 0.525
vt 0.32667 0.525
vt 0.34333 0.725
vt 0.34333 0.525
vt 0.34333 0.725
vt 0.36 0.725
vt 0.36 0.525
vt 0.34333 0.525
vt 0.36 0.725
vt 0.26 0.525
vt 0.26 0.725
vt 0.27667 0.725
vt 0.27667 0.525
vt 0.26 0.525
vt 0.27667 0.725
vt 0.27667 0.525
vt 0.27667 0.725
vt 0.29333 0.725
vt 0.29333 0.525
vt 0.27667 0.525
vt 0.29333 0.725
vt 0.29333 0.525
vt 0.29333 0.725
vt 0.31 0.725
vt 0.31 0.525
vt 0.29333 0.525
vt 0.31 0.725
vt 0.31 0.525
vt 0.31 0.725
vt 0.32667 0.725
vt 0.32667 0.525
vt 0.31 0.525
vt 0.32667 0.725
vt 0.32667 0.525
vt 0.32667 0.725
vt 0.34333 0.725
vt 0.34333 0.525
vt 0.32667 0.525
vt 0.34333 0.725
vt 0.34333 0.525
vt 0.34333 0.725
vt 0.36 0.725
vt 0.36 0.525
vt 0.34333 0.525
vt 0.36 0.725
vt 0.26 0.525
vt 0.26 0.725
vt 0.27667 0.725
vt 0.27667 0.525
vt 0.26 0.525
vt 0.27667 0.725
vt 0.27667 0.525
vt 0.27667 0.725
vt 0.29333 0.725
vt 0.29333 0.525
vt 0.27667 0.525
vt 0.29333 0.725
vt 0.29333 0.525
vt 0.29333 0.725
vt 0.31 0.725
vt 0.31 0.525
vt 0.29333 0.525
vt 0.31 0.725
vt 0.31 0.525
vt 0.31 0.725
vt 0.32667 0.725
vt 0.32667 0.525
vt 0.31 0.525
vt 0.32667 0.725
vt 0.32667 0.525
vt 0.32667 0.725
vt 0.34333 0.725
vt 0.34333 0.525
vt 0.32667 0.525
vt 0.34333 0.725
vt 0.34333 0.525
vt 0.34333 0.725
vt 0.36 0.725
vt 0.36 0.525
vt 0.34333 0.525
vt 0.36 0.725
vt 0.26 0.525
vt 0.26 0.725
vt 0.27667 0.725
vt 0.27667 0.525
vt 0.26 0.525
vt 0.27667 0.725
vt 0.27667 0.525
vt 0.27667 0.725
vt 0.29333 0.725
vt 0.29333 0.525
vt 0.27667 0.525
vt 0.29333 0.725
vt 0.29333 0.525
vt 0.29333 0.725
vt 0.31 0.725
vt 0.31 0.525
vt 0.29333 0.525
vt 0.31 0.725
vt 0.31 0.525
vt 0.31 0.725
vt 0.32667 0.725
vt 0.32667 0.525
vt 0.31 0.525
vt 0.32667 0.725
vt 0.32667 0.525
vt 0.32667 0.725
vt 0.34333 0.725
vt 0.34333 0.525
vt 0.32667 0.525
vt 0.34333 0.725
vt 0.34333 0.525
vt 0.34333 0.725
vt 0.36 0.725
vt 0.36 0.525
vt 0.34333 0.525
vt 0.36 0.725
vt 0.26 0.525
vt 0.26 0.725
vt 0.27667 0.725
vt 0.27667 0.525
vt 0.26 0.525
vt 0.27667 0.725
vt 0.27667 0.525
vt 0.27667 0.725
vt 0.29333 0.725
vt 0.29333 0.525
vt 0.27667 0.525
vt 0.29333 0.725
vt 0.29333 0.525
vt 0.29333 0.725
vt 0.31 0.725
vt 0.31 0.525
vt 0.29333 0.525
vt 0.31 0.725
vt 0.31 0.525
vt 0.31 0.725
vt 0.32667 0.725
vt 0.32667 0.525
vt 0.31 0.525
vt 0.32667 0.725
vt 0.32667 0.525
vt 0.32667 0.725
vt 0.34333 0.725
vt 0.34333 0.525
vt 0.32667 0.525
vt 0.34333 0.725
vt 0.34333 0.525
vt 0.34333 0.725
vt 0.36 0.725
vt 0.36 0.525
vt 0.34333 0.525
vt 0.36 0.725
vt 0.26 0.525
vt 0.26 0.725
vt 0.27667 0.725
vt 0.27667 0.525
vt 0.26 0.525
vt 0.27667 0.725
vt 0.27667 0.525
vt 0.27667 0.725
vt 0.29333 0.725
vt 0.29333 0.525
vt 0.27667 0.525
vt 0.29333 0.725
vt 0.29333 0.525
vt 0.29333 0.725
vt 0.31 0.725
vt 0.31 0.525
vt 0.29333 0.525
vt 0.31 0.725
vt 0.31 0.525
vt 0.31 0.725
vt 0.32667 0.725
vt 0.32667 0.525
vt 0.31 0.525
vt 0.32667 0.725
vt 0.32667 0.525
vt 0.32667 0.725
vt 0.34333 0.725
vt 0.34333 0.525
vt 0.32667 0.525
vt 0.34333 0.725
vt 0.34333 0.525
vt 0.34333 0.725
vt 0.36 0.725
vt 0.36 0.525
vt 0.34333 0.525
vt 0.36 0.725
vt 0.26 0.525
vt 0.26 0.725
vt 0.27667 0.725
vt 0.27667 0.525
vt 0.26 0.525
vt 0.27667 0.725
vt 0.27667 0.525
vt 0.27667 0.725
vt 0.29333 0.725
vt 0.29333 0.525
vt 0.27667 0.525
vt 0.29333 0.725
vt 0.29333 0.525
vt 0.29333 0.725
vt 0.31 0.725
vt 0.31 0.525
vt 0.29333 0.525
vt 0.31 0.725
vt 0.31 0.525
vt 0.31 0.725
vt 0.32667 0.725
vt 0.32667 0.525
vt 0.31 0.525
vt 0.32667 0.725
vt 0.32667 0.525
vt 0.32667 0.725
vt 0.34333 0.725
vt 0.34333 0.525
vt 0.32667 0.525
vt 0.34333 0.725
vt 0.34333 0.525
vt 0.34333 0.725
vt 0.36 0.725
vt 0.36 0.525
vt 0.34333 0.525
vt 0.36 0.725
vt 0.26 0.525
vt 0.26 0.725
vt 0.27667 0.725
vt 0.27667 0.525
vt 0.26 0.525
vt 0.27667 0.725
vt 0.27667 0.525
vt 0.27667 0.725
vt 0.29333 0.725
vt 0.29333 0.525
vt 0.27667 0.525
vt 0.29333 0.725
vt 0.29333 0.525
vt 0.29333 0.725
vt 0.31 0.725
vt 0.31 0.525
vt 0.29333 0.525
vt 0.31 0.725
vt 0.31 0.525
vt 0.31 0.725
vt 0.32667 0.725
vt 0.32667 0.525
vt 0.31 0.525
vt 0.32667 0.725
vt 0.32667 0.525
vt 0.32667 0.725
vt 0.34333 0.725
vt 0.34333 0.525
vt 0.32667 0.525
vt 0.34333 0.725
vt 0.34333 0.525
vt 0.34333 0.725
vt 0.36 0.725
vt 0.36 0.525
vt 0.34333 0.525
vt 0.36 0.725
vt 0.26 0.525
vt 0.26 0.725
vt 0.27667 0.725
vt 0.27667 0.525
vt 0.26 0.525
vt 0.27667 0.725
vt 0.27667 0.525
vt 0.27667 0.725
vt 0.29333 0.725
vt 0.29333 0.525
vt 0.27667 0.525
vt 0.29333 0.725
vt 0.29333 0.525
vt 0.29333 0.725
vt 0.31 0.725
vt 0.31 0.525
vt 0.29333 0.525
vt 0.31 0.725
vt 0.31 0.525
vt 0.31 0.725
vt 0.32667 0.725
vt 0.32667 0.525
vt 0.31 0.525
vt 0.32667 0.725
vt 0.32667 0.525
vt 0.32667 0.725
vt 0.34333 0.725
vt 0.34333 0.525
vt 0.32667 0.525
vt 0.34333 0.725
vt 0.34333 0.525
vt 0.34333 0.725
vt 0.36 0.725
vt 0.36 0.525
vt 0.34333 0.525
vt 0.36 0.725
vt 0.26 0.525
vt 0.26 0.725
vt 0.27667 0.725
vt 0.27667 0.525
vt 0.26 0.525
vt 0.27667 0.725
vt 0.27667 0.525
vt 0.27667 0.725
vt 0.29333 0.725
vt 0.29333 0.525
vt 0.27667 0.525
vt 0.29333 0.725
vt 0.29333 0.525
vt 0.29333 0.725
vt 0.31 0.725
vt 0.31 0.525
vt 0.29333 0.525
vt 0.31 0.725
vt 0.31 0.525
vt 0.31 0.725
vt 0.32667 0.725
vt 0.32667 0.525
vt 0.31 0.525
vt 0.32667 0.725
vt 0.32667 0.525
vt 0.32667 0.725
vt 0.34333 0.725
vt 0.34333 0.525
vt 0.32667 0.525
vt 0.34333 0.725
vt 0.34333 0.525
vt 0.34333 0.725
vt 0.36 0.725
vt 0.36 0.525
vt 0.34333 0.525
vt 0.36 0.725
vt 0.26 0.525
vt 0.26 0.725
vt 0.27667 0.725
vt 0.27667 0.525
vt 0.26 0.525
vt 0.27667 0.725
vt 0.27667 0.525
vt 0.27667 0.725
vt 0.29333 0.725
vt 0.29333 0.525
vt 0.27667 0.525
vt 0.29333 0.725
vt 0.29333 0.525
vt 0.29333 0.725
vt 0.31 0.725
vt 0.31 0.525
vt 0.29333 0.525
vt 0.31 0.725
vt 0.31 0.525
vt 0.31 0.725
vt 0.32667 0.725
vt 0.32667 0.525
vt 0.31 0.525
vt 0.32667 0.725
vt 0.32667 0.525
vt 0.32667 0.725
vt 0.34333 0.725
vt 0.34333 0.525
vt 0.32667 0.525
vt 0.34333 0.725
vt 0.34333 0.525
vt 0.34333 0.725
vt 0.36 0.725
vt 0.36 0.525
vt 0.34333 0.525
vt 0.36 0.725
vt 0.26 0.525
vt 0.26 0.725
vt 0.27667 0.725
vt 0.27667 0.525
vt 0.26 0.525
vt 0.27667 0.725
vt 0.27667 0.525
vt 0.27667 0.725
vt 0.29333 0.725
vt 0.29333 0.525
vt 0.27667 0.525
vt 0.29333 0.725
vt 0.29333 0.525
vt 0.29333 0.725
vt 0.31 0.725
vt 0.31 0.525
vt 0.29333 0.525
vt 0.31 0.725
vt 0.31 0.525
vt 0.31 0.725
vt 0.32667 0.725
vt 0.32667 0.525
vt 0.31 0.525
vt 0.32667 0.725
vt 0.32667 0.525
vt 0.32667 0.725
vt 0.34333 0.725
vt 0.34333 0.525
vt 0.32667 0.525
vt 0.34333 0.725
vt 0.34333 0.525
vt 0.34333 0.725
vt 0.36 0.725
vt 0.36 0.525
vt 0.34333 0.525
vt 0.36 0.725
vt 0.26 0.525
vt 0.26 0.725
vt 0.27667 0.725
vt 0.27667 0.525
vt 0.26 0.525
vt 0.27667 0.725
vt 0.27667 0.525
vt 0.27667 0.725
vt 0.29333 0.725
vt 0.29333 0.525
vt 0.27667 0.525
vt 0.29333 0.725
vt 0.29333 0.525
vt 0.29333 0.725
vt 0.31 0.725
vt 0.31 0.525
vt 0.29333 0.525
vt 0.31 0.725
vt 0.31 0.525
vt 0.31 0.725
vt 0.32667 0.725
vt 0.32667 0.525
vt 0.31 0.525
vt 0.32667 0.725
vt 0.32667 0.525
vt 0.32667 0.725
vt 0.34333 0.725
vt 0.34333 0.525
vt 0.32667 0.525
vt 0.34333 0.725
vt 0.34333 0.525
vt 0.34333 0.725
vt 0.36 0.725
vt 0.36 0.525
vt 0.34333 0.525
vt 0.36 0.725
vt 0.26 0.525
vt 0.26 0.725
vt 0.27667 0.725
vt 0.27667 0.525
vt 0.26 0.525
vt 0.27667 0.725
vt 0.27667 0.525
vt 0.27667 0.725
vt 0.29333 0.725
vt 0.29333 0.525
vt 0.27667 0.525
vt 0.29333 0.725
vt 0.29333 0.525
vt 0.29333 0.725
vt 0.31 0.725
vt 0.31 0.525
vt 0.29333 0.525
vt 0.31 0.725
vt 0.31 0.525
vt 0.31 0.725
vt 0.32667 0.725
vt 0.32667 0.525
vt 0.31 0.525
vt 0.32667 0.725
vt 0.32667 0.525
vt 0.32667 0.725
vt 0.34333 0.725
vt 0.34333 0.525
vt 0.32667 0.525
vt 0.34333 0.725
vt 0.34333 0.525
vt 0.34333 0.725
vt 0.36 0.725
vt 0.36 0.525
vt 0.34333 0.525
vt 0.36 0.725
vt 0.26 0.525
vt 0.26 0.725
vt 0.27667 0.725
vt 0.27667 0.525
vt 0.26 0.525
vt 0.27667 0.725
vt 0.27667 0.525
vt 0.27667 0.725
vt 0.29333 0.725
vt 0.29333 0.525
vt 0.27667 0.525
vt 0.29333 0.725
vt 0.29333 0.525
vt 0.29333 0.725
vt 0.31 0.725
vt 0.31 0.525
vt 0.29333 0.525
vt 0.31 0.725
vt 0.31 0.525
vt 0.31 0.725
vt 0.32667 0.725
vt 0.32667 0.525
vt 0.31 0.525
vt 0.32667 0.725
vt 0.32667 0.525
vt 0.32667 0.725
vt 0.34333 0.725
vt 0.34333 0.525
vt 0.32667 0.525
vt 0.34333 0.725
vt 0.34333 0.525
vt 0.34333 0.725
vt 0.36 0.725
vt 0.36 0.525
vt 0.34333 0.525
vt 0.36 0.725
vt 0.26 0.525
vt 0.26 0.725
vt 0.27667 0.725
vt 0.27667 0.525
vt 0.26 0.525
vt 0.27667 0.725
vt 0.27667 0.525
vt 0.27667 0.725
vt 0.29333 0.725
vt 0.29333 0.525
vt 0.27667 0.525
vt 0.29333 0.725
vt 0.29333 0.525
vt 0.29333 0.725
vt 0.31 0.725
vt 0.31 0.525
vt 0.29333 0.525
vt 0.31 0.725
vt 0.31 0.525
vt 0.31 0.725
vt 0.32667 0.725
vt 0.32667 0.525
vt 0.31 0.525
vt 0.32667 0.725
vt 0.32667 0.525
vt 0.32667 0.725
vt 0.34333 0.725
vt 0.34333 0.525
vt 0.32667 0.525
vt 0.34333 0.725
vt 0.34333 0.525
vt 0.34333 0.725
vt 0.36 0.725
vt 0.36 0.525
vt 0.34333 0.525
vt 0.36 0.725
vt 0.26 0.525
vt 0.26 0.725
vt 0.27667 0.725
vt 0.27667 0.525
vt 0.26 0.525
vt 0.27667 0.725
vt 0.27667 0.525
vt 0.27667 0.725
vt 0.29333 0.725
vt 0.29333 0.525
vt 0.27667 0.525
vt 0.29333 0.725
vt 0.29333 0.525
vt 0.29333 0.725
vt 0.31 0.725
vt 0.31 0.525
vt 0.29333 0.525
vt 0.31 0.725
vt 0.31 0.525
vt 0.31 0.725
vt 0.32667 0.725
vt 0.32667 0.525
vt 0.31 0.525
vt 0.32667 0.725
vt 0.32667 0.525
vt 0.32667 0.725
vt 0.34333 0.725
vt 0.34333 0.525
vt 0.32667 0.525
vt 0.34333 0.725
vt 0.34333 0.525
vt 0.34333 0.725
vt 0.36 0.725
vt 0.36 0.525
vt 0.34333 0.525
vt 0.36 0.725
vt 0.26 0.525
vt 0.26 0.725
vt 0.27667 0.725
vt 0.27667 0.525
vt 0.26 0.525
vt 0.27667 0.725
vt 0.27667 0.525
vt 0.27667 0.725
vt 0.29333 0.725
vt 0.29333 0.525
vt 0.27667 0.525
vt 0.29333 0.725
vt 0.29333 0.525
vt 0.29333 0.725
vt 0.31 0.725
vt 0.31 0.525
vt 0.29333 0.525
vt 0.31 0.725
vt 0.31 0.525
vt 0.31 0.725
vt 0.32667 0.725
vt 0.32667 0.525
vt 0.31 0.525
vt 0.32667 0.725
vt 0.32667 0.525
vt 0.32667 0.725
vt 0.34333 0.725
vt 0.34333 0.525
vt 0.32667 0.525
vt 0.34333 0.725
vt 0.34333 0.525
vt 0.34333 0.725
vt 0.36 0.725
vt 0.36 0.525
vt 0.34333 0.525
vt 0.36 0.725
vt 0.26 0.525
vt 0.26 0.725
vt 0.27667 0.725
vt 0.27667 0.525
vt 0.26 0.525
vt 0.27667 0.725
vt 0.27667 0.525
vt 0.27667 0.725
vt 0.29333 0.725
vt 0.29333 0.525
vt 0.27667 0.525
vt 0.29333 0.725
vt 0.29333 0.525
vt 0.29333 0.725
vt 0.31 0.725
vt 0.31 0.525
vt 0.29333 0.525
vt 0.31 0.725
vt 0.31 0.525
vt 0.31 0.725
vt 0.32667 0.725
vt 0.32667 0.525
vt 0.31 0.525
vt 0.32667 0.725
vt 0.32667 0.525
vt 0.32667 0.725
vt 0.34333 0.725
vt 0.34333 0.525
vt 0.32667 0.525
vt 0.34333 0.725
vt 0.34333 0.525
vt 0.34333 0.725
vt 0.36 0.725
vt 0.36 0.525
vt 0.34333 0.525
vt 0.36 0.725
vt 0.26 0.525
vt 0.26 0.725
vt 0.27667 0.725
vt 0.27667 0.525
vt 0.26 0.525
vt 0.27667 0.725
vt 0.27667 0.525
vt 0.27667 0.725
vt 0.29333 0.725
vt 0.29333 0.525
vt 0.27667 0.525
vt 0.29333 0.725
vt 0.29333 0.525
vt 0.29333 0.725
vt 0.31 0.725
vt 0.31 0.525
vt 0.29333 0.525
vt 0.31 0.725
vt 0.31 0.525
vt 0.31 0.725
vt 0.32667 0.725
vt 0.32667 0.525
vt 0.31 0.525
vt 0.32667 0.725
vt 0.32667 0.525
vt 0.32667 0.725
vt 0.34333 0.725
vt 0.34333 0.525
vt 0.32667 0.525
vt 0.34333 0.725
vt 0.34333 0.525
vt 0.34333 0.725
vt 0.36 0.725
vt 0.36 0.525
vt 0.34333 0.525
vt 0.36 0.725
vt 0.26 0.525
vt 0.26 0.725
vt 0.27667 0.725
vt 0.27667 0.525
vt 0.26 0.525
vt 0.27667 0.725
vt 0.27667 0.525
vt 0.27667 0.725
vt 0.29333 0.725
vt 0.29333 0.525
vt 0.27667 0.525
vt 0.29333 0.725
vt 0.29333 0.525
vt 0.29333 0.725
vt 0.31 0.725
vt 0.31 0.525
vt 0.29333 0.525
vt 0.31 0.725
vt 0.31 0.525
vt 0.31 0.725
vt 0.32667 0.725
vt 0.32667 0.525
vt 0.31 0.525
vt 0.32667 0.725
vt 0.32667 0.525
vt 0.32667 0.725
vt 0.34333 0.725
vt 0.34333 0.525
vt 0.32667 0.525
vt 0.34333 0.725
vt 0.34333 0.525
vt 0.34333 0.725
vt 0.36 0.725
vt 0.36 0.525
vt 0.34333 0.525
vt 0.36 0.725
vt 0.26 0.525
vt 0.26 0.725
vt 0.27667 0.725
vt 0.27667 0.525
vt 0.26 0.525
vt 0.27667 0.725
vt 0.27667 0.525
vt 0.27667 0.725
vt 0.29333 0.725
vt 0.29333 0.525
vt 0.27667 0.525
vt 0.29333 0.725
vt 0.29333 0.525
vt 0.29333 0.725
vt 0.31 0.725
vt 0.31 0.525
vt 0.29333 0.525
vt 0.31 0.725
vt 0.31 0.525
vt 0.31 0.725
vt 0.32667 0.725
vt 0.32667 0.525
vt 0.31 0.525
vt 0.32667 0.725
vt 0.32667 0.525
vt 0.32667 0.725
vt 0.34333 0.725
vt 0.34333 0.525
vt 0.32667 0.525
vt 0.34333 0.725
vt 0.34333 0.525
vt 0.34333 0.725
vt 0.36 0.725
vt 0.36 0.525
vt 0.34333 0.525
vt 0.36 0.725
vt 0.26 0.525
vt 0.26 0.725
vt 0.27667 0.725
vt 0.27667 0.525
vt 0.26 0.525
vt 0.27667 0.725
vt 0.27667 0.525
vt 0.27667 0.725
vt 0.29333 0.725
vt 0.29333 0.525
vt 0.27667 0.525
vt 0.29333 0.725
vt 0.29333 0.525
vt 0.29333 0.725
vt 0.31 0.725
vt 0.31 0.525
vt 0.29333 0.525
vt 0.31 0.725
vt 0.31 0.525
vt 0.31 0.725
vt 0.32667 0.725
vt 0.32667 0.525
vt 0.31 0.525
vt 0.32667 0.725
vt 0.32667 0.525
vt 0.32667 0.725
vt 0.34333 0.725
vt 0.34333 0.525
vt 0.32667 0.525
vt 0.34333 0.725
vt 0.34333 0.525
vt 0.34333 0.725
vt 0.36 0.725
vt 0.36 0.525
vt 0.34333 0.525
vt 0.36 0.725
vt 0.26 0.525
vt 0.26 0.725
vt 0.27667 0.725
vt 0.27667 0.525
vt 0.26 0.525
vt 0.27667 0.725
vt 0.27667 0.525
vt 0.27667 0.725
vt 0.29333 0.725
vt 0.29333 0.525
vt 0.27667 0.525
vt 0.29333 0.725
vt 0.29333 0.525
vt 0.29333 0.725
vt 0.31 0.725
vt 0.31 0.525
vt 0.29333 0.525
vt 0.31 0.725
vt 0.31 0.525
vt 0.31 0.725
vt 0.32667 0.725
vt 0.32667 0.525
vt 0.31 0.525
vt 0.32667 0.725
vt 0.32667 0.525
vt 0.32667 0.725
vt 0.34333 0.725
vt 0.34333 0.525
vt 0.32667 0.525
vt 0.34333 0.725
vt 0.34333 0.525
vt 0.34333 0.725
vt 0.36 0.725
vt 0.36 0.525
vt 0.34333 0.525
vt 0.36 0.725
vt 0.26 0.525
vt 0.26 0.725
vt 0.27667 0.725
vt 0.27667 0.525
vt 0.26 0.525
vt 0.27667 0.725
vt 0.27667 0.525
vt 0.27667 0.725
vt 0.29333 0.725
vt 0.29333 0.525
vt 0.27667 0.525
vt 0.29333 0.725
vt 0.29333 0.525
vt 0.29333 0.725
vt 0.31 0.725
vt 0.31 0.525
vt 0.29333 0.525
vt 0.31 0.725
vt 0.31 0.525
vt 0.31 0.725
vt 0.32667 0.725
vt 0.32667 0.525
vt 0.31 0.525
vt 0.32667 0.725
vt 0.32667 0.525
vt 0.32667 0.725
vt 0.34333 0.725
vt 0.34333 0.525
vt 0.32667 0.525
vt 0.34333 0.725
vt 0.34333 0.525
vt 0.34333 0.725
vt 0.36 0.725
vt 0.36 0.525
vt 0.34333 0.525
vt 0.36 0.725
vt 0.26 0.525
vt 0.26 0.725
vt 0.27667 0.725
vt 0.27667 0.525
vt 0.26 0.525
vt 0.27667 0.725
vt 0.27667 0.525
vt 0.27667 0.725
vt 0.29333 0.725
vt 0.29333 0.525
vt 0.27667 0.525
vt 0.29333 0.725
vt 0.29333 0.525
vt 0.29333 0.725
vt 0.31 0.725
vt 0.31 0.525
vt 0.29333 0.525
vt 0.31 0.725
vt 0.31 0.525
vt 0.31 0.725
vt 0.32667 0.725
vt 0.32667 0.525
vt 0.31 0.525
vt 0.32667 0.725
vt 0.32667 0.525
vt 0.32667 0.725
vt 0.34333 0.725
vt 0.34333 0.525
vt 0.32667 0.525
vt 0.34333 0.725
vt 0.34333 0.525
vt 0.34333 0.725
vt 0.36 0.725
vt 0.36 0.525
vt 0.34333 0.525
vt 0.36 0.725
vt 0.26 0.525
vt 0.26 0.725
vt 0.27667 0.725
vt 0.27667 0.525
vt 0.26 0.525
vt 0.27667 0.725
vt 0.27667 0.525
vt 0.27667 0.725
vt 0.29333 0.725
vt 0.29333 0.525
vt 0.27667 0.525
vt 0.29333 0.725
vt 0.29333 0.525
vt 0.29333 0.725
vt 0.31 0.725
vt 0.31 0.525
vt 0.29333 0.525
vt 0.31 0.725
vt 0.31 0.525
vt 0.31 0.725
vt 0.32667 0.725
vt 0.32667 0.525
vt 0.31 0.525
vt 0.32667 0.725
vt 0.32667 0.525
vt 0.32667 0.725
vt 0.34333 0.725
vt 0.34333 0.525
vt 0.32667 0.525
vt 0.34333 0.725
vt 0.34333 0.525
vt 0.34333 0.725
vt 0.36 0.725
vt 0.36 0.525
vt 0.34333 0.525
vt 0.36 0.725
vt 0.26 0.525
vt 0.26 0.725
vt 0.27667 0.725
vt 0.27667 0.525
vt 0.26 0.525
vt 0.27667 0.725
vt 0.27667 0.525
vt 0.27667 0.725
vt 0.29333 0.725
vt 0.29333 0.525
vt 0.27667 0.525
vt 0.29333 0.725
vt 0.29333 0.525
vt 0.29333 0.725
vt 0.31 0.725
vt 0.31 0.525
vt 0.29333 0.525
vt 0.31 0.725
vt 0.31 0.525
vt 0.31 0.725
vt 0.32667 0.725
vt 0.32667 0.525
vt 0.31 0.525
vt 0.32667 0.725
vt 0.32667 0.525
vt 0.32667 0.725
vt 0.34333 0.725
vt 0.34333 0.525
vt 0.32667 0.525
vt 0.34333 0.725
vt 0.34333 0.525
vt 0.34333 0.725
vt 0.36 0.725
vt 0.36 0.525
vt 0.34333 0.525
vt 0.36 0.725
vt 0.26 0.525
vt 0.26 0.725
vt 0.27667 0.725
vt 0.27667 0.525
vt 0.26 0.525
vt 0.27667 0.725
vt 0.27667 0.525
vt 0.27667 0.725
vt 0.29333 0.725
vt 0.29333 0.525
vt 0.27667 0.525
vt 0.29333 0.725
vt 0.29333 0.525
vt 0.29333 0.725
vt 0.31 0.725
vt 0.31 0.525
vt 0.29333 0.525
vt 0.31 0.725
vt 0.31 0.525
vt 0.31 0.725
vt 0.32667 0.725
vt 0.32667 0.525
vt 0.31 0.525
vt 0.32667 0.725
vt 0.32667 0.525
vt 0.32667 0.725
vt 0.34333 0.725
vt 0.34333 0.525
vt 0.32667 0.525
vt 0.34333 0.725
vt 0.34333 0.525
vt 0.34333 0.725
vt 0.36 0.725
vt 0.36 0.525
vt 0.34333 0.525
vt 0.36 0.725

f 13/1 1/2 2/3
f 14/4 13/5 2/6
f 14/7 2/8 3/9
f 15/10 14/11 3/12
f 15/13 3/14 4/15
f 16/16 15/17 4/18
f 16/19 4/20 5/21
f 17/22 16/23 5/24
f 17/25 5/26 6/27
f 18/28 17/29 6/30
f 18/31 6/32 7/33
f 19/34 18/35 7/36
f 19/37 7/38 8/39
f 20/40 19/41 8/42
f 20/43 8/44 9/45
f 21/46 20/47 9/48
f 21/49 9/50 10/51
f 22/52 21/53 10/54
f 22/55 10/56 11/57
f 23/58 22/59 11/60
f 23/61 11/62 12/63
f 24/64 23/65 12/66
f 24/67 12/68 1/69
f 13/70 24/71 1/72
f 25/73 13/74 14/75
f 26/76 25/77 14/78
f 26/79 14/80 15/81
f 27/82 26/83 15/84
f 27/85 15/86 16/87
f 28/88 27/89 16/90
f 28/91 16/92 17/93
f 29/94 28/95 17/96
f 29/97 17/98 18/99
f 30/100 29/101 18/102
f 30/103 18/104 19/105
f 31/106 30/107 19/108
f 31/109 19/110 20/111
f 32/112 31/113 20/114
f 32/115 20/116 21/117
f 33/118 32/119 21/120
f 33/121 21/122 22/123
f 34/124 33/125 22/126
f 34/127 22/128 23/129
f 35/130 34/131 23/132
f 35/133 23/134 24/135
f 36/136 35/137 24/138
f 36/139 24/140 13/141
f 25/142 36/143 13/144
f 37/145 25/146 26/147
f 38/148 37/149 26/150
f 38/151 26/152 27/153
f 39/154 38/155 27/156
f 39/157 27/158 28/159
f 40/160 39/161 28/162
f 40/163 28/164 29/165
f 41/166 40/167 29/168
f 41/169 29/170 30/171
f 42/172 41/173 30/174
f 42/175 30/176 31/177
f 43/178 42/179 31/180
f 43/181 31/182 32/183
f 44/184 43/185 32/186
f 44/187 32/188 33/189
f 45/190 44/191 33/192
f 45/193 33/194 34/195
f 46/196 45/197 34/198
f 46/199 34/200 35/201
f 47/202 46/203 35/204
f 47/205 35/206 36/207
f 48/208 47/209 36/210
f 48/211 36/212 25/213
f 37/214 48/215 25/216
f 49/217 37/218 38/219
f 50/220 49/221 38/222
f 50/223 38/224 39/225
f 51/226 50/227 39/228
f 51/229 39/230 40/231
f 52/232 51/233 40/234
f 52/235 40/236 41/237
f 53/238 52/239 41/240
f 53/241 41/242 42/243
f 54/244 53/245 42/246
f 54/247 42/248 43/249
f 55/250 54/251 43/252
f 55/253 43/254 44/255
f 56/256 55/257 44/258
f 56/259 44/260 45/261
f 57/262 56/263 45/264
f 57/265 45/266 46/267
f 58/268 57/269 46/270
f 58/271 46/272 47/273
f 59/274 58/275 47/276
f 59/277 47/278 48/279
f 60/280 59/281 48/282
f 60/283 48/284 37/285
f 49/286 60/287 37/288
f 61/289 49/290 50/291
f 62/292 61/293 50/294
f 62/295 50/296 51/297
f 63/298 62/299 51/300
f 63/301 51/302 52/303
f 64/304 63/305 52/306
f 64/307 52/308 53/309
f 65/310 64/311 53/312
f 65/313 53/314 54/315
f 66/316 65/317 54/318
f 66/319 54/320 55/321
f 67/322 66/323 55/324
f 67/325 55/326 56/327
f 68/328 67/329 56/330
f 68/331 56/332 57/333
f 69/334 68/335 57/336
f 69/337 57/338 58/339
f 70/340 69/341 58/342
f 70/343 58/344 59/345
f 71/346 70/347 59/348
f 71/349 59/350 60/351
f 72/352 71/353 60/354
f 72/355 60/356 49/357
f 61/358 72/359 49/360
f 73/361 61/362 62/363
f 74/364 73/365 62/366
f 74/367 62/368 63/369
f 75/370 74/371 63/372
f 75/373 63/374 64/375
f 76/376 75/377 64/378
f 76/379 64/380 65/381
f 77/382 76/383 65/384
f 77/385 65/386 66/387
f 78/388 77/389 66/390
f 78/391 66/392 67/393
f 79/394 78/395 67/396
f 79/397 67/398 68/399
f 80/400 79/401 68/402
f 80/403 68/404 69/405
f 81/406 80/407 69/408
f 81/409 69/410 70/411
f 82/412 81/413 70/414
f 82/415 70/416 71/417
f 83/418 82/419 71/420
f 83/421 71/422 72/423
f 84/424 83/425 72/426
f 84/427 72/428 61/429
f 73/430 84/431 61/432
f 85/433 73/434 74/435
f 86/436 85/437 74/438
f 86/439 74/440 75/441
f 87/442 86/443 75/444
f 87/445 75/446 76/447
f 88/448 87/449 76/450
f 88/451 76/452 77/453
f 89/454 88/455 77/456
f 89/457 77/458 78/459
f 90/460 89/461 78/462
f 90/463 78/464 79/465
f 91/466 90/467 79/468
f 91/469 79/470 80/471
f 92/472 91/473 80/474
f 92/475 80/476 81/477
f 93/478 92/479 81/480
f 93/481 81/482 82/483
f 94/484 93/485 82/486
f 94/487 82/488 83/489
f 95/490 94/491 83/492
f 95/493 83/494 84/495
f 96/496 95/497 84/498
f 96/499 84/500 73/501
f 85/502 96/503 73/504
f 97/505 85/506 86/507
f 98/508 97/509 86/510
f 98/511 86/512 87/513
f 99/514 98/515 87/516
f 99/517 87/518 88/519
f 100/520 99/521 88/522
f 100/523 88/524 89/525
f 101/526 100/527 89/528
f 101/529 89/530 90/531
f 102/532 101/533 90/534
f 102/535 90/536 91/537
f 103/538 102/539 91/540
f 103/541 91/542 92/543
f 104/544 103/545 92/546
f 104/547 92/548 93/549
f 105/550 104/551 93/552
f 105/553 93/554 94/555
f 106/556 105/557 94/558
f 106/559 94/560 95/561
f 107/562 106/563 95/564
f 107/565 95/566 96/567
f 108/568 107/569 96/570
f 108/571 96/572 85/573
f 97/574 108/575 85/576
f 109/577 97/578 98/579
f 110/580 109/581 98/582
f 110/583 98/584 99/585
f 111/586 110/587 99/588
f 111/589 99/590 100/591
f 112/592 111/593 100/594
f 112/595 100/596 101/597
f 113/598 112/599 101/600
f 113/601 101/602 102/603
f 114/604 113/605 102/606
f 114/607 102/608 103/609
f 115/610 114/611 103/612
f 115/613 103/614 104/615
f 116/616 115/617 104/618
f 116/619 104/620 105/621
f 117/622 116/623 105/624
f 117/625 105/626 106/627
f 118/628 117/629 106/630
f 118/631 106/632 107/633
f 119/634 118/635 107/636
f 119/637 107/638 108/639
f 120/640 119/641 108/642
f 120/643 108/644 97/645
f 109/646 120/647 97/648
f 121/649 109/650 110/651
f 122/652 121/653 110/654
f 122/655 110/656 111/657
f 123/658 122/659 111/660
f 123/661 111/662 112/663
f 124/664 123/665 112/666
f 124/667 112/668 113/669
f 125/670 124/671 113/672
f 125/673 113/674 114/675
f 126/676 125/677 114/678
f 126/679 114/680 115/681
f 127/682 126/683 115/684
f 127/685 115/686 116/687
f 128/688 127/689 116/690
f 128/691 116/692 117/693
f 129/694 128/695 117/696
f 129/697 117/698 118/699
f 130/700 129/701 118/702
f 130/703 118/704 119/705
f 131/706 130/707 119/708
f 131/709 119/710 120/711
f 132/712 131/713 120/714
f 132/715 120/716 109/717
f 121/718 132/719 109/720
f 133/721 121/722 122/723
f 134/724 133/725 122/726
f 134/727 122/728 123/729
f 135/730 134/731 123/732
f 135/733 123/734 124/735
f 136/736 135/737 124/738
f 136/739 124/740 125/741
f 137/742 136/743 125/744
f 137/745 125/746 126/747
f 138/748 137/749 126/750
f 138/751 126/752 127/753
f 139/754 138/755 127/756
f 139/757 127/758 128/759
f 140/760 139/761 128/762
f 140/763 128/764 129/765
f 141/766 140/767 129/768
f 141/769 129/770 130/771
f 142/772 141/773 130/774
f 142/775 130/776 131/777
f 143/778 142/779 131/780
f 143/781 131/782 132/783
f 144/784 143/785 132/786
f 144/787 132/788 121/789
f 133/790 144/791 121/792
f 145/793 133/794 134/795
f 146/796 145/797 134/798
f 146/799 134/800 135/801
f 147/802 146/803 135/804
f 147/805 135/806 136/807
f 148/808 147/809 136/810
f 148/811 136/812 137/813
f 149/814 148/815 137/816
f 149/817 137/818 138/819
f 150/820 149/821 138/822
f 150/823 138/824 139/825
f 151/826 150/827 139/828
f 151/829 139/830 140/831
f 152/832 151/833 140/834
f 152/835 140/836 141/837
f 153/838 152/839 141/840
f 153/841 141/842 142/843
f 154/844 153/845 142/846
f 154/847 142/848 143/849
f 155/850 154/851 143/852
f 155/853 143/854 144/855
f 156/856 155/857 144/858
f 156/859 144/860 133/861
f 145/862 156/863 133/864
f 157/865 145/866 146/867
f 158/868 157/869 146/870
f 158/871 146/872 147/873
f 159/874 158/875 147/876
f 159/877 147/878 148/879
f 160/880 159/881 148/882
f 160/883 148/884 149/885
f 161/886 160/887 149/888
f 161/889 149/890 150/891
f 162/892 161/893 150/894
f 162/895 150/896 151/897
f 163/898 162/899 151/900
f 163/901 151/902 152/903
f 164/904 163/905 152/906
f 164/907 152/908 153/909
f 165/910 164/911 153/912
f 165/913 153/914 154/915
f 166/916 165/917 154/918
f 166/919 154/920 155/921
f 167/922 166/923 155/924
f 167/925 155/926 156/927
f 168/928 167/929 156/930
f 168/931 156/932 145/933
f 157/934 168/935 145/936
f 169/937 157/938 158/939
f 170/940 169/941 158/942
f 170/943 158/944 159/945
f 171/946 170/947 159/948
f 171/949 159/950 160/951
f 172/952 171/953 160/954
f 172/955 160/956 161/957
f 173/958 172/959 161/960
f 173/961 161/962 162/963
f 174/964 173/965 162/966
f 174/967 162/968 163/969
f 175/970 174/971 163/972
f 175/973 163/974 164/975
f 176/976 175/977 164/978
f 176/979 164/980 165/981
f 177/982 176/983 165/984
f 177/985 165/986 166/987
f 178/988 177/989 166/990
f 178/991 166/992 167/993
f 179/994 178/995 167/996
f 179/997 167/998 168/999
f 180/1000 179/1001 168/1002
f 180/1003 168/1004 157/1005
f 169/1006 180/1007 157/1008
f 181/1009 169/1010 170/1011
f 182/1012 181/1013 170/1014
f 182/1015 170/1016 171/1017
f 183/1018 182/1019 171/1020
f 183/1021 171/1022 172/1023
f 184/1024 183/1025 172/1026
f 184/1027 172/1028 173/1029
f 185/1030 184/1031 173/1032
f 185/1033 173/1034 174/1035
f 186/1036 185/1037 174/1038
f 186/1039 174/1040 175/1041
f 187/1042 186/1043 175/1044
f 187/1045 175/1046 176/1047
f 188/1048 187/1049 176/1050
f 188/1051 176/1052 177/1053
f 189/1054 188/1055 177/1056
f 189/1057 177/1058 178/1059
f 190/1060 189/1061 178/1062
f 190/1063 178/1064 179/1065
f 191/1066 190/1067 179/1068
f 191/1069 179/1070 180/1071
f 192/1072 191/1073 180/1074
f 192/1075 180/1076 169/1077
f 181/1078 192/1079 169/1080
f 193/1081 181/1082 182/1083
f 194/1084 193/1085 182/1086
f 194/1087 182/1088 183/1089
f 195/1090 194/1091 183/1092
f 195/1093 183/1094 184/1095
f 196/1096 195/1097 184/1098
f 196/1099 184/1100 185/1101
f 197/1102 196/1103 185/1104
f 197/1105 185/1106 186/1107
f 198/1108 197/1109 186/1110
f 198/1111 186/1112 187/1113
f 199/1114 198/1115 187/1116
f 199/1117 187/1118 188/1119
f 200/1120 199/1121 188/1122
f 200/1123 188/1124 189/1125
f 201/1126 200/1127 189/1128
f 201/1129 189/1130 190/1131
f 202/1132 201/1133 190/1134
f 202/1135 190/1136 191/1137
f 203/1138 202/1139 191/1140
f 203/1141 191/1142 192/1143
f 204/1144 203/1145 192/1146
f 204/1147 192/1148 181/1149
f 193/1150 204/1151 181/1152
f 205/1153 193/1154 194/1155
f 206/1156 205/1157 194/1158
f 206/1159 194/1160 195/1161
f 207/1162 206/1163 195/1164
f 207/1165 195/1166 196/1167
f 208/1168 207/1169 196/1170
f 208/1171 196/1172 197/1173
f 209/1174 208/1175 197/1176
f 209/1177 197/1178 198/1179
f 210/1180 209/1181 198/1182
f 210/1183 198/1184 199/1185
f 211/1186 210/1187 199/1188
f 211/1189 199/1190 200/1191
f 212/1192 211/1193 200/1194
f 212/1195 200/1196 201/1197
f 213/1198 212/1199 201/1200
f 213/1201 201/1202 202/1203
f 214/1204 213/1205 202/1206
f 214/1207 202/1208 203/1209
f 215/1210 214/1211 203/1212
f 215/1213 203/1214 204/1215
f 216/1216 215/1217 204/1218
f 216/1219 204/1220 193/1221
f 205/1222 216/1223 193/1224
f 217/1225 205/1226 206/1227
f 218/1228 217/1229 206/1230
f 218/1231 206/1232 207/1233
f 219/1234 218/1235 207/1236
f 219/1237 207/1238 208/1239
f 220/1240 219/1241 208/1242
f 220/1243 208/1244 209/1245
f 221/1246 220/1247 209/1248
f 221/1249 209/1250 210/1251
f 222/1252 221/1253 210/1254
f 222/1255 210/1256 211/1257
f 223/1258 222/1259 211/1260
f 223/1261 211/1262 212/1263
f 224/1264 223/1265 212/1266
f 224/1267 212/1268 213/1269
f 225/1270 224/1271 213/1272
f 225/1273 213/1274 214/1275
f 226/1276 225/1277 214/1278
f 226/1279 214/1280 215/1281
f 227/1282 226/1283 215/1284
f 227/1285 215/1286 216/1287
f 228/1288 227/1289 216/1290
f 228/1291 216/1292 205/1293
f 217/1294 228/1295 205/1296
f 229/1297 217/1298 218/1299
f 230/1300 229/1301 218/1302
f 230/1303 218/1304 219/1305
f 231/1306 230/1307 219/1308
f 231/1309 219/1310 220/1311
f 232/1312 231/1313 220/1314
f 232/1315 220/1316 221/1317
f 233/1318 232/1319 221/1320
f 233/1321 221/1322 222/1323
f 234/1324 233/1325 222/1326
f 234/1327 222/1328 223/1329
f 235/1330 234/1331 223/1332
f 235/1333 223/1334 224/1335
f 236/1336 235/1337 224/1338
f 236/1339 224/1340 225/1341
f 237/1342 236/1343 225/1344
f 237/1345 225/1346 226/1347
f 238/1348 237/1349 226/1350
f 238/1351 226/1352 227/1353
f 239/1354 238/1355 227/1356
f 239/1357 227/1358 228/1359
f 240/1360 239/1361 228/1362
f 240/1363 228/1364 217/1365
f 229/1366 240/1367 217/1368
f 241/1369 229/1370 230/1371
f 242/1372 241/1373 230/1374
f 242/1375 230/1376 231/1377
f 243/1378 242/1379 231/1380
f 243/1381 231/1382 232/1383
f 244/1384 243/1385 232/1386
f 244/1387 232/1388 233/1389
f 245/1390 244/1391 233/1392
f 245/1393 233/1394 234/1395
f 246/1396 245/1397 234/1398
f 246/1399 234/1400 235/1401
f 247/1402 246/1403 235/1404
f 247/1405 235/1406 236/1407
f 248/1408 247/1409 236/1410
f 248/1411 236/1412 237/1413
f 249/1414 248/1415 237/1416
f 249/1417 237/1418 238/1419
f 250/1420 249/1421 238/1422
f 250/1423 238/1424 239/1425
f 251/1426 250/1427 239/1428
f 251/1429 239/1430 240/1431
f 252/1432 251/1433 240/1434
f 252/1435 240/1436 229/1437
f 241/1438 252/1439 229/1440
f 253/1441 241/1442 242/1443
f 254/1444 253/1445 242/1446
f 254/1447 242/1448 243/1449
f 255/1450 254/1451 243/1452
f 255/1453 243/1454 244/1455
f 256/1456 255/1457 244/1458
f 256/1459 244/1460 245/1461
f 257/1462 256/1463 245/1464
f 257/1465 245/1466 246/1467
f 258/1468 257/1469 246/1470
f 258/1471 246/1472 247/1473
f 259/1474 258/1475 247/1476
f 259/1477 247/1478 248/1479
f 260/1480 259/1481 248/1482
f 260/1483 248/1484 249/1485
f 261/1486 260/1487 249/1488
f 261/1489 249/1490 250/1491
f 262/1492 261/1493 250/1494
f 262/1495 250/1496 251/1497
f 263/1498 262/1499 251/1500
f 263/1501 251/1502 252/1503
f 264/1504 263/1505 252/1506
f 264/1507 252/1508 241/1509
f 253/1510 264/1511 241/1512
f 265/1513 253/1514 254/1515
f 266/1516 265/1517 254/1518
f 266/1519 254/1520 255/1521
f 267/1522 266/1523 255/1524
f 267/1525 255/1526 256/1527
f 268/1528 267/1529 256/1530
f 268/1531 256/1532 257/1533
f 269/1534 268/1535 257/1536
f 269/1537 257/1538 258/1539
f 270/1540 269/1541 258/1542
f 270/1543 258/1544 259/1545
f 271/1546 270/1547 259/1548
f 271/1549 259/1550 260/1551
f 272/1552 271/1553 260/1554
f 272/1555 260/1556 261/1557
f 273/1558 272/1559 261/1560
f 273/1561 261/1562 262/1563
f 274/1564 273/1565 262/1566
f 274/1567 262/1568 263/1569
f 275/1570 274/1571 263/1572
f 275/1573 263/1574 264/1575
f 276/1576 275/1577 264/1578
f 276/1579 264/1580 253/1581
f 265/1582 276/1583 253/1584
f 277/1585 265/1586 266/1587
f 278/1588 277/1589 266/1590
f 278/1591 266/1592 267/1593
f 279/1594 278/1595 267/1596
f 279/1597 267/1598 268/1599
f 280/1600 279/1601 268/1602
f 280/1603 268/1604 269/1605
f 281/1606 280/1607 269/1608
f 281/1609 269/1610 270/1611
f 282/1612 281/1613 270/1614
f 282/1615 270/1616 271/1617
f 283/1618 282/1619 271/1620
f 283/1621 271/1622 272/1623
f 284/1624 283/1625 272/1626
f 284/1627 272/1628 273/1629
f 285/1630 284/1631 273/1632
f 285/1633 273/1634 274/1635
f 286/1636 285/1637 274/1638
f 286/1639 274/1640 275/1641
f 287/1642 286/1643 275/1644
f 287/1645 275/1646 276/1647
f 288/1648 287/1649 276/1650
f 288/1651 276/1652 265/1653
f 277/1654 288/1655 265/1656
f 289/1657 277/1658 278/1659
f 290/1660 289/1661 278/1662
f 290/1663 278/1664 279/1665
f 291/1666 290/1667 279/1668
f 291/1669 279/1670 280/1671
f 292/1672 291/1673 280/1674
f 292/1675 280/1676 281/1677
f 293/1678 292/1679 281/1680
f 293/1681 281/1682 282/1683
f 294/1684 293/1685 282/1686
f 294/1687 282/1688 283/1689
f 295/1690 294/1691 283/1692
f 295/1693 283/1694 284/1695
f 296/1696 295/1697 284/1698
f 296/1699 284/1700 285/1701
f 297/1702 296/1703 285/1704
f 297/1705 285/1706 286/1707
f 298/1708 297/1709 286/1710
f 298/1711 286/1712 287/1713
f 299/1714 298/1715 287/1716
f 299/1717 287/1718 288/1719
f 300/1720 299/1721 288/1722
f 300/1723 288/1724 277/1725
f 289/1726 300/1727 277/1728
f 301/1729 289/1730 290/1731
f 302/1732 301/1733 290/1734
f 302/1735 290/1736 291/1737
f 303/1738 302/1739 291/1740
f 303/1741 291/1742 292/1743
f 304/1744 303/1745 292/1746
f 304/1747 292/1748 293/1749
f 305/1750 304/1751 293/1752
f 305/1753 293/1754 294/1755
f 306/1756 305/1757 294/1758
f 306/1759 294/1760 295/1761
f 307/1762 306/1763 295/1764
f 307/1765 295/1766 296/1767
f 308/1768 307/1769 296/1770
f 308/1771 296/1772 297/1773
f 309/1774 308/1775 297/1776
f 309/1777 297/1778 298/1779
f 310/1780 309/1781 298/1782
f 310/1783 298/1784 299/1785
f 311/1786 310/1787 299/1788
f 311/1789 299/1790 300/1791
f 312/1792 311/1793 300/1794
f 312/1795 300/1796 289/1797
f 301/1798 312/1799 289/1800
f 313/1801 301/1802 302/1803
f 314/1804 313/1805 302/1806
f 314/1807 302/1808 303/1809
f 315/1810 314/1811 303/1812
f 315/1813 303/1814 304/1815
f 316/1816 315/1817 304/1818
f 316/1819 304/1820 305/1821
f 317/1822 316/1823 305/1824
f 317/1825 305/1826 306/1827
f 318/1828 317/1829 306/1830
f 318/1831 306/1832 307/1833
f 319/1834 318/1835 307/1836
f 319/1837 307/1838 308/1839
f 320/1840 319/1841 308/1842
f 320/1843 308/1844 309/1845
f 321/1846 320/1847 309/1848
f 321/1849 309/1850 310/1851
f 322/1852 321/1853 310/1854
f 322/1855 310/1856 311/1857
f 323/1858 322/1859 311/1860
f 323/1861 311/1862 312/1863
f 324/1864 323/1865 312/1866
f 324/1867 312/1868 301/1869
f 313/1870 324/1871 301/1872
f 325/1873 313/1874 314/1875
f 326/1876 325/1877 314/1878
f 326/1879 314/1880 315/1881
f 327/1882 326/1883 315/1884
f 327/1885 315/1886 316/1887
f 328/1888 327/1889 316/1890
f 328/1891 316/1892 317/1893
f 329/1894 328/1895 317/1896
f 329/1897 317/1898 318/1899
f 330/1900 329/1901 318/1902
f 330/1903 318/1904 319/1905
f 331/1906 330/1907 319/1908
f 331/1909 319/1910 320/1911
f 332/1912 331/1913 320/1914
f 332/1915 320/1916 321/1917
f 333/1918 332/1919 321/1920
f 333/1921 321/1922 322/1923
f 334/1924 333/1925 322/1926
f 334/1927 322/1928 323/1929
f 335/1930 334/1931 323/1932
f 335/1933 323/1934 324/1935
f 336/1936 335/1937 324/1938
f 336/1939 324/1940 313/1941
f 325/1942 336/1943 313/1944
f 337/1945 325/1946 326/1947
f 338/1948 337/1949 326/1950
f 338/1951 326/1952 327/1953
f 339/1954 338/1955 327/1956
f 339/1957 327/1958 328/1959
f 340/1960 339/1961 328/1962
f 340/1963 328/1964 329/1965
f 341/1966 340/1967 329/1968
f 341/1969 329/1970 330/1971
f 342/1972 341/1973 330/1974
f 342/1975 330/1976 331/1977
f 343/1978 342/1979 331/1980
f 343/1981 331/1982 332/1983
f 344/1984 343/1985 332/1986
f 344/1987 332/1988 333/1989
f 345/1990 344/1991 333/1992
f 345/1993 333/1994 334/1995
f 346/1996 345/1997 334/1998
f 346/1999 334/2000 335/2001
f 347/2002 346/2003 335/2004
f 347/2005 335/2006 336/2007
f 348/2008 347/2009 336/2010
f 348/2011 336/2012 325/2013
f 337/2014 348/2015 325/2016
f 349/2017 337/2018 338/2019
f 350/2020 349/2021 338/2022
f 350/2023 338/2024 339/2025
f 351/2026 350/2027 339/2028
f 351/2029 339/2030 340/2031
f 352/2032 351/2033 340/2034
f 352/2035 340/2036 341/2037
f 353/2038 352/2039 341/2040
f 353/2041 341/2042 342/2043
f 354/2044 353/2045 342/2046
f 354/2047 342/2048 343/2049
f 355/2050 354/2051 343/2052
f 355/2053 343/2054 344/2055
f 356/2056 355/2057 344/2058
f 356/2059 344/2060 345/2061
f 357/2062 356/2063 345/2064
f 357/2065 345/2066 346/2067
f 358/2068 357/2069 346/2070
f 358/2071 346/2072 347/2073
f 359/2074 358/2075 347/2076
f 359/2077 347/2078 348/2079
f 360/2080 359/2081 348/2082
f 360/2083 348/2084 337/2085
f 349/2086 360/2087 337/2088
f 361/2089 349/2090 350/2091
f 362/2092 361/2093 350/2094
f 362/2095 350/2096 351/2097
f 363/2098 362/2099 351/2100
f 363/2101 351/2102 352/2103
f 364/2104 363/2105 352/2106
f 364/2107 352/2108 353/2109
f 365/2110 364/2111 353/2112
f 365/2113 353/2114 354/2115
f 366/2116 365/2117 354/2118
f 366/2119 354/2120 355/2121
f 367/2122 366/2123 355/2124
f 367/2125 355/2126 356/2127
f 368/2128 367/2129 356/2130
f 368/2131 356/2132 357/2133
f 369/2134 368/2135 357/2136
f 369/2137 357/2138 358/2139
f 370/2140 369/2141 358/2142
f 370/2143 358/2144 359/2145
f 371/2146 370/2147 359/2148
f 371/2149 359/2150 360/2151
f 372/2152 371/2153 360/2154
f 372/2155 360/2156 349/2157
f 361/2158 372/2159 349/2160
